<?xml version="1.0" encoding="utf-8"?>
<!-- Generator: Adobe Illustrator 23.1.1, SVG Export Plug-In . SVG Version: 6.00 Build 0)  -->
<svg version="1.1" id="Layer_1" xmlns="http://www.w3.org/2000/svg" xmlns:xlink="http://www.w3.org/1999/xlink" x="0px" y="0px"
	 viewBox="0 0 649.8 649.8" style="enable-background:new 0 0 649.8 649.8;" xml:space="preserve">
<style type="text/css">
	.st0{fill:#000111;}
</style>
<g>
	<path class="st0" d="M314.9,650.8c-1.1-1-2.4-1.8-3.2-3c-1.8-2.9-1.3-5.8,1.2-8c2.5-2.3,5.4-2.4,8.1-0.2c2.6,2.1,3.3,4.9,1.7,7.9
		c-0.7,1.3-1.8,2.3-2.8,3.4C318.3,650.8,316.6,650.8,314.9,650.8z"/>
	<path class="st0" d="M650.8,327.9c-0.1,0.1-0.3,0.1-0.4,0.2c-4.1,4.2-7.5,4.7-10.5,1.5c-2.6-2.7-2.4-6.8,0.5-9.2
		c3.2-2.7,6.7-1.8,10.5,2.5C650.8,324.6,650.8,326.3,650.8,327.9z"/>
	<path class="st0" d="M346.9,650.8c-0.2-1.3-1.5-1.7-2.2-2.5c-2.7-2.8-2.7-6.8-0.1-9.2s7.1-2.1,9.3,0.6c2.2,2.8,1.7,6.8-1.3,9.2
		c-0.9,0.7-2.3,0.6-2.7,2C348.9,650.8,347.9,650.8,346.9,650.8z"/>
	<path class="st0" d="M1,338.9c0.9-0.7,1.7-1.5,2.6-2.1c2.1-1.3,4.1-0.8,5.8,0.8c1.9,1.8,2.2,4,0.9,6.2c-1.3,2.1-3.3,2.7-5.5,2.1
		c-1.3-0.4-2.5-1.3-3.8-2C1,342.3,1,340.6,1,338.9z"/>
	<path class="st0" d="M318.9,1c1.7,1.4,3.3,2.6,3.2,5.2c-0.1,2.2-1.2,3.8-3.2,4.5c-2.2,0.9-4.3,0.2-5.7-1.6
		c-1.3-1.7-1.7-3.6-0.4-5.5c0.6-0.9,1.5-1.8,2.2-2.6C316.3,1,317.6,1,318.9,1z"/>
	<path class="st0" d="M1,306.9c0.2,0,0.4,0,0.5-0.1c2.7-2.6,5.6-3.7,8.4-0.4c1.9,2.2,1.6,4.8-0.6,6.5c-3.4,2.6-6.1,1-8.2-2
		C1,309.6,1,308.3,1,306.9z"/>
	<path class="st0" d="M327.1,379.8c0,3-0.4,6.1,0.1,9c1,5.9-1.9,9.4-6.2,12.5c-16.2,11.4-33.8,13.3-51.6,5.1
		c-17.5-8-25.9-22.9-26.6-41.9c-0.9-26,13.8-46,37.3-50.8c14.9-3.1,28.8-0.1,41,9.3c1.1,0.9,3.9,1.6,1.5,4c-1.7,1.7-2.7,3.7-5.9,1.2
		c-13.9-11-32.8-12.1-47.2-3.3c-13.9,8.4-21.7,26.5-19,43.7c6,38.9,45,42.6,65.8,28.1c2.8-2,4.4-4.1,4.1-7.8c-0.4-5-0.3-10,0-15
		c0.1-3.2-0.8-4.5-4.2-4.3c-5,0.2-10,0-15,0.1c-2.5,0.1-3.6-0.7-3.6-3.4c0-2.7,1.1-3.4,3.6-3.3c7.5,0.1,15,0.1,22.5,0
		c2.5,0,3.6,0.7,3.5,3.4C326.9,370.8,327.1,375.3,327.1,379.8z"/>
	<path class="st0" d="M347.6,361.9c0-14.7,0.1-29.3-0.1-44c0-2.5,0.1-4,3.3-4c3.3,0,3.8,1.4,3.8,4.2c-0.1,11.7,0.1,23.3-0.1,35
		c-0.1,3.4,1,4.1,4.1,4.1c15.8-0.1,31.6-0.2,47.5,0c3.7,0.1,4.3-1.2,4.2-4.5c-0.2-11.5,0-23-0.1-34.5c0-2.7,0.3-4.3,3.7-4.3
		c3.7-0.1,3.4,1.9,3.4,4.4c-0.1,28.8,0,57.6,0,86.4c0,2.3,0.6,4.5-3.2,4.5c-3.9,0-3.8-2-3.8-4.7c0.1-12.2-0.1-24.3,0.1-36.5
		c0-3.2-0.7-4.4-4.1-4.3c-15.8,0.2-31.6,0.2-47.5,0c-3.3,0-4.3,0.9-4.2,4.2c0.2,12.3,0,24.6,0.1,37c0,2.8-0.4,4.2-3.7,4.2
		c-3.8,0.1-3.4-1.9-3.4-4.4C347.6,390.6,347.6,376.2,347.6,361.9z"/>
	<path class="st0" d="M472,288.8c0-9.7,0-18,0-26.2c0-14.2,0-28.3,0-42.5c0-2-0.4-3.9,2.8-4c3.4-0.1,3.3,1.7,3.3,4
		c0,25,0,50-0.1,74.9c0,1.3,0.9,3.4-1.4,3.6c-1.7,0.2-3.7,0.8-5.2-0.8c-0.8-0.9-1.4-1.9-2-2.8c-14.9-21.5-29.7-42.9-44.6-64.4
		c-0.7-1.1-1.5-2.1-3.1-4.3c0,2.6,0,4,0,5.3c0,20.8,0,41.6,0,62.4c0,2.1,1.1,4.7-3,4.7s-3-2.6-3-4.7c0-24.3-0.1-48.6,0-72.9
		c0-1.7-1.4-4.3,1.6-5c2.6-0.6,4.6,0.3,6.3,2.7C439.3,241.9,455.2,264.7,472,288.8z"/>
	<path class="st0" d="M224.9,273.1c0,2.2-0.4,4.4,0.1,6.5c1.3,6.5-2.1,10.3-7,13.4c-14.6,9.2-29.9,10.3-45.1,2.4
		c-15.4-8-21.9-22-21.4-38.9c0.5-17.1,7.9-30.7,23.9-37.9c15.3-6.9,30.1-4.9,43.9,4.8c3.1,2.2,2.3,3.5,0.1,5.6
		c-1.9,1.8-2.7-0.2-3.6-0.9c-6.5-5.1-14-7.4-22.3-7.5c-16.2-0.1-28.8,9-33.7,24.5c-5.3,16.7,0.3,34.9,13.3,43.7
		c12.3,8.3,31.4,7.6,43.2-1.7c1.8-1.5,2.8-2.9,2.7-5.4c-0.2-4.7-0.2-9.3,0-14c0.2-3-1-3.7-3.7-3.6c-4.3,0.2-8.7,0-13,0.1
		c-2.2,0.1-3.4-0.3-3.3-2.9c0.1-2.5,1.3-2.6,3.1-2.6c6.7,0,13.3,0.1,20,0c2.1,0,2.9,0.6,2.8,2.9
		C224.8,265.4,224.9,269.3,224.9,273.1z"/>
	<path class="st0" d="M360.1,257.3c0-12.3,0.1-24.6-0.1-36.9c-0.1-3.4,1-4.2,4.2-4.2c10,0.2,20,0.1,30,0.1c2.1,0,3.8-0.2,3.8,3
		c0,3.3-2,2.8-4,2.8c-8,0-16,0.1-24-0.1c-3.1-0.1-4,0.8-3.9,3.9c0.2,8.1,0.2,16.3,0,24.5c-0.1,2.9,0.9,3.7,3.7,3.6
		c7-0.2,14,0,21-0.1c2.1,0,3.3,0.2,3.3,2.9c0,2.7-1.3,2.9-3.4,2.9c-6.8-0.1-13.7,0.2-20.5-0.1c-3.4-0.1-4.2,1-4.1,4.2
		c0.2,8.5,0.2,17,0,25.5c-0.1,3,0.7,4,3.9,4c8.5-0.2,17,0,25.5-0.1c2.2,0,3.8,0,3.8,3.1c0,2.9-1.7,2.7-3.6,2.7
		c-10.7,0-21.3-0.1-32,0c-2.9,0-3.7-0.8-3.6-3.7C360.1,282.6,360.1,270,360.1,257.3z"/>
	<path class="st0" d="M304.7,257.3c0-12.3,0.1-24.6-0.1-37c-0.1-3.4,1-4.2,4.2-4.2c9.8,0.2,19.6,0.1,29.5,0.1c2,0,3.9-0.4,4,2.8
		s-1.7,2.9-3.8,2.9c-7.8,0-15.7,0.1-23.5-0.1c-3-0.1-4.4,0.5-4.3,4c0.3,8,0.3,16,0,24c-0.1,3.5,1.2,4.1,4.3,4c6.7-0.2,13.3,0,20-0.1
		c1.9,0,3.5-0.3,3.6,2.6c0,3-1.3,3.2-3.6,3.2c-6.8-0.1-13.7,0.1-20.5-0.1c-2.8-0.1-3.7,0.7-3.7,3.6c0.2,8.8,0.2,17.7,0,26.5
		c-0.1,3,1,3.6,3.7,3.5c8.5-0.1,17,0,25.5-0.1c2.1,0,3.9-0.2,3.9,3c0,3.4-2.1,2.7-4,2.7c-10.5,0-21-0.1-31.5,0.1
		c-2.8,0-3.7-0.8-3.6-3.6C304.8,282.6,304.7,270,304.7,257.3z"/>
	<path class="st0" d="M459,364.9c0-13-0.2-26,0.1-38.9c0.1-4-0.8-5.6-5.1-5.3c-6.1,0.4-12.3,0-18.5,0.1c-2.7,0.1-3.8-0.7-3.8-3.6
		s1.5-3.1,3.7-3.1c18,0,35.9,0.1,53.9,0c2.7,0,3.9,0.6,3.8,3.6c0,2.9-1.5,3.2-3.8,3.2c-5.7-0.1-11.3-0.1-17,0
		c-7.4,0.1-6.5-0.8-6.5,6.2c0,25.8,0,51.6,0,77.4c0,2.1,1,4.8-3,4.8c-2.9,0-4.1-0.6-4.1-3.8C459.1,391.9,459,378.4,459,364.9z"/>
	<path class="st0" d="M157.9,361.4c0-14.2,0-28.3,0-42.5c0-2.4-0.8-4.9,3.4-5c4.1,0,3.6,2.3,3.6,4.8c0,26.3,0.1,52.6-0.1,79
		c0,4.2,1.2,5.3,5.3,5.2c9.5-0.3,19-0.1,28.5-0.1c2.1,0,4.3-0.6,4.4,3c0.1,3.8-2.2,3.3-4.5,3.3c-12,0-24-0.2-36,0.1
		c-4,0.1-4.6-1.3-4.6-4.9C158,390,157.9,375.7,157.9,361.4z"/>
	<path class="st0" d="M417.8,465.2c0-12.3-0.1-23.1,0.1-33.8c0-1.6-1.3-4.4,2.3-4.3c3.4,0.1,2.3,2.7,2.3,4.4c0.1,11.5,0.1,23,0,34.4
		c0,2,1.6,5-1.5,6c-3.5,1.2-5.3-1.2-7.1-3.8c-7-10.3-14.2-20.5-21.3-30.7c-0.6-0.8-1.2-1.6-2-2.7c-1.1,1.9-0.6,3.7-0.6,5.4
		c-0.1,9.7,0,19.3,0,29c0,1.5,0.3,3-2.1,3c-2.3,0-2.7-1-2.7-3c0.1-13,0-26,0-38.9c0-1.3-0.3-2.8,1.7-3c2.4-0.2,4.4,0,6,2.3
		c6.9,10,13.9,19.9,20.9,29.8C414.7,460.9,415.8,462.4,417.8,465.2z"/>
	<path class="st0" d="M218.2,361.4c0-14.3,0-28.6,0-43c0-2.5,0-4.5,3.5-4.5c3.6,0,3.6,1.8,3.5,4.4c0,28.8,0,57.6,0,86.4
		c0,2.5,0.1,4.4-3.5,4.4c-3.5,0-3.6-1.8-3.6-4.4C218.3,390.4,218.2,375.9,218.2,361.4z"/>
	<path class="st0" d="M272.6,449.6c0-6.2,0.1-12.3-0.1-18.5c-0.1-2.9,0.5-4.2,3.8-4.1c6.8,0.2,13.6,0,20.5,0.1c1.5,0,3.6-0.7,3.7,2
		c0.1,3.1-2.2,2.3-3.9,2.3c-5.2,0.1-10.3,0.2-15.5,0c-2.8-0.1-4.1,0.4-4.1,3.7c-0.1,11.4-0.2,11.4,11.3,11.4c2.5,0,5,0,7.5,0
		c1.4,0,3-0.4,3.1,2c0,2.3-1.4,2.2-2.9,2.2c-5,0-10,0.2-15-0.1c-3-0.1-4,0.6-4,3.8c-0.1,13.1-0.2,13.1,12.7,13.1c3,0,6,0,9,0
		c1.5,0,2.5,0.2,2.5,2.1s-1,2.2-2.5,2.1c-7.8,0-15.6-0.1-23.5,0c-2.4,0-2.7-1.1-2.6-3.1C272.7,462.6,272.6,456.1,272.6,449.6z"/>
	<path class="st0" d="M490.2,519.6c-0.1,5.9-4.8,10.4-10.6,10.2c-5.6-0.2-9.9-4.8-9.9-10.4c0-5.5,4.6-10.2,10.1-10.3
		C485.6,509,490.2,513.7,490.2,519.6z"/>
	<path class="st0" d="M531.7,446.9c0.1-5.4,4.6-9.8,9.9-9.7c5.2,0,9.8,4.8,9.9,10c0.1,5.4-4.8,10-10.4,9.9
		C535.7,456.8,531.6,452.4,531.7,446.9z"/>
	<path class="st0" d="M336.9,469.8c0,0.7,0,1.4,0,2.1c-8,0.1-16,0.1-24,0.3c-2.6,0.1-3-1-3-3.3c0.1-12.8,0-25.6,0-38.5
		c0-1.7-0.2-3.3,2.4-3.3s2.4,1.5,2.4,3.3c0,10.8,0.2,21.7-0.1,32.5c-0.1,4.3,1.2,5.6,5.3,5c2.5-0.3,5-0.1,7.5,0
		C330.7,467.9,334.2,467.2,336.9,469.8z"/>
	<path class="st0" d="M425.6,562.1c-5.5,0-9.8-4.2-9.8-9.7c0-5.7,4.4-10,10.2-9.8c5.4,0.1,9.8,4.6,9.6,10
		C435.5,558,431.1,562.2,425.6,562.1z"/>
	<path class="st0" d="M555.3,408.7c5.6,0,9.8,4.2,9.8,9.8c0,5.5-4.3,9.9-9.8,9.9s-9.8-4.3-9.8-9.9
		C545.6,412.9,549.7,408.7,555.3,408.7z"/>
	<path class="st0" d="M512.9,498.2c-0.1,5.2-4.5,9.5-9.7,9.3c-4.8-0.1-9.2-4.6-9.2-9.4c0-5.2,4.2-9.4,9.5-9.4
		C508.9,488.8,513,492.9,512.9,498.2z"/>
	<path class="st0" d="M550.9,203.5c0,5.2-4.5,9.5-9.7,9.3c-4.8-0.2-9.1-4.6-9.1-9.5c0-4.8,4.4-9.2,9.3-9.3
		C546.6,193.9,550.9,198.2,550.9,203.5z"/>
	<path class="st0" d="M145.2,486.3c0,5.3-4.3,9.5-9.5,9.4c-5.1-0.1-9.4-4.7-9.2-9.8c0.2-5,4.3-9.1,9.3-9.1
		C141,476.8,145.2,481.1,145.2,486.3z"/>
	<path class="st0" d="M219.6,545.6c-0.1,5.1-4.7,9.4-9.8,9.2c-5-0.2-9-4.4-8.9-9.5c0.1-5.2,4.6-9.5,9.7-9.3
		C215.5,536.3,219.7,540.7,219.6,545.6z"/>
	<path class="st0" d="M555.4,241.3c-5.3,0-9.5-4.2-9.4-9.4c0.1-5,4.3-9,9.4-9c5.3,0,9.6,4.3,9.4,9.5
		C564.6,237.3,560.5,241.3,555.4,241.3z"/>
	<path class="st0" d="M573.4,334.7c-4.8-0.1-9.2-4.5-9.2-9.4c0-5,4.3-9.2,9.2-9.3c5.3-0.1,9.6,4.3,9.4,9.5
		C582.6,330.6,578.4,334.7,573.4,334.7z"/>
	<path class="st0" d="M374,570.2c0.1,5.1-3.8,9.3-8.9,9.5s-9.6-4.2-9.6-9.4c0-5,4.2-9.3,9.2-9.3C369.5,561,373.9,565.3,374,570.2z"
		/>
	<path class="st0" d="M333.2,582.8c-5.1,0.1-9.2-3.9-9.4-9c-0.1-5.3,4.1-9.7,9.3-9.6c5,0.1,9.1,4.2,9.1,9.3S338.3,582.7,333.2,582.8
		z"/>
	<path class="st0" d="M571.5,347.8c5.1,0,9.2,4.1,9.3,9.1c0.1,5.1-3.9,9.2-9,9.3c-5.4,0.1-9.7-4.1-9.6-9.3
		C562.2,351.9,566.4,347.8,571.5,347.8z"/>
	<path class="st0" d="M533.6,473.9c-0.1,5-4.3,9.1-9.3,9.1c-5.3,0-9.5-4.3-9.3-9.5c0.2-5,4.4-8.9,9.5-8.8
		C529.5,464.8,533.6,469,533.6,473.9z"/>
	<path class="st0" d="M453.7,528.3c5-0.1,9.2,4,9.4,9c0.1,5.1-3.7,9.3-8.7,9.6c-5.2,0.2-9.6-3.9-9.6-9.2
		C444.7,532.6,448.6,528.5,453.7,528.3z"/>
	<path class="st0" d="M574.6,388.4c0,5-4.3,9-9.4,8.9c-4.9-0.1-8.9-4-9-8.8s4.4-9.3,9.1-9.3C570.2,379.1,574.6,383.5,574.6,388.4z"
		/>
	<path class="st0" d="M580.6,293.7c-0.1,4.7-4.3,8.9-9,9c-5,0.1-9.1-4.2-9.1-9.3c0.1-5,4-8.9,8.9-8.9
		C576.4,284.4,580.7,288.7,580.6,293.7z"/>
	<path class="st0" d="M395.6,572.5c-4.8,0-8.8-4.1-8.9-9c-0.1-5.2,4-9.3,9.1-9.2c4.8,0.1,8.9,4.2,9,9
		C404.9,568.2,400.6,572.6,395.6,572.5z"/>
	<path class="st0" d="M301.1,563.6c5.3-0.1,9.2,3.8,9.1,9.1c-0.1,4.9-4,8.9-8.8,9s-9.3-4.4-9.3-9.2
		C292.1,567.6,296.2,563.6,301.1,563.6z"/>
	<path class="st0" d="M110,433c0,4.9-4,8.9-8.9,8.8c-4.8-0.1-8.9-4.2-8.7-9c0.1-4.5,4.3-8.6,8.7-8.6C105.9,424.1,110,428.2,110,433z
		"/>
	<path class="st0" d="M434.5,98.3c-0.1,4.9-4.3,8.8-9.1,8.6c-4.9-0.2-8.7-4.4-8.5-9.2c0.2-4.6,4.3-8.5,8.8-8.4
		C430.4,89.4,434.6,93.6,434.5,98.3z"/>
	<path class="st0" d="M565.2,271c-4.9-0.1-8.7-4.2-8.4-9.2c0.2-4.8,4-8.2,8.9-8.1c5,0.1,8.7,4,8.4,9.1
		C573.8,267.5,569.9,271.1,565.2,271z"/>
	<path class="st0" d="M269.9,558.8c4.7,0.1,8.6,4,8.7,8.5c0.1,4.8-4.1,8.8-9,8.7s-8.8-4.2-8.6-9
		C261.3,562.4,265.3,558.7,269.9,558.8z"/>
	<path class="st0" d="M239.1,567c-5-0.1-8.6-4.1-8.4-9.1c0.2-4.8,4-8.3,8.9-8.1c4.8,0.1,8.5,3.8,8.5,8.6
		C248,563.3,244,567.1,239.1,567z"/>
	<path class="st0" d="M592.9,410.3c4.6-0.1,8.7,3.8,8.9,8.4c0.2,4.8-3.9,9-8.7,9.1c-4.7,0-8.5-3.8-8.5-8.6
		C584.5,414.4,588.3,410.4,592.9,410.3z"/>
	<path class="st0" d="M427.6,593c0.1,4.6-3.8,8.6-8.4,8.8c-4.8,0.2-9.1-3.9-9.1-8.7c0-4.5,4-8.4,8.7-8.5
		C423.5,584.6,427.5,588.4,427.6,593z"/>
	<path class="st0" d="M456.9,580.9c0.1,4.6-3.7,8.7-8.3,8.8c-4.8,0.2-8.9-3.8-8.9-8.8c0-4.9,3.6-8.4,8.5-8.4
		S456.8,576.1,456.9,580.9z"/>
	<path class="st0" d="M589.6,448.2c0.1,4.5-3.8,8.6-8.4,8.8c-4.9,0.2-9.1-3.8-9.1-8.6c0-4.6,4-8.5,8.7-8.6
		C585.5,439.8,589.5,443.6,589.6,448.2z"/>
	<path class="st0" d="M166.7,509.3c-0.1,4.6-4.2,8.6-8.8,8.5c-4.7-0.1-8.6-4-8.5-8.7c0-4.6,4-8.4,8.7-8.4
		C162.8,500.7,166.8,504.7,166.7,509.3z"/>
	<path class="st0" d="M503.7,143.9c4.8,0,8.4,3.9,8.4,8.7c-0.1,4.8-3.8,8.5-8.6,8.4c-4.7-0.1-8.5-4-8.5-8.7
		C495,147.7,499,143.9,503.7,143.9z"/>
	<path class="st0" d="M524.3,168.1c4.7,0.1,8.6,4.2,8.5,8.8c-0.2,4.8-4.1,8.4-8.9,8.2c-4.8-0.2-8.3-4-8.1-8.9
		C516,171.8,519.9,168,524.3,168.1z"/>
	<path class="st0" d="M547.1,493.8c4.6,0,8.6,4.1,8.5,8.6c-0.1,4.3-4,8.2-8.4,8.3c-4.7,0.1-8.6-3.7-8.6-8.4
		C538.7,497.5,542.4,493.8,547.1,493.8z"/>
	<path class="st0" d="M182.8,520.6c4.8-0.1,8.7,3.8,8.7,8.4c0,4.6-4.1,8.6-8.7,8.6c-4.3,0-8.3-4-8.5-8.3
		C174.2,524.7,178.1,520.7,182.8,520.6z"/>
	<path class="st0" d="M510.7,546.9c0.1,4.5-3.8,8.7-8.4,8.8c-4.4,0.1-8.3-3.5-8.5-8c-0.3-4.8,3.2-8.7,8-8.9
		C506.4,538.6,510.5,542.4,510.7,546.9z"/>
	<path class="st0" d="M223,449.8c0,6.5,0,12.9,0,19.4c0,1.5,0.2,2.9-2.1,3c-2.3,0-2.7-1.1-2.7-3c0.1-12.9,0-25.9,0-38.8
		c0-1.8,0.1-3.2,2.5-3.3c2.7,0,2.3,1.7,2.3,3.4C223,436.9,223,443.3,223,449.8z"/>
	<path class="st0" d="M109.5,217.5c0,4.5-3.9,8.3-8.3,8.3s-8.3-3.9-8.3-8.3c0-4.4,4-8.4,8.3-8.3
		C105.6,209.2,109.5,213.1,109.5,217.5z"/>
	<path class="st0" d="M218.2,105.2c0,4.7-3.6,8.1-8.2,8c-4.6-0.1-8.2-3.7-8.1-8.2c0.1-4.5,3.7-8.1,8.3-8.1S218.3,100.5,218.2,105.2z
		"/>
	<path class="st0" d="M488.1,131.3c-0.1,4.6-3.7,8-8.4,7.8c-4.4-0.2-7.8-3.6-7.8-8c0-4.6,3.7-8.2,8.2-8.2
		C484.6,123,488.1,126.7,488.1,131.3z"/>
	<path class="st0" d="M116.6,468.9c-4.6-0.1-8-3.8-7.8-8.5c0.1-4.4,3.6-7.7,8.1-7.7c4.6,0,8.2,3.6,8.1,8.2
		C124.9,465.4,121.2,469,116.6,468.9z"/>
	<path class="st0" d="M462,112.9c0,4.6-3.6,8.2-8.2,8.2c-4.4-0.1-7.9-3.5-8-7.9c-0.1-4.7,3.3-8.3,7.9-8.4
		C458.4,104.7,462,108.2,462,112.9z"/>
	<path class="st0" d="M333.2,69c4.5,0.1,8,3.9,7.8,8.5c-0.2,4.4-3.8,7.6-8.2,7.5c-4.5-0.1-8.1-3.9-7.8-8.5
		C325.2,72.2,328.9,68.9,333.2,69z"/>
	<path class="st0" d="M584.9,231.5c0-4.3,3.7-8,7.9-8.1c4.6-0.1,8.2,3.6,8.2,8.2c0,4.6-3.9,8.3-8.3,8.1
		C588.6,239.5,584.9,235.6,584.9,231.5z"/>
	<path class="st0" d="M231.4,601.2c-4.6,0-8.4-3.7-8.2-8.2c0.1-4.2,3.9-8,8-8c4.5,0,8.1,3.7,8.1,8.3
		C239.2,597.9,235.9,601.1,231.4,601.2z"/>
	<path class="st0" d="M81,364.8c4.5-0.1,8,3.2,8.1,7.7c0.1,4.4-3.2,8.1-7.5,8.4c-4.4,0.2-8.5-3.6-8.5-8
		C73,368.5,76.6,364.9,81,364.8z"/>
	<path class="st0" d="M85.1,341.2c0,4.5-3.4,7.9-7.9,7.9s-8-3.4-8.1-7.8s3.9-8.4,8.3-8.3C81.7,333.2,85.1,336.8,85.1,341.2z"/>
	<path class="st0" d="M364.8,72c4.5,0.1,8.2,4.1,8,8.5c-0.2,4.3-4.1,7.7-8.4,7.5c-4.4-0.2-7.7-3.7-7.6-8.2
		C356.9,75.4,360.5,71.9,364.8,72z"/>
	<path class="st0" d="M476.1,557.7c4.5,0,7.9,3.3,8,7.8c0.1,4.4-3.3,8-7.7,8.2c-4.3,0.2-8.5-3.8-8.4-8.2
		C468.1,561.2,471.7,557.7,476.1,557.7z"/>
	<path class="st0" d="M565.7,484.2c-4.6,0.1-8-3.1-8.1-7.6s3.1-8.1,7.5-8.4c4.4-0.2,8.5,3.6,8.5,8
		C573.7,480.5,570.1,484.1,565.7,484.2z"/>
	<path class="st0" d="M81.2,285.8c-4.1,0-8-3.9-8-8c0-4.3,3.7-7.9,8-7.9c4.4,0,7.8,3.5,7.9,7.9C89.1,282.2,85.5,285.7,81.2,285.8z"
		/>
	<path class="st0" d="M325.3,601.1c4.2,0.1,7.7,4,7.6,8.3c-0.2,4.4-3.8,7.7-8.2,7.6c-4.3-0.1-7.8-3.8-7.7-8.1
		C317.2,604.7,321.2,601,325.3,601.1z"/>
	<path class="st0" d="M607.1,349.1c4.2-0.1,7.8,3.5,7.9,7.9c0.1,4.4-3.4,7.9-7.7,8c-4.2,0.1-8-3.6-8-7.8
		C599.2,353,602.9,349.2,607.1,349.1z"/>
	<path class="st0" d="M403.7,87.1c0,4.3-3.7,7.9-8,7.8c-4.4-0.1-7.9-3.7-7.7-8.1c0.1-4,3.7-7.6,7.7-7.7
		C399.8,79.1,403.7,83,403.7,87.1z"/>
	<path class="st0" d="M309,77.9c0.1,4.4-3.3,8-7.6,8.1c-4.2,0.1-8.1-3.6-8.2-7.7s3.6-8,7.8-8.1C305.3,70,308.9,73.5,309,77.9z"/>
	<path class="st0" d="M616.9,325c0.1,4.4-3.3,7.9-7.7,8s-8-3.2-8.2-7.6c-0.2-4.1,3.5-8,7.7-8.1C613,317.2,616.8,320.8,616.9,325z"/>
	<path class="st0" d="M77,301.5c4.3-0.1,8,3.5,8,7.8c0,4.4-3.4,7.9-7.8,7.9s-8-3.5-8.1-7.7C69.1,305.2,72.7,301.6,77,301.5z"/>
	<path class="st0" d="M356.9,599.6c4.4,0,8,3.5,8,7.8s-3.5,7.8-7.9,7.8s-7.9-3.4-7.9-7.7C348.9,603,352.4,599.6,356.9,599.6z"/>
	<path class="st0" d="M97.1,403.6c0,4.4-3.5,7.7-8,7.6c-4.2-0.1-7.6-3.4-7.7-7.5c-0.1-4.3,3.5-7.9,7.9-7.9
		C93.6,395.8,97.1,399.2,97.1,403.6z"/>
	<path class="st0" d="M602,380.8c4.2,0.1,7.6,3.5,7.7,7.6c0,4.3-3.7,7.8-8.1,7.6c-4.2-0.2-7.6-3.8-7.4-7.9
		C594.3,384.1,597.8,380.7,602,380.8z"/>
	<path class="st0" d="M158.3,149c-4.2,0.1-7.8-3.2-8-7.3s3.1-7.7,7.3-7.9c4.4-0.2,8.2,3.2,8.2,7.5
		C165.8,145.4,162.4,148.9,158.3,149z"/>
	<path class="st0" d="M136.1,156.7c4.2,0.1,7.6,3.5,7.6,7.6c0,4-3.6,7.6-7.7,7.6c-4.3,0-8-3.7-7.8-8
		C128.3,159.9,131.8,156.6,136.1,156.7z"/>
	<path class="st0" d="M388.2,609.7c-4.1-0.1-7.5-3.5-7.5-7.7c0-4.3,3.3-7.7,7.4-7.8c4.3,0,8,3.7,7.8,8
		C395.8,606.4,392.3,609.8,388.2,609.7z"/>
	<path class="st0" d="M147.6,554.8c-4.1-0.2-7.5-4.1-7.3-8.1c0.3-4.2,3.8-7.3,8.1-7.1c4.2,0.2,7.6,3.9,7.3,7.9
		C155.4,551.8,151.7,555.1,147.6,554.8z"/>
	<path class="st0" d="M301,607.2c0.1,4.2-3.2,7.6-7.4,7.8c-4.3,0.1-7.7-2.9-7.9-7.2c-0.2-4.6,3-8,7.5-8
		C297.5,599.7,300.9,603,301,607.2z"/>
	<path class="st0" d="M614.9,293.3c0.1,4.2-3.1,7.6-7.4,7.8c-4.3,0.2-7.7-2.9-7.9-7.1c-0.2-4.5,3.1-8.1,7.5-8.1
		C611.4,285.9,614.8,289.1,614.9,293.3z"/>
	<path class="st0" d="M190.6,121.6c0,4.1-3.6,7.6-7.8,7.5c-4.2-0.1-7.7-3.7-7.5-7.8c0.2-3.9,3.6-7.2,7.6-7.2
		C187,114,190.6,117.5,190.6,121.6z"/>
	<path class="st0" d="M547,155.9c-4.2-0.1-7.5-3.6-7.4-7.8c0.1-4.3,3.4-7.5,7.7-7.4c4.2,0.1,7.6,3.5,7.5,7.7
		C554.7,152.5,551,156,547,155.9z"/>
	<path class="st0" d="M76.8,448.3c0,4.1-3.5,7.6-7.6,7.6s-7.5-3.4-7.4-7.6c0.1-4,3.2-7.2,7.2-7.3C73.1,440.8,76.8,444.3,76.8,448.3z
		"/>
	<path class="st0" d="M117,197.2c-4.2,0.1-7.8-3.3-7.8-7.4c0-4,3.7-7.7,7.7-7.7c3.9,0,7.2,3.3,7.4,7.3
		C124.4,193.8,121.3,197.1,117,197.2z"/>
	<path class="st0" d="M448.2,62c4.1,0,7.6,3.4,7.6,7.5c0,3.9-3.2,7.3-7.2,7.4c-4.2,0.2-7.7-3.1-7.8-7.3
		C440.7,65.6,444.1,62.1,448.2,62z"/>
	<path class="st0" d="M619.3,442c4-0.1,7.4,3.2,7.5,7.1c0.1,4.1-3.4,7.7-7.5,7.6c-3.9-0.1-7.3-3.6-7.3-7.4
		C612,445.4,615.4,442,619.3,442z"/>
	<path class="st0" d="M246.8,92.3c-0.1,4-3.9,7.7-7.9,7.5s-7.1-3.6-7.1-7.6c0-4.3,3.4-7.5,7.8-7.3C243.6,85,246.9,88.3,246.8,92.3z"
		/>
	<path class="st0" d="M533.3,526.1c0,3.9-3.4,7.3-7.3,7.4c-4.1,0.1-7.7-3.5-7.7-7.6c0-4,3.3-7.2,7.4-7.3
		C530.1,518.6,533.4,521.8,533.3,526.1z"/>
	<path class="st0" d="M277.2,83.4c-0.1,4-3.4,7.3-7.4,7.3s-7.7-3.9-7.6-7.8c0.2-4,3.5-7.1,7.5-7.1C274.1,75.8,277.3,79,277.2,83.4z"
		/>
	<path class="st0" d="M96.8,247.1c0,4-3.8,7.6-7.9,7.5c-3.9-0.1-7.1-3.5-7.1-7.5c0-4.3,3.3-7.4,7.7-7.3
		C93.6,239.8,96.9,243.2,96.8,247.1z"/>
	<path class="st0" d="M509.6,103.5c-0.1,4-3.9,7.5-7.9,7.3c-3.9-0.2-7-3.7-7-7.6c0.1-4.2,3.6-7.5,7.8-7.2
		C506.5,96.2,509.7,99.6,509.6,103.5z"/>
	<path class="st0" d="M572.9,174.1c0.1,4.1-3.4,7.7-7.5,7.7c-3.8,0-7.3-3.5-7.4-7.3c-0.1-4.1,3.4-7.6,7.5-7.6
		C569.5,166.9,572.8,170.1,572.9,174.1z"/>
	<path class="st0" d="M555.7,554c-0.1,4.1-3.8,7.5-7.9,7.3c-4.1-0.2-7.1-3.4-7-7.5c0.1-4.3,3.4-7.4,7.8-7.2
		C552.5,546.7,555.8,550.1,555.7,554z"/>
	<path class="st0" d="M209.2,581.3c-0.1,4-3.5,7.3-7.4,7.2s-7.3-3.5-7.3-7.4c0-4.2,3.5-7.5,7.8-7.3
		C206.4,573.9,209.3,577.1,209.2,581.3z"/>
	<path class="st0" d="M173.9,573c-4.1-0.1-7.1-3.2-7.1-7.4c0-4,3.3-7.4,7.2-7.5c4.1-0.1,7.6,3.7,7.5,7.8
		C181.2,570,177.9,573,173.9,573z"/>
	<path class="st0" d="M103,494.9c4,0,7.4,3.1,7.6,7c0.2,4-3.4,7.8-7.4,7.8c-3.9,0.1-7.3-3.2-7.4-7.1
		C95.6,498.3,98.7,494.9,103,494.9z"/>
	<path class="st0" d="M588.3,201.9c0.1,3.9-3.1,7.4-7.1,7.6c-3.9,0.2-7.4-3-7.6-7c-0.2-4.4,2.9-7.7,7.2-7.8
		C584.9,194.8,588.1,197.8,588.3,201.9z"/>
	<path class="st0" d="M441.8,615.1c3.9,0,7.2,3.3,7.2,7.3s-3.1,7.3-7.1,7.4c-4.2,0.1-7.7-3.3-7.6-7.5
		C434.5,618.5,438,615.1,441.8,615.1z"/>
	<path class="st0" d="M609.1,261.9c0.1,4.1-2.9,7.4-6.9,7.6c-3.9,0.2-7.3-2.9-7.6-6.9c-0.2-4.3,2.9-7.7,7.2-7.7
		C605.9,254.8,609,257.8,609.1,261.9z"/>
	<path class="st0" d="M262,594.7c4.1,0,7.1,3.1,7.1,7.3c0,4-3.1,7.3-7.1,7.4c-4.1,0.1-7.5-3.4-7.4-7.6
		C254.8,597.7,257.9,594.7,262,594.7z"/>
	<path class="st0" d="M589.2,497.9c4.1,0.1,7,3.3,6.9,7.5c-0.1,4-3.4,7.2-7.4,7.1c-3.9-0.1-7.1-3.5-7-7.5
		C581.9,500.9,585.2,497.8,589.2,497.9z"/>
	<path class="st0" d="M483,84.8c0.1,3.8-2.9,7-6.7,7.1c-3.7,0.1-7.1-3.1-7.2-6.8c-0.1-3.7,3.1-7,6.9-7.1
		C479.8,77.9,482.9,80.9,483,84.8z"/>
	<path class="st0" d="M84.7,483.1c-4,0-6.9-2.9-6.8-6.9c0.1-3.7,2.9-6.7,6.6-6.8c3.7-0.1,7.2,3.1,7.3,6.8
		C91.8,479.8,88.5,483.1,84.7,483.1z"/>
	<path class="st0" d="M223.2,621.1c3.7-0.1,7,3.1,6.9,6.9c-0.1,4.1-2.4,6.4-6.4,6.8c-3.7,0.4-7.1-2.8-7.3-6.5
		C216.2,624.7,219.5,621.2,223.2,621.1z"/>
	<path class="st0" d="M471.3,602.8c3.5,0.2,6.6,3.6,6.4,7c-0.2,3.6-3.3,6.4-7,6.3c-3.9-0.1-6.9-3.4-6.6-7.2
		C464.4,605.3,467.6,602.6,471.3,602.8z"/>
	<path class="st0" d="M605.5,484.8c-3.6-0.1-6.6-3.2-6.6-6.7c0-3.8,3.4-7,7-6.8s6.4,3.3,6.3,7C612.1,481.9,609,484.9,605.5,484.8z"
		/>
	<path class="st0" d="M49.6,357.1c0,3.5-3.3,6.7-6.8,6.7c-3.5-0.1-6.9-3.5-6.5-6.9c0.4-3.7,2.5-6.1,6.5-6.2
		C46.6,350.5,49.6,353.4,49.6,357.1z"/>
	<path class="st0" d="M363.5,43.4c-0.1,3.5-3.5,6.6-7,6.4c-3.5-0.2-6.8-3.6-6.3-7c0.5-3.7,2.7-6,6.7-6
		C360.6,36.7,363.7,39.8,363.5,43.4z"/>
	<path class="st0" d="M41.2,331.9c-3.7,0-6.7-3-6.6-6.7c0.1-3.7,3.1-6.6,6.8-6.4c3.9,0.2,6.1,2.6,6.4,6.3
		C48,328.6,44.7,331.9,41.2,331.9z"/>
	<path class="st0" d="M148.1,109.9c-3.6,0-6.7-3.1-6.7-6.7c0-3.5,3.3-6.5,6.9-6.4c4,0.2,6,2.7,6.4,6.4
		C155,106.7,151.6,109.9,148.1,109.9z"/>
	<path class="st0" d="M325.1,48c-3.7,0-6.6-2.9-6.5-6.7c0.1-3.9,2.3-6.1,6.2-6.4c3.6-0.3,6.8,2.8,6.9,6.4
		C331.8,44.7,328.6,48,325.1,48z"/>
	<path class="st0" d="M541.6,96.6c0.4-3.9,2.5-6.2,6.3-6.5c3.5-0.3,6.8,3.1,6.8,6.6c0,3.6-3.2,6.6-6.9,6.3
		C543.8,102.8,541.9,100.4,541.6,96.6z"/>
	<path class="st0" d="M102.9,154.9c-3.6-0.1-6.7-3.3-6.3-6.9c0.4-3.8,2.5-6.1,6.5-6.1c3.6-0.1,6.8,3.1,6.7,6.6
		C109.7,151.9,106.4,155,102.9,154.9z"/>
	<path class="st0" d="M130.8,525.7c0.1,3.5-3.1,7.1-6.5,6.8c-3.7-0.3-6.3-2.3-6.4-6.3c-0.1-3.9,2-6.2,5.9-6.6
		C127.6,519.2,130.7,522.1,130.8,525.7z"/>
	<path class="st0" d="M532.4,124.5c-0.1,3.9-3.3,6.9-7,6.5c-3.9-0.4-5.9-2.9-6.1-6.7c-0.2-3.5,3.5-6.7,7-6.3
		C530.1,118.5,532.1,120.9,532.4,124.5z"/>
	<path class="st0" d="M139,578c3.3,0.5,5.7,2.4,6,6.3c0.2,3.6-2.8,6.7-6.5,6.6c-3.9-0.2-6.1-2.4-6.4-6.2
		C131.8,581.3,135.2,578,139,578z"/>
	<path class="st0" d="M588.7,151.9c-3.7-0.6-6.1-2.6-6.1-6.6s2.5-6.1,6.3-6.3c3.6-0.2,6.9,3.2,6.5,6.7
		C595,149.5,592.7,151.5,588.7,151.9z"/>
	<path class="st0" d="M48.3,394.9c-3.7-0.5-6.2-2.3-6.4-6.2c-0.2-3.6,2.9-6.9,6.5-6.6c3.8,0.3,6.3,2.7,6.2,6.4
		C54.6,392.2,52.2,394.4,48.3,394.9z"/>
	<path class="st0" d="M286.8,43.2c0.5-3.7,2.3-6.1,6.2-6.3c3.7-0.2,6.9,2.9,6.6,6.4c-0.3,3.8-2.7,6.2-6.4,6.2
		C289.5,49.5,287.3,47.1,286.8,43.2z"/>
	<path class="st0" d="M388.1,42.1c3.8,0.5,6.2,2.5,6.6,6.3c0.3,3.4-3.1,6.8-6.6,6.5c-3.9-0.3-6.1-2.6-6.1-6.4
		C381.9,44.6,384.4,42.6,388.1,42.1z"/>
	<path class="st0" d="M576,531.4c-0.3,3.2-2.4,5.4-6.3,5.4c-4,0-6-2.5-6.3-6.2c-0.3-3.5,3.1-6.7,6.6-6.5
		C573.4,524.2,576.1,527.2,576,531.4z"/>
	<path class="st0" d="M524.2,581.3c-3.4,0-6.4-3-6.4-6.4c0-3.5,2.9-6.4,6.4-6.3c3.9,0.2,6.2,2.4,6.4,6.3
		C530.8,578.3,527.6,581.3,524.2,581.3z"/>
	<path class="st0" d="M43,299.9c-3.9-0.4-6.2-2.5-6.4-6.4c-0.2-3.5,3.1-6.8,6.6-6.4c3.7,0.4,6.1,2.5,6,6.5S46.6,299.4,43,299.9z"/>
	<path class="st0" d="M638.4,394.8c-3.5,0.1-6.4-2.7-6.4-6.2c-0.1-3.3,3-6.6,6.3-6.4c3.6,0.2,5.8,2.4,6.2,6
		C644.9,391.4,641.7,394.7,638.4,394.8z"/>
	<path class="st0" d="M642.8,350.7c4,0.3,6.2,2.5,6.4,6.3c0.2,3.4-2.9,6.6-6.3,6.4c-3.8-0.2-6.3-2.3-6.3-6.3
		C636.7,353.1,639,351.1,642.8,350.7z"/>
	<path class="st0" d="M90.9,174.3c0,3.3-3.1,6.5-6.4,6.2c-3.6-0.3-5.8-2.4-6.2-6c-0.3-3.3,2.8-6.4,6.2-6.5
		C88,167.9,90.9,170.8,90.9,174.3z"/>
	<path class="st0" d="M208.1,69.6c-0.1,3.5-3.1,6.5-6.4,6.1c-3.8-0.4-6.1-2.6-5.9-6.6c0.2-3.8,2.6-5.7,6.1-5.9
		C205.2,63,208.1,66.2,208.1,69.6z"/>
	<path class="st0" d="M649.1,293.4c0.1,3.5-2.7,6.4-6.1,6.4c-3.4,0-6.3-3-6.2-6.5c0.2-3.7,2.4-5.8,5.9-6.1
		C646.1,286.9,649,289.9,649.1,293.4z"/>
	<path class="st0" d="M279.1,642.2c-0.1-3.4,2.9-6.3,6.3-6.3c3.3,0,6.6,3.2,6.3,6.4c-0.4,3.6-2.5,5.7-6.1,6.1
		C282.2,648.7,279.1,645.6,279.1,642.2z"/>
	<path class="st0" d="M380.8,633.6c3.5,0.1,6.4,3.1,6,6.5c-0.4,3.5-2.5,5.8-6.2,5.8c-4,0-6-2.5-6.3-6.3
		C374,636.3,377.2,633.5,380.8,633.6z"/>
	<path class="st0" d="M411.3,626.6c3.6-0.1,6.6,2.6,6.5,6c-0.2,3.9-2.4,6.2-6.2,6.3c-3.7,0.1-5.8-2.3-6.2-5.8
		C404.9,629.6,407.8,626.7,411.3,626.6z"/>
	<path class="st0" d="M69.4,208.2c-3.6,0.1-6.6-2.6-6.4-6c0.2-3.9,2.4-6.2,6.2-6.2c3.7,0,5.8,2.3,6.2,5.8
		C75.9,205.2,73,208.1,69.4,208.2z"/>
	<path class="st0" d="M70.4,511.9c3.3,0,6.6,3.2,6.2,6.4c-0.4,3.5-2.4,5.7-6.2,5.8c-3.5,0-6.4-2.9-6.3-6.3
		C64.3,514.7,67.3,511.9,70.4,511.9z"/>
	<path class="st0" d="M193.7,610.1c3.5,0.7,5.9,2.4,6.1,6.2c0.2,3.3-3.1,6.6-6.4,6.2c-3.6-0.4-5.8-2.5-5.7-6.3
		C187.8,612.3,190.3,610.7,193.7,610.1z"/>
	<path class="st0" d="M255.8,48.6c0.3-3.9,2.4-6.1,6-6.1c3.5,0,5.9,2.1,6.1,5.9c0.2,3.4-2.8,6.6-6.2,6.3
		C258.1,54.4,256.1,52.2,255.8,48.6z"/>
	<path class="st0" d="M180.1,85.7c-0.3,3-2.2,5.1-5.9,5.3c-3.6,0.2-6.5-2.6-6.3-6.2c0.2-3.7,2.2-5.8,5.9-6.1
		C177.4,78.6,180.1,81.4,180.1,85.7z"/>
	<path class="st0" d="M599.6,172.5c0.2-3.8,2.4-6,5.9-6.1c3.5,0,5.9,2.1,6.2,5.8c0.3,3.3-3,6.7-6.2,6.4
		C601.9,178.3,599.7,176.3,599.6,172.5z"/>
	<path class="st0" d="M619.5,207.2c-3.8,0-5.8-2.2-6.2-5.8c-0.4-3.2,3-6.6,6.3-6.3c3.7,0.3,5.7,2.6,6,6.2
		C625.8,204.5,622.8,207.2,619.5,207.2z"/>
	<path class="st0" d="M48.4,255.9c3.5,0.6,5.8,2.4,5.8,6.2c-0.1,3.7-2.1,5.8-5.9,5.9c-3.5,0.1-6.5-2.9-6.2-6.3
		C42.5,258.2,44.8,256.3,48.4,255.9z"/>
	<path class="st0" d="M63.1,419.1c-0.5,3.7-2.4,6-6.2,5.9c-3.7-0.1-5.9-2.3-5.9-6c0.1-3.7,2.4-5.9,6.1-5.8
		C60.8,413.2,62.8,415.4,63.1,419.1z"/>
	<path class="st0" d="M254.2,630.7c3.6,0.5,5.8,2.4,5.7,6.1c-0.1,3.7-2.5,5.9-6.1,5.8c-3.6-0.1-5.8-2.4-5.8-6.1
		C248.1,632.8,250.5,630.9,254.2,630.7z"/>
	<path class="st0" d="M441.8,34.1c-3.8-0.6-6.1-2.4-6-6.2c0.1-3.7,2.3-5.9,6-5.8s5.9,2.3,5.9,6C447.7,31.9,445.2,33.6,441.8,34.1z"
		/>
	<path class="st0" d="M504.5,593.7c-0.6,3.7-2.7,6-6.3,5.9c-3.6-0.1-6-2.5-5.8-6.2c0.2-3.5,2.3-5.8,6.2-5.7
		C502.5,587.8,504,590.2,504.5,593.7z"/>
	<path class="st0" d="M424.9,57.6c-0.5,3.5-2.4,5.8-6.2,5.7c-3.7-0.1-5.9-2.3-5.9-6c0.1-3.7,2.4-5.9,6.1-5.8
		C422.5,51.4,424.6,53.7,424.9,57.6z"/>
	<path class="st0" d="M644.1,261.4c-0.2,4.1-2.1,6.4-5.8,6.5c-3.5,0.1-5.8-2.1-6-5.4c-0.2-3.6,1.8-6.2,5.6-6.4
		C641.5,255.8,643.5,258.1,644.1,261.4z"/>
	<path class="st0" d="M636.1,419.4c-0.3,3.7-2.3,5.8-6.1,5.7c-3.6-0.1-5.5-2.2-5.5-5.7s2-5.6,5.5-5.7
		C633.9,413.6,635.9,415.7,636.1,419.4z"/>
	<path class="st0" d="M57,237.1c-3.3-0.3-5.3-2.1-5.4-5.4c-0.1-3.5,2-5.7,5.6-5.6c3.3,0,5.4,2.2,5.4,5.3
		C62.6,234.7,60.6,236.8,57,237.1z"/>
	<path class="st0" d="M124.4,130.1c-3.3-0.3-5.4-2-5.5-5.3c-0.1-3.6,2-5.7,5.5-5.7c3.3-0.1,5.4,2,5.5,5.2
		C129.9,127.8,127.8,129.7,124.4,130.1z"/>
	<path class="st0" d="M225.8,57.9c0.2-3.7,1.9-5.8,5.2-6c3.5-0.2,5.7,1.8,5.9,5.3c0.1,3.2-1.8,5.4-5.1,5.6
		C228.1,63.1,226.3,60.9,225.8,57.9z"/>
	<path class="st0" d="M70.4,127c3.2,0.4,5.4,2,5.5,5.3c0.1,3.5-2.1,5.6-5.6,5.6c-3.2-0.1-5.2-2.1-5.2-5.4
		C65.1,129.1,67.2,127.4,70.4,127z"/>
	<path class="st0" d="M119.1,564.8c-0.2,3.1-1.9,5.1-5.3,5.2c-3.4,0.1-5.5-1.9-5.6-5.1c-0.2-3.5,2.1-5.8,5.5-5.7
		C116.9,559.3,119,561.2,119.1,564.8z"/>
	<path class="st0" d="M37.2,469.2c-3.2-0.3-5.3-1.9-5.3-5.3c-0.1-3.4,2-5.4,5.2-5.5c3.5-0.1,5.7,2,5.7,5.5
		C42.7,467.2,40.6,469,37.2,469.2z"/>
	<path class="st0" d="M630.4,225.8c3.2,0.3,5.3,2.1,5.3,5.4c0,3.3-2.2,5.4-5.4,5.4s-5.4-2.1-5.4-5.4
		C624.9,227.8,627,226.1,630.4,225.8z"/>
	<path class="st0" d="M524.4,70.1c3.2,0.7,5.4,2.4,5.2,5.7c-0.2,3.1-2.2,5.3-5.6,5.1c-3.2-0.2-5.2-2.2-5.1-5.5
		C519,72,521.4,70.6,524.4,70.1z"/>
	<path class="st0" d="M570,114.7c3.4,0.3,5.2,2.1,5.1,5.5c-0.1,3.4-2.2,5.3-5.3,5.3c-3.4,0-5.6-2.3-5.4-5.8
		C564.5,116.5,566.7,114.7,570,114.7z"/>
	<path class="st0" d="M470.8,35.7c3.2,0.2,5.2,1.8,5.4,5.2c0.1,3.4-1.9,5.4-5,5.6c-3.5,0.2-5.7-2-5.7-5.4
		C465.4,37.9,467.4,36,470.8,35.7z"/>
	<path class="st0" d="M138.8,71.3c-3.4-0.2-5.5-2-5.6-5.3c0-3.3,2-5.3,5.3-5.3c3.4-0.1,5.4,1.8,5.4,5.2
		C143.9,69.2,142,71,138.8,71.3z"/>
	<path class="st0" d="M96.2,542.6c-0.4,3.3-2.2,5.3-5.6,5.1c-3-0.1-5-2.1-5-5.2c0-3.3,2-5.4,5.3-5.4C94.2,537.2,96,539.3,96.2,542.6
		z"/>
	<path class="st0" d="M170.8,601.8c-0.7,3.2-2.2,5.4-5.7,5.2c-3.1-0.2-5-2.1-5-5.2c0.1-3.4,2.2-5.2,5.5-5.1
		C168.8,596.8,170.3,598.9,170.8,601.8z"/>
	<path class="st0" d="M14.2,372.6c-0.2,3.2-1.7,5.2-4.9,5.2c-3.1,0.1-5.1-1.8-5.2-4.9s1.7-5,4.9-5.1
		C12.2,367.8,13.8,369.6,14.2,372.6z"/>
	<path class="st0" d="M348.9,1.8C352,2,354,3.6,354,6.7s-1.8,5.1-4.9,5.1s-5-1.8-5.1-4.9S345.7,2.1,348.9,1.8z"/>
	<path class="st0" d="M14.1,277.4c-0.2,3.1-1.9,5.2-4.9,5.2c-2.8,0-4.8-1.8-4.9-4.7c-0.1-3.1,1.8-5,4.9-5.1
		C12.2,272.8,13.7,274.6,14.1,277.4z"/>
	<path class="st0" d="M198.8,34.1c-0.5,2.8-2,4.8-4.9,4.9c-3.1,0.1-5-1.6-5-4.9c0-2.9,1.8-4.8,4.6-4.9
		C196.6,29.1,198.2,31.3,198.8,34.1z"/>
	<path class="st0" d="M411.4,22.9c-2.7-0.6-4.7-1.9-4.6-5c0.1-3.2,1.8-5,5-4.9c3,0.1,4.7,2.1,4.7,4.8
		C416.5,20.9,414.4,22.5,411.4,22.9z"/>
	<path class="st0" d="M37.3,181.8c2.9,0.3,4.7,1.7,4.8,4.7c0.1,3.2-1.8,5.2-4.8,5.1c-3,0-5.1-2.1-4.9-5.2
		C32.5,183.7,34.4,182.1,37.3,181.8z"/>
	<path class="st0" d="M380.4,5.9c3.2,0.2,5.1,2,5.1,5c0,2.8-1.9,4.7-4.7,4.8c-3.1,0.1-4.9-1.8-4.9-5C375.8,7.7,377.6,6.3,380.4,5.9z
		"/>
	<path class="st0" d="M20.5,404c-0.3,2.7-1.6,4.8-4.5,5c-3.2,0.2-5-1.5-5.2-4.7c-0.2-2.9,1.6-4.8,4.4-5
		C18.2,398.9,20,400.9,20.5,404z"/>
	<path class="st0" d="M503.1,57.3c-0.2,2.8-2,4.6-4.8,4.5c-3-0.1-4.9-2-4.6-5.2c0.2-2.9,2.2-4.5,5-4.3
		C501.4,52.4,503.1,54.2,503.1,57.3z"/>
	<path class="st0" d="M57.2,491.7c-0.1,3.1-1.9,4.8-4.7,4.8s-4.7-1.7-4.7-4.7c0-3.1,1.8-4.8,4.6-4.8C55.3,487,57.1,488.7,57.2,491.7
		z"/>
	<path class="st0" d="M290.2,8.3c-0.2,3-1.6,4.7-4.6,4.9c-3.2,0.2-5.1-1.7-5.1-4.7c-0.1-2.8,1.7-4.8,4.5-4.9
		C288.1,3.5,289.9,5.2,290.2,8.3z"/>
	<path class="st0" d="M20.1,246.2c-0.1,2.7-1.4,4.5-4.1,4.8c-2.9,0.3-4.8-1.3-5-4.2c-0.2-3,1.6-4.7,4.5-4.7
		C18.2,241.9,19.7,243.6,20.1,246.2z"/>
	<path class="st0" d="M249.3,14c0.4-2.8,2-4.7,4.8-4.6c2.6,0.1,4.4,1.8,4.4,4.5c0,2.9-1.9,4.7-4.8,4.6
		C251.2,18.4,249.7,16.6,249.3,14z"/>
	<path class="st0" d="M29.5,434.5c-0.6,2.9-2.2,4.6-5.1,4.4c-2.7-0.2-4.3-2.1-4.1-4.7c0.2-2.8,2.1-4.5,5-4.3
		C28,430.2,29.3,432.1,29.5,434.5z"/>
	<path class="st0" d="M91,112.6c-2.7-0.4-4.5-1.9-4.5-4.5s1.6-4.3,4.4-4.3s4.3,1.6,4.3,4.3C95.2,110.9,93.5,112.2,91,112.6z"/>
	<path class="st0" d="M114.1,90.2c-3,0-4.6-1.6-4.8-4.2c-0.2-2.7,1.7-4.4,4.3-4.5c2.6-0.1,4.4,1.4,4.5,4.2
		C118.2,88.4,116.5,89.8,114.1,90.2z"/>
	<path class="st0" d="M52.2,162.9c-2.4-0.5-4-1.9-3.8-4.4c0.2-2.4,1.7-3.9,4.4-3.8c2.6,0.2,4,1.8,3.9,4.2
		C56.4,161.4,54.8,162.8,52.2,162.9z"/>
	<path class="st0" d="M169.5,48.5c-0.3,2.4-1.5,4.2-3.9,4.3c-2.5,0.1-4.1-1.5-4.3-3.9c-0.2-2.5,1.4-4,3.9-4.2
		C167.7,44.6,169,46.1,169.5,48.5z"/>
	<path class="st0" d="M223.2,26.8c-2.4-0.6-4.2-2-4-4.4c0.1-2.4,1.8-3.9,4.3-3.8s4,1.7,3.9,4.2C227.2,25.2,225.5,26.4,223.2,26.8z"
		/>
	<path class="st0" d="M29.1,216c-0.5,2.7-1.9,4.3-4.5,4c-2.5-0.2-3.9-1.9-3.7-4.4c0.2-2.3,1.8-3.6,4.1-3.5
		C27.6,212.1,28.7,213.8,29.1,216z"/>
	<path class="st0" d="M272.5,263.2c-1.3-2.4-1.5-3.2,1.3-4.6c9.3-4.7,13.7-13.9,11.9-24.1c-1.6-9.4-8.9-16.2-19.1-17.7
		c-7.1-1.1-14.3-0.3-21.4-0.6c-2.6-0.1-2.9,1.2-2.9,3.4c0.1,25.3,0.1,50.6,0,75.9c0,2.6,0.7,3.4,3.4,3.4s2.9-1.3,2.9-3.4
		c-0.1-7.5,0-15,0-22.5c0-12,0-11.9,12.1-12.1c3.4,0,5,1.1,6.4,4c4.9,9.8,10.4,19.3,15.2,29.2c1.9,4,4.3,5.5,9.3,4.3
		C285.2,286.5,279,274.8,272.5,263.2z M266.9,255.1c-5.3,1.2-10.6,0.5-15.9,0.7c-2.5,0.1-2.5-1.5-2.5-3.2c0-4.7,0-9.3,0-14
		c0-4.5,0-9,0-13.5c0-1.5-0.3-3.2,2.1-3.1c5.8,0.3,11.6-0.8,17.4,0.9c7.5,2.2,12,8.6,11.7,16.5C279.4,247.6,274.7,253.3,266.9,255.1
		z"/>
	<path class="st0" d="M454,427.7c-5.5-1.1-11-0.3-16.4-0.7c-3.3-0.3-3.9,1.1-3.8,4c0.2,6.2,0.1,12.3,0.1,18.5c0,6.5,0.1,13,0,19.5
		c0,2,0.2,3.1,2.6,3c5.2-0.2,10.4,0.2,15.5-0.3c11.7-1,19.9-9.8,20.4-21.4C472.9,439.2,465.6,430.1,454,427.7z M449.7,467.8
		c-11,0.9-11,0.9-11-10.1c0-2.7,0-5.3,0-8c0-5,0.1-10-0.1-14.9c-0.1-2.7,0.9-3.5,3.4-3.3c2.6,0.2,5.3,0,8,0.2
		c10.5,0.9,17.5,8.2,17.4,18.1C467.2,459.7,460.1,466.9,449.7,467.8z"/>
	<path class="st0" d="M252.6,451.3c0.9-0.4,1.5-0.6,2.2-0.9c6.4-2.3,9.4-6.3,9-12.1c-0.4-6.1-4-9.9-11.1-10.8
		c-4.9-0.6-10-0.3-15-0.4c-2.3-0.1-2.8,0.9-2.8,3c0.1,13,0,26,0,39c0,1.5-0.4,3,2,3.1c2.3,0,2.8-0.9,2.8-3c-0.1-4.3-0.2-8.7,0-13
		c0.1-1.7-1.5-4.5,1.7-4.9c2.6-0.3,5.5-0.9,7.3,2.5c2.6,5,5.8,9.7,8.5,14.7c1.7,3.2,3.8,4.7,7.5,2.9
		C260.7,464.7,256.7,458.1,252.6,451.3z M245.3,447c-5.6,0-5.6,0-5.6-8c0-7.4,0-7.4,5.7-7.4c9.2,0,13.3,2.4,13.3,7.8
		C258.7,444.6,254.5,447,245.3,447z"/>
	<path class="st0" d="M360.9,429.9c-0.7-1.6-1.4-2.8-3.5-2.8c-2.2,0-2.8,1.4-3.4,3c-5.7,13.3-11.4,26.5-17.1,39.8
		c-0.6,0.7-0.6,1.4,0,2.1c2.5,0.6,4.8,0.6,5.4-2.6c1.5-7.9,6.4-10.3,13.9-8.9c1.3,0.2,2.7,0.2,4,0c6.7-1.3,10.7,1.2,12,8
		c0.7,3.6,3.1,4.7,6.8,3.2C372.9,457.5,366.9,443.7,360.9,429.9z M347.9,455.9c3.1-7.5,6.1-14.8,9.5-23c3.3,8.1,6.3,15.3,9.5,23
		C360.3,455.9,354.4,455.9,347.9,455.9z"/>
</g>
</svg>
