<?xml version="1.0" encoding="utf-8"?>
<!-- Generator: Adobe Illustrator 23.0.6, SVG Export Plug-In . SVG Version: 6.00 Build 0)  -->
<svg version="1.1" id="Layer_1" xmlns="http://www.w3.org/2000/svg" xmlns:xlink="http://www.w3.org/1999/xlink" x="0px" y="0px"
	 viewBox="0 0 522.5 58.9" style="enable-background:new 0 0 522.5 58.9;" xml:space="preserve">
<style type="text/css">
	.st0{fill:#FFFFFF;}
</style>
<title>kbPro_logo_sideways</title>
<path class="st0" d="M101.2,32.8c0,1.8-1.5,3.3-3.3,3.3s-3.3-1.5-3.3-3.3s1.5-3.3,3.3-3.3l0,0C99.8,29.5,101.3,31,101.2,32.8z"/>
<path class="st0" d="M10.2,29.4l30,28.8h-5.7l-30-28.8v28.8H0V0.8h4.5v28.6L32,0.8h5.6L10.2,29.4z"/>
<path class="st0" d="M171.4,0.8c15.5,0,19.1,8.2,19.1,14.8c0,5.7-2.6,9.7-8.2,12.8c8.8,1.9,13.3,6.9,13.3,14.5
	c0,9.4-7.6,15.2-19.3,15.2h-16.9V0.8H171.4z M163.9,27.4h6.2c11.6,0,15.6-4.6,15.6-11.5c0-8.8-6.9-11.4-15.8-11.4h-6V27.4z
	 M163.9,54.5h11.9c11.9,0,15-6.4,15-11.6c0-5.6-3-11.8-16.9-11.8H164L163.9,54.5z"/>
<path class="st0" d="M342.8,0.8c13.5,0,18.8,6.9,18.8,15.1c0,7.4-4.3,15.4-19.2,15.4h-10.9v26.9H327V0.8H342.8z M331.4,27.6h10.7
	c10.7,0,14.6-5.1,14.6-11.6c0-6.2-4-11.5-14.1-11.5h-11.2V27.6z"/>
<path class="st0" d="M411.2,0.8c14,0,19,7.2,19,14.8c0,6.6-3.6,11.3-11,14c2.7,1.4,5,4.7,7.7,8.8l13,19.9h-5.2l-10-15.7
	c-6.9-10.9-9.1-11.8-16-11.8H401v27.5h-4.5V0.8H411.2z M400.9,26.9h9.5c10.1,0,15-4.4,15-11.3c0-6.5-4.6-11.2-15.1-11.2H401
	L400.9,26.9z"/>
<path class="st0" d="M492.1,58.9c-17,0-30.3-13-30.3-29.5S475,0,492.1,0s30.5,13,30.5,29.5S509.1,58.9,492.1,58.9z M492.2,4.1
	c-14.4,0-25.7,11-25.7,25.3s11.3,25.3,25.7,25.3C506,55,517.4,44,517.7,30.2c0-0.3,0-0.6,0-0.8c0.2-13.8-10.9-25.1-24.7-25.3
	C492.8,4.1,492.5,4.1,492.2,4.1z"/>
<rect x="256.8" y="0.8" class="st0" width="3.7" height="58.2"/>
</svg>
