<?xml version="1.0" encoding="utf-8"?>
<!-- Generator: Adobe Illustrator 23.1.1, SVG Export Plug-In . SVG Version: 6.00 Build 0)  -->
<svg version="1.1" id="Layer_1" xmlns="http://www.w3.org/2000/svg" xmlns:xlink="http://www.w3.org/1999/xlink" x="0px" y="0px"
	 viewBox="0 0 736 188" style="enable-background:new 0 0 736 188;" xml:space="preserve">
<style type="text/css">
	.st0{fill:#000111;}
</style>
<g>
	<g>
		<polygon class="st0" points="227.7,146.9 167.2,86.5 121.7,86.5 121.7,127.9 187.2,127.9 206.2,146.9 102.9,146.9 102.9,7.1 
			206.2,7.1 187.2,26.1 121.7,26.1 121.7,67.7 167,67.7 227.7,7.1 254.9,7.1 184.9,77 254.9,146.9 		"/>
		<g>
			<polygon class="st0" points="95,141.6 95,47.6 65.1,47.6 			"/>
			<polygon class="st0" points="95,41.5 95,7.1 82.4,7.1 65.8,41.5 			"/>
			<polygon class="st0" points="7.5,47.6 90.1,146.5 58.7,47.6 			"/>
			<path class="st0" d="M5,44.6L5,44.6L5,44.6z"/>
			<polygon class="st0" points="75.6,7.1 36.6,7.1 7.6,41.5 59,41.5 			"/>
		</g>
	</g>
	<g>
		<path class="st0" d="M421.4,169.4h10.8v1.2h-10.8v6.9h11.7v1.3H420v-17.6h12.7v1.3h-11.4L421.4,169.4L421.4,169.4z M441.1,171.6
			l3.9-5.1h1.6v0.1l-4.7,5.9l5,6.4v0.1h-1.5l-4.3-5.6l-4.3,5.6h-1.5v-0.1l5-6.4l-4.7-5.9v-0.1h1.6L441.1,171.6z M460.7,184.1v-8
			c-1.1,2.1-3.2,3.1-5.4,3.1c-3.7,0-6.6-2.3-6.6-6.4c0-4,2.8-6.3,6.3-6.4c2.5,0,4.6,1.2,5.6,3.1v-2.9h1.3v17.6h-1.2L460.7,184.1
			L460.7,184.1z M460.5,172.7c0-3-2.2-5.2-5.3-5.2c-3,0-5.3,1.7-5.3,5.2s2.4,5.3,5.3,5.3C458.3,177.9,460.5,175.8,460.5,172.7z
			 M475.8,178.9v-2.2c-1,1.7-2.8,2.4-4.6,2.4c-3.5,0-5.9-2-5.9-5.5v-7.2h1.3v7.1c0,2.8,1.8,4.3,4.6,4.3c2.7,0,4.6-2,4.6-4.5v-6.9
			h1.3v12.4L475.8,178.9L475.8,178.9z M482.2,162.4c0,1.3-2.1,1.3-2.1,0S482.2,161.1,482.2,162.4z M480.5,166.4v12.5h1.3v-12.5
			H480.5z M494.4,168.7c-1.3-1.1-2.6-1.3-4.1-1.3c-2,0-4,0.7-3.9,2.3c0.1,1.7,2.3,2,4,2.3c2.3,0.4,5.5,0.8,5.4,3.6
			c-0.1,2.7-3.1,3.5-5.4,3.5s-4.6-0.8-5.7-2.5l0.9-0.8c1.1,1.5,3,2.1,4.8,2.1c1.6,0,4-0.4,4.1-2.4c0.1-1.8-2.1-2.1-4.2-2.5
			c-2.5-0.4-5-0.9-5.1-3.3c0-2.4,2.5-3.5,5.2-3.5c1.9,0,3.6,0.5,4.9,1.7L494.4,168.7z M500.3,162.4c0,1.3-2.1,1.3-2.1,0
			S500.3,161.1,500.3,162.4z M498.6,166.4v12.5h1.3v-12.5H498.6z M506.6,162.7v3.7h4.4v1h-4.4v7.6c0,1.7,0.4,2.9,2.4,2.9
			c0.6,0,1.3-0.2,2-0.5l0.4,1c-0.8,0.4-1.6,0.6-2.5,0.6c-2.8,0-3.7-1.6-3.7-4v-7.6h-2.8v-1h2.8v-3.6L506.6,162.7z M513.3,172.7
			c0-3.7,3-6.4,6.6-6.4c3.7,0,6.9,2.1,6.4,7h-11.7c0.3,2.9,2.6,4.6,5.3,4.6c1.7,0,3.7-0.7,4.7-1.9l0.9,0.7c-1.3,1.6-3.5,2.4-5.6,2.4
			C516.2,179.1,513.3,176.6,513.3,172.7z M525.2,172.2c0-3.1-2.1-4.8-5.3-4.8c-2.7,0-5,1.7-5.3,4.8H525.2z M550.2,178.9h-1.8
			l-9.7-8.7v8.6h-1.4v-17.6h1.4v8l9-8h1.7v0.1l-9.3,8.3l10.1,9.1V178.9z M553.5,162.4c0,1.3-2.1,1.3-2.1,0S553.5,161.1,553.5,162.4z
			 M551.8,166.4v12.5h1.3v-12.5H551.8z M559.8,162.7v3.7h4.4v1h-4.4v7.6c0,1.7,0.4,2.9,2.4,2.9c0.6,0,1.3-0.2,2-0.5l0.4,1
			c-0.8,0.4-1.6,0.6-2.5,0.6c-2.8,0-3.7-1.6-3.7-4v-7.6h-2.8v-1h2.8v-3.6L559.8,162.7z M577.9,177.2c-1.3,1.3-3,1.9-4.8,1.9
			c-3.7,0-6.7-2.4-6.7-6.3c0-3.9,2.9-6.3,6.7-6.3c1.7,0,3.4,0.6,4.8,1.9L577,169c-1.1-1-2.5-1.5-3.9-1.5c-3,0-5.4,1.8-5.4,5.2
			c0,3.3,2.5,5.2,5.4,5.2c1.4,0,2.8-0.5,3.9-1.5L577.9,177.2z M581.7,161.3v7.5c1.1-1.8,2.9-2.5,4.7-2.5c3.6,0,5.5,2.2,5.5,5.5v7.1
			h-1.3v-7.1c0-2.6-1.3-4.3-4.2-4.3c-2.7,0-4.6,2-4.6,4.6v6.8h-1.3v-17.6H581.7z M594.5,172.7c0-3.7,3-6.4,6.6-6.4
			c3.7,0,6.9,2.1,6.4,7h-11.7c0.3,2.9,2.6,4.6,5.3,4.6c1.7,0,3.7-0.7,4.7-1.9l0.9,0.7c-1.3,1.6-3.5,2.4-5.6,2.4
			C597.5,179.1,594.5,176.6,594.5,172.7z M606.5,172.2c0-3.1-2.1-4.8-5.3-4.8c-2.7,0-5,1.7-5.3,4.8H606.5z M612.2,166.5v2.2
			c1-1.7,2.8-2.4,4.6-2.4c3.5,0,5.9,2,5.9,5.5v7.2h-1.3v-7.1c0-2.8-1.8-4.3-4.6-4.3c-2.7,0-4.6,2-4.6,4.5v6.9H611v-12.4L612.2,166.5
			L612.2,166.5z M649.1,169.9c0.1,4.5-2.9,9-9.4,9c-2.1,0-4.2,0-6.3,0v-17.6c2.1,0,4.2,0,6.3,0C646,161.3,649,165.6,649.1,169.9z
			 M634.9,162.6v15h4.8c5.5,0,8-3.9,7.9-7.7c-0.1-3.7-2.6-7.3-7.9-7.3H634.9z M651.9,172.7c0-3.7,3-6.4,6.6-6.4c3.7,0,6.9,2.1,6.4,7
			h-11.7c0.3,2.9,2.6,4.6,5.3,4.6c1.7,0,3.7-0.7,4.7-1.9l0.9,0.7c-1.3,1.6-3.5,2.4-5.6,2.4C654.9,179.1,651.9,176.6,651.9,172.7z
			 M663.8,172.2c0-3.1-2.1-4.8-5.3-4.8c-2.7,0-5,1.7-5.3,4.8H663.8z M677.3,168.7c-1.3-1.1-2.6-1.3-4.1-1.3c-2,0-4,0.7-3.9,2.3
			c0.1,1.7,2.3,2,4,2.3c2.3,0.4,5.5,0.8,5.4,3.6c-0.1,2.7-3.1,3.5-5.4,3.5c-2.3,0-4.6-0.8-5.7-2.5l0.9-0.8c1.1,1.5,3,2.1,4.8,2.1
			c1.6,0,4-0.4,4.1-2.4c0.1-1.8-2.1-2.1-4.2-2.5c-2.5-0.4-5-0.9-5.1-3.3c0-2.4,2.5-3.5,5.2-3.5c1.9,0,3.6,0.5,4.9,1.7L677.3,168.7z
			 M683.2,162.4c0,1.3-2.1,1.3-2.1,0S683.2,161.1,683.2,162.4z M681.5,166.4v12.5h1.3v-12.5H681.5z M697,166l0.8,0.7l-1.3,1.4
			c0.9,1,1.6,2.2,1.6,4.2c0,2.2-1.3,4.3-3.5,5.3c2.3,0.8,3.6,2.3,3.6,4.4c0,3.3-2.7,5-6.2,5s-6.2-1.8-6.2-5h1.3
			c0,2.5,2.3,3.7,4.9,3.7c2.6,0,4.9-1.1,4.9-3.7c0-2.7-2.5-3.7-4.9-3.7c-3.8,0-6.1-2.7-6.1-6c0-3.9,2.7-6.1,6.1-6.1
			c1.3,0,2.7,0.5,3.7,1.1L697,166z M687.2,172.3c0,2.6,1.8,4.8,4.8,4.8c2.7,0,4.9-2.2,4.9-4.8c0-3.1-2.2-4.8-4.9-4.8
			S687.2,169.1,687.2,172.3z M702.1,166.5v2.2c1-1.7,2.8-2.4,4.6-2.4c3.5,0,5.9,2,5.9,5.5v7.2h-1.3v-7.1c0-2.8-1.8-4.3-4.6-4.3
			c-2.7,0-4.6,2-4.6,4.5v6.9h-1.3v-12.4L702.1,166.5L702.1,166.5z M724.9,168.7c-1.3-1.1-2.6-1.3-4.1-1.3c-2,0-4,0.7-3.9,2.3
			c0.1,1.7,2.3,2,4,2.3c2.3,0.4,5.5,0.8,5.4,3.6c-0.1,2.7-3.1,3.5-5.4,3.5c-2.3,0-4.6-0.8-5.7-2.5l0.9-0.8c1.1,1.5,3,2.1,4.8,2.1
			c1.6,0,4-0.4,4.1-2.4c0.1-1.8-2.1-2.1-4.2-2.5c-2.5-0.4-5-0.9-5.1-3.3c0-2.4,2.5-3.5,5.2-3.5c1.9,0,3.6,0.5,4.9,1.7L724.9,168.7z"
			/>
		<g>
			<path class="st0" d="M335.2,70.5h-49c0-20.8,0-41.6,0-62.4h49v11.4h-36.8v14.4h35.5v11h-35.5V59h36.8V70.5z"/>
			<path class="st0" d="M401.9,25.3l-21.3,27.1h-2.4l-20.9-27.2v45.4h-12.4V8.2h14.2L379.6,35l20.5-26.8h14.1v62.4h-12.4L401.9,25.3
				L401.9,25.3z"/>
			<path class="st0" d="M474.7,70.5h-49c0-20.8,0-41.6,0-62.4h49v11.4h-36.8v14.4h35.5v11h-35.5V59h36.8V70.5z"/>
			<path class="st0" d="M542.4,70.5h-14.7l-19.1-20.9h-11.9v20.9h-12.4V8c10.4,0,20.8,0.1,31.2,0.1c15.4,0.1,23.6,9.9,23.6,20.7
				c0,8.6-4.1,17.2-16.6,19.6l19.8,21.3v0.8H542.4z M496.7,19v20h18.8c7.9,0,11.2-5,11.2-10s-3.5-10-11.2-10H496.7z"/>
			<path class="st0" d="M594,58.7h-34.2l-5.6,11.8h-13.4l29.4-62.4h13.5L613,70.5h-13.5L594,58.7z M576.9,21.2l-12.2,26.6H589
				L576.9,21.2z"/>
			<path class="st0" d="M631.9,8.1v51.5h33.7v10.9h-46V8.1H631.9z"/>
			<path class="st0" d="M732,38.7c0.3,15.8-9.8,31.7-32.7,31.7c-8.1,0-17.7,0-25.7,0V8.1c8,0,17.7,0,25.7,0
				C721.7,8.1,731.7,23.3,732,38.7z M685.8,59.2h13.5c14.9,0,20.8-10.3,20.5-20.5c-0.3-9.7-6.3-19.4-20.5-19.4h-13.5V59.2z"/>
		</g>
		<path class="st0" d="M399.5,169.9c-0.8-5.5-0.8-8.9-0.3-8.9s1.7,3.4,2.8,8.9c0.2,1.2,0.5,2.3,0.7,3.5c1.4-2.6,2.3-5.8,2.3-9.3
			c0-8.4-5-15.2-11.1-15.2s-11.1,6.8-11.1,15.2c0,3.7,1,7,2.6,9.7c0.2-1.3,0.5-2.6,0.7-3.9c1.1-5.5,2.3-8.9,2.8-8.9s0.5,3.4-0.3,8.9
			c-0.3,2.2-0.7,4.5-1.1,6.7c1.5,1.5,3.4,2.4,5.4,2.7c-0.1-2.9-0.2-6.2-0.1-9.4c0.2-5.5,0.7-8.9,1.3-8.9c0.5,0,1.1,3.4,1.3,8.9
			c0.1,3.1,0.1,6.5-0.1,9.3c2-0.3,3.8-1.3,5.3-2.9C400.2,174.2,399.8,172,399.5,169.9z"/>
		<g>
			<path class="st0" d="M388.3,96.8h-20.2V86.4c18.3,0,33.9,0,52.3,0v10.4h-20.1v55.9h-12L388.3,96.8L388.3,96.8z"/>
			<path class="st0" d="M533.7,147v-24.5h-31.2V147h-12V86.5h12V112h31.2V86.5h11.9V147H533.7z"/>
			<path class="st0" d="M337.2,86.7l-28.2,29l30.6,30.5v0.7h-14.8l-26.6-26.8v26.8h-12V86.4h12V112l24.1-25.6h14.9V86.7z
				 M483.7,139.3c-6.5,6.1-15,9-24.1,9c-23.6,0-33.6-15.5-33.7-31.2c-0.1-15.8,10.7-31.9,33.7-31.9c8.6,0,16.8,3.1,23.3,9.3l-8,7.3
				c-4.2-3.9-9.8-5.7-15.3-5.7c-15.3,0-22,10.9-21.9,21c0.1,10,6.2,20.5,21.9,20.5c5.5,0,11.8-2.2,16-6.1L483.7,139.3z M604.3,146.9
				h-47.6c0-20.1,0-40.4,0-60.5h47.6v11.1h-35.7v13.9H603V122h-34.4v13.7h35.7V146.9z M657.2,86.3h12v60.6h-7.4v0.1l-33.4-40.9v40.8
				h-12V86.4h9.7l31.1,37.5L657.2,86.3L657.2,86.3z M720.4,101c-2.2-3.5-8.2-6.7-15.1-6.7c-8.9,0-13.2,3.5-13.2,8
				c0,5.3,6.5,6.7,14.2,7.6c13.3,1.6,25.6,4.8,25.6,19.3c0,13.5-12.5,19.3-26.7,19.3c-13,0-23-3.8-27.7-14.9l10-4.9
				c2.8,6.7,10.2,9.6,17.9,9.6c7.5,0,14.6-2.5,14.6-9.1c0-5.7-6.3-8-14.7-8.9c-13-1.5-25-4.8-25-18.3c0-12.5,12.9-17.6,24.6-17.6
				c9.9,0,20.2,2.7,25,12L720.4,101z"/>
			<path class="st0" d="M357.6,146.2v-31.7c1.6-1.5,2.7-3.6,2.7-5.9V93.9c0-4.5-3.9-8.2-8.6-8.2l0,0c-4.7,0-8.6,3.7-8.6,8.2v14.8
				c0,2.3,1,4.3,2.6,5.8v30.6c-3.4,2.6-5.8,7.5-5.8,13.3c0,8.4,5,15.2,11.1,15.2s11.1-6.8,11.1-15.2
				C362.2,153.4,360.4,149,357.6,146.2z M351.8,91.4c1.8,0,3.3,1.4,3.3,3.1s-1.5,3.1-3.3,3.1s-3.3-1.4-3.3-3.1S350,91.4,351.8,91.4z
				"/>
			<ellipse class="st0" cx="508.6" cy="126.8" rx="2.9" ry="2.8"/>
			<ellipse class="st0" cx="518.5" cy="126.8" rx="2.9" ry="2.8"/>
		</g>
	</g>
</g>
</svg>
