<?xml version="1.0" encoding="utf-8"?>
<!-- Generator: Adobe Illustrator 23.1.1, SVG Export Plug-In . SVG Version: 6.00 Build 0)  -->
<svg version="1.1" id="Layer_1" xmlns="http://www.w3.org/2000/svg" xmlns:xlink="http://www.w3.org/1999/xlink" x="0px" y="0px"
	 viewBox="0 0 692.2 884.3" style="enable-background:new 0 0 692.2 884.3;" xml:space="preserve">
<style type="text/css">
	.st0{fill:#FFFFFF;}
	.st1{fill:#000111;}
	.st2{fill:none;}
</style>
<title>Logo_ACCO</title>
<g id="Ebene_5">
	<path class="st0" d="M503.6,237.8c1.5,0,2.4,0,3.1,0.1c0.9,0,1.8,0,3.7,0c0.7,0,1.3-0.6,1.3-1.3l0,0c0-1.3,0.1-2.1,0-2.8
		c0-1-0.1-1.8-0.1-3.6c0-0.7-0.5-1.2-1.2-1.2c0,0,0,0-0.1,0c-1.5,0-2.4,0-3.1,0c-0.9,0-1.8,0-3.7,0c-0.7,0-1.2,0.6-1.2,1.2
		c0,0,0,0,0,0.1c0,1.3-0.1,2.1-0.1,2.8c0,1,0,1.8,0,3.6C502.4,237.2,502.9,237.8,503.6,237.8L503.6,237.8z"/>
	<path class="st0" d="M512.1,85.8c0-0.8-0.7-1.4-1.5-1.5c-1.5,0-2.5,0-3.2,0c-1.2,0-2.1,0-4.3,0c-0.8,0-1.4,0.7-1.4,1.5
		c0,1.7,0,2.6,0,3.4c0,0.9,0.1,1.8,0.1,3.7c0,0.8,0.6,1.4,1.4,1.5l0,0c1.5,0,2.4,0,3.2,0c1.2,0,2.1,0,4.3,0c0.8,0,1.4-0.6,1.4-1.4
		l0,0c0-1.7,0-2.6,0-3.4C512,88.6,512.1,87.7,512.1,85.8z"/>
	<path class="st0" d="M503.3,213.2c1.8,0,2.7,0,3.6,0s1.8-0.1,3.7-0.1c0.8,0,1.4-0.6,1.4-1.3c0-1.5,0-2.4-0.1-3.2c0-1,0-1.8,0-3.7
		c0-0.7-0.6-1.3-1.3-1.3c0,0,0,0-0.1,0c-1.8,0-2.7-0.1-3.6-0.1s-1.8,0.1-3.7,0.1c-0.8,0-1.4,0.6-1.4,1.4c0,1.5,0.1,2.4,0.1,3.2
		c0,1,0,1.8,0,3.7C501.9,212.6,502.5,213.2,503.3,213.2z"/>
	<path class="st0" d="M501.6,248c0-1.5,0-2.3,0-3c0-1,0-1.8,0-3.7c0-0.7-0.6-1.3-1.4-1.3l0,0c-1.7,0-2.5-0.1-3.4-0.1
		s-1.8,0.1-3.7,0.1c-0.7,0-1.3,0.6-1.3,1.2v0.1c0,1.4-0.1,2.3-0.1,3c0,1,0,1.8,0,3.7c0,0.7,0.6,1.4,1.3,1.4c1.7,0,2.6,0,3.4,0
		c0.9,0,1.8-0.1,3.7-0.1C500.9,249.3,501.5,248.7,501.6,248z"/>
	<path class="st0" d="M501,133.3c0,1.6,0,2.5,0,3.3c0,0.9,0,1.8,0,3.7c0,0.8,0.6,1.4,1.4,1.4l0,0c1.5,0,2.4,0,3.2,0
		c1.2,0,2.1,0,4.3,0c0.8,0,1.4-0.6,1.4-1.4l0,0c0-1.6,0-2.5,0-3.3c0-0.9,0-1.8,0-3.7c0-0.8-0.6-1.4-1.4-1.4l0,0c-1.9,0-2.8,0-3.7,0
		s-2.6-0.5-4.5-0.5C501,131.3,501,132.5,501,133.3z"/>
	<path class="st0" d="M502.9,117.9c1.7,0,2.6,0.1,3.5,0.1s1.8,0,3.7,0c0.7,0,1.3-0.6,1.3-1.3l0,0c0-1.5,0-2.3,0-3.1c0-1,0-1.8,0-3.7
		c0-0.7-0.5-1.3-1.3-1.4l0,0c-1.7,0-2.6,0-3.5,0s-1.8,0-3.7,0c-0.7,0-1.3,0.6-1.3,1.3l0,0c0,1.5,0,2.3,0,3.1c0,1-0.1,1.8-0.1,3.7
		C501.5,117.3,502.2,117.9,502.9,117.9L502.9,117.9z"/>
	<path class="st0" d="M503.2,165.3c1.7,0,2.6,0.1,3.5,0.1s1.8-0.1,3.7-0.1c0.7,0,1.4-0.6,1.4-1.3l0,0c0-1.5,0.1-2.3,0.1-3.1
		c0-1,0-1.8,0-3.7c0-0.8-0.6-1.4-1.4-1.4c-1.7,0-2.6,0.1-3.5,0.1s-1.8-0.1-3.7-0.1c-0.8,0-1.4,0.6-1.4,1.4c0,1.5,0,2.3,0,3.1
		c0,1,0,1.8,0,3.7C501.8,164.7,502.5,165.3,503.2,165.3z"/>
	<path class="st0" d="M523.6,222.1c0-1,0.1-1.7,0-3.6c0-0.7-0.6-1.2-1.3-1.2c-1.4,0-2.2,0-2.9,0c-0.9,0-1.8-0.1-3.6-0.1
		c-0.7,0-1.2,0.6-1.2,1.3c0,1.2-0.1,1.9-0.1,2.6c0,1,0,1.7,0,3.6c0,0.7,0.6,1.2,1.2,1.2l0,0c1.4,0,2.2,0,2.9,0c1,0,1.8-0.1,3.6-0.1
		c0.7,0,1.3-0.5,1.3-1.2C523.7,223.5,523.6,222.7,523.6,222.1z"/>
	<path class="st0" d="M524.1,197.6c0-1,0-1.8,0-3.6c0-0.7-0.6-1.4-1.3-1.4c-1.6,0-2.5,0.1-3.3,0.1c-0.9,0-1.8-0.1-3.7-0.1
		c-0.7,0-1.3,0.6-1.3,1.4c0,1.4,0,2.2,0,2.9c0,1,0,1.8,0,3.7c0,0.7,0.5,1.3,1.2,1.3l0,0c1.6,0,2.5,0.1,3.3,0.1
		c0.9,0,1.8-0.1,3.7-0.1c0.7,0,1.3-0.6,1.3-1.3C524,199.1,524.1,198.3,524.1,197.6z"/>
	<path class="st0" d="M500.7,270.1c0-1.5,0-2.2,0-3s0-1.5,0-3c0-0.7-0.5-1.2-1.2-1.3c-1.3,0-2.1,0-2.8,0c-1,0-1.7,0-3.6,0
		c-0.7,0-1.2,0.6-1.2,1.2c0,1.5,0.1,2.2,0.1,3s0,1.5,0,3c0,0.7,0.5,1.2,1.2,1.2l0,0c1.3,0,2.1,0,2.8,0c1,0,1.7,0,3.6,0
		C500.2,271.3,500.7,270.7,500.7,270.1z"/>
	<path class="st0" d="M498.6,289.8c-2.2,0-2.2,0-4.3,0c-0.5,0-0.8,0.3-0.9,0.8l0,0c0,2,0,2,0,4c0,0.4,0.3,0.8,0.8,0.8l0,0
		c2.1,0,2.1,0,4.3,0c0.4,0,0.8-0.4,0.8-0.8l0,0c0-2,0-2,0-4C499.4,290.2,499.1,289.9,498.6,289.8L498.6,289.8z"/>
	<path class="st0" d="M498.9,214.9c-2.1,0-2.1,0.2-4.1,0.2c-3.6,0-4.2,0.2-4.3,1.4v0.1c0,0.8,0,0.8,0,1.6c0,0.7,0,0.7,0,1.4
		c0,0.8,0,0.8,0,1.7c0,0.8,0,0.8,0,1.5c0,0.6,0,0.6,0,1.3l0,0c0,0.3,0,0.6,0.1,0.9c0.1,0.2,0.2,0.4,0.2,0.7c0.2,0.4,0.5,0.7,1,0.7
		c0.6,0,1.2-0.1,1.9,0c2.8,0.4,2.8,0,5.7,0c3.1,0,2.9-0.6,2.9-3.6c0-2.5,0-2.5,0-5.1C502.2,215,500.2,214.9,498.9,214.9z"/>
	<path class="st0" d="M522.3,121.1c-1.7,0-2.6,0-3.5,0s-1.8,0-3.7,0c-0.7,0-1.3,0.6-1.3,1.3l0,0c0,1.5,0,2.3,0,3.1c0,1,0,1.8,0,3.7
		c0,0.7,0.6,1.3,1.3,1.3l0,0c1.7,0,2.6,0.1,3.5,0.1s1.8-0.1,3.7-0.1c0.8,0,1.4-0.6,1.4-1.4c0-1.5,0-2.3,0-3.1c0-1,0-1.8,0-3.7
		C523.7,121.7,523.1,121.1,522.3,121.1z"/>
	<path class="st0" d="M570.5,122.9c0-0.4-0.3-0.7-0.7-0.7h-3.5c-0.4,0-0.7,0.3-0.7,0.6l0,0c0,1.7,0,1.7,0,3.3c0,0.4,0.3,0.7,0.6,0.7
		l0,0c1.8,0,1.8,0,3.5,0c0.4,0,0.6-0.3,0.7-0.6l0,0C570.4,124.5,570.5,124.5,570.5,122.9z"/>
	<path class="st0" d="M570.4,150.2c0-1.6,0-1.6,0-3.3c0-0.4-0.3-0.6-0.7-0.6c-1.7,0-1.7,0-3.5,0c-0.4,0-0.7,0.3-0.7,0.7
		c0,1.6,0,1.6,0,3.3c0,0.3,0.3,0.6,0.7,0.6l0,0c1.7,0,1.7,0.1,3.5,0.1C570.1,150.9,570.4,150.6,570.4,150.2z"/>
	<path class="st0" d="M565.4,171.1c1,0,1,0,2,0c0.2,0,0.4-0.2,0.4-0.4c0-0.9,0-0.9,0-1.9c0-0.2-0.1-0.4-0.3-0.4l0,0c-1,0-1,0-2,0
		c-0.2,0-0.4,0.1-0.4,0.3l0,0c0,0.9,0,0.9,0,1.9C565,170.9,565.2,171.1,565.4,171.1z"/>
	<path class="st0" d="M488.7,75.6L488.7,75.6z"/>
	<path class="st0" d="M566.2,102.7c1.8,0,1.8,0,3.6,0c0.4,0,0.7-0.3,0.7-0.7c0-1.7,0-1.7,0-3.4c0-0.4-0.3-0.7-0.7-0.7l0,0
		c-1.8,0-1.8,0-3.6,0c-0.4,0-0.7,0.3-0.7,0.7c0,1.7,0,1.7,0,3.4C565.5,102.4,565.8,102.7,566.2,102.7z"/>
	<path class="st0" d="M524.2,101.2c0-1,0-1.8,0-3.7c0-0.8-0.6-1.4-1.4-1.4c-1.7,0-2.6,0.1-3.4,0.1c-0.9,0-1.8,0-3.7,0
		c-0.7,0-1.3,0.5-1.3,1.2c0,0,0,0,0,0.1c0,1.5-0.1,2.3-0.1,3.1c0,1,0,1.8,0,3.7c0,0.8,0.6,1.4,1.4,1.4c1.7,0,2.6-0.1,3.4-0.1
		c0.9,0,1.8,0,3.7,0c0.7,0,1.3-0.6,1.4-1.3l0,0C524.2,102.8,524.2,102,524.2,101.2z"/>
	<path class="st0" d="M512.6,185.4c0-1-0.1-1.8-0.1-3.7c0-0.7-0.6-1.4-1.3-1.4l0,0c-1.8,0-2.7,0-3.6,0s-1.9,0-3.7,0
		c-0.7,0-1.3,0.6-1.3,1.3v0.1c0,1.6-0.1,2.4-0.1,3.2c0,1,0,1.8,0,3.7c0,0.7,0.6,1.4,1.3,1.4l0,0c1.8,0,2.7,0,3.6,0s1.9,0,3.7,0
		c0.8,0,1.4-0.6,1.3-1.4l0,0C512.5,187.1,512.6,186.2,512.6,185.4z"/>
	<path class="st0" d="M504.4,281.2c1.9,0,1.9,0,3.9,0c0.4,0,0.7-0.4,0.7-0.8l0,0c0-1.8,0-1.8,0-3.7c0-0.4-0.3-0.7-0.7-0.8
		c-2,0-2,0-3.9,0c-0.4,0-0.8,0.3-0.8,0.7c0,1.8,0,1.8,0,3.7C503.7,280.9,504,281.2,504.4,281.2L504.4,281.2z"/>
	<path class="st0" d="M512.1,259.1c0-1.2-0.1-1.9-0.1-2.6c0-0.8,0-1.4,0-3c0-0.6-0.5-1.1-1-1.1l0,0c-1.4,0-2.2,0-2.9,0
		c-0.8,0-1.5,0-3,0c-0.6,0-1.1,0.5-1.2,1.1c0,1.2,0,1.9,0,2.6c0,0.8,0,1.4,0,3c0,0.6,0.5,1.1,1.1,1.1c1.4,0,2.2-0.1,2.9-0.1
		c0.7,0,1.5,0.1,3,0.1C511.6,260.3,512.1,259.8,512.1,259.1z"/>
	<path class="st0" d="M513.9,175.6c0,0.7,0.6,1.3,1.3,1.4c1.6,0,2.5-0.1,3.3-0.1c0.9,0,1.8,0.1,3.7,0.1c0.7,0,1.3-0.6,1.3-1.4
		c0-1.4,0-2.2,0-2.9c0-1,0-1.8,0-3.7c0-0.7-0.6-1.3-1.4-1.3c-1.6,0-2.5,0-3.3,0c-0.9,0-1.8,0-3.7,0c-0.7,0-1.3,0.6-1.4,1.3
		c0,1.4,0,2.2,0,2.9C513.9,172.9,513.9,173.7,513.9,175.6z"/>
	<path class="st0" d="M515.1,153.9c1.7,0,2.6,0,3.5,0s1.8,0,3.7,0c0.7,0,1.3-0.6,1.3-1.3l0,0c0-1.5,0.1-2.3,0.1-3.1c0-1,0-1.8,0-3.7
		c0-0.7-0.6-1.3-1.3-1.3l0,0c-1.7,0-2.6-0.1-3.5-0.1s-1.8,0.1-3.7,0.1c-0.8,0-1.4,0.6-1.4,1.4c0,1.5,0,2.3,0,3.1
		c0,1,0.1,1.8,0.1,3.7C513.8,153.3,514.3,153.9,515.1,153.9L515.1,153.9z"/>
	<path class="st0" d="M518.4,265.6c-0.4,0-0.6,0.3-0.6,0.6l0,0c0,1.6,0,1.6,0,3.2c0,0.4,0.3,0.7,0.7,0.7c1.7,0,1.7,0,3.4,0
		c0.4,0,0.7-0.3,0.7-0.7c0-1.6,0-1.6,0-3.2c0-0.4-0.3-0.7-0.7-0.7C520.2,265.6,520.2,265.6,518.4,265.6z"/>
	<path class="st0" d="M559.1,158.2c0-0.4-0.4-0.8-0.8-0.8c-2.2,0-2.2-0.1-4.3-0.1c-0.5,0-0.8,0.4-0.8,0.9c0,2,0,2,0,4.1
		c0,0.5,0.4,0.8,0.8,0.8c2.2,0,2.2,0,4.3,0c0.5,0,0.8-0.4,0.8-0.8C559.2,160.2,559.1,160.2,559.1,158.2z"/>
	<path class="st0" d="M559.3,86.1c0-0.5-0.4-0.9-0.9-0.9h-1.8c-0.8,0-1.3,0-2.8,0c-0.5,0-0.8,0.4-0.8,0.9l0,0c0,2.1,0,2.1,0,4.3
		c0,0.5,0.4,0.9,0.9,0.9l0,0c0.8,0,1.3,0,1.8,0c0.8,0,1.3,0,2.8,0c0.5,0,0.8-0.3,0.9-0.8l0,0C559.3,88.3,559.3,88.3,559.3,86.1z"/>
	<path class="st0" d="M463.7,75.6h-0.3C463.5,75.6,463.6,75.6,463.7,75.6z"/>
	<path class="st0" d="M540.1,75.8c0,0.2,0,0.3,0,0.4c0,0.8,0,1.5,0,3c0,0.6,0.5,1.2,1.1,1.2l0,0c1.2,0,2,0,2.6,0c0.9,0,1.7,0,3.5,0
		c0.6,0,1.1-0.5,1.2-1.1l0,0c0-1.3,0-2.1,0-2.7c0-0.3,0-0.6,0-0.9"/>
	<path class="st0" d="M514.7,75.6c0,0.2,0,0.4,0,0.6c0,0.9,0.1,1.8,0.1,3.7c0,0.8,0.6,1.4,1.4,1.5l0,0c1.5,0,2.4,0,3.2,0
		c0.2,0,0.5,0,0.7,0c0.8,0,1.7,0,3.4,0c0.1,0,0.1,0,0.2,0l0,0c0.8,0,1.4-0.6,1.4-1.4l0,0c0-1.7,0-2.6,0-3.4c0-0.3,0-0.6,0-0.9"/>
	<path class="st0" d="M554.1,139.4c2,0,2-0.1,4.1-0.1c0.4,0,0.8-0.3,0.8-0.7l0,0c0-1.9,0-1.9,0-3.9c0-0.4-0.3-0.7-0.7-0.8l0,0
		c-2.1,0-2.1,0-4.1,0c-0.4,0-0.8,0.3-0.8,0.7l0,0c0,1.9,0,1.9,0,3.9C553.3,139,553.7,139.4,554.1,139.4z"/>
	<path class="st0" d="M547.2,198.8V197c0-0.8,0-1.4,0-2.9c0-0.5-0.4-0.9-0.9-0.9l0,0c-1,0-1.5,0-2,0c-0.8,0-1.4,0-2.9,0
		c-0.5,0-0.9,0.4-0.9,0.9c0,0.8,0,1.3,0,1.8c0,0.8,0,1.4,0,2.9c0,0.5,0.4,0.9,0.9,0.9l0,0c1,0,1.5,0,2,0c0.8,0,1.4,0,2.9,0
		C546.8,199.7,547.2,199.3,547.2,198.8L547.2,198.8z"/>
	<path class="st0" d="M547.4,170.1c0-0.5-0.5-1-1-1c-1.1,0-1.7,0-2.2,0c-0.8,0-1.4,0-2.9,0c-0.5,0-1,0.5-0.9,1l0,0
		c0,0.9,0,1.5,0,1.9v2.9c0,0.5,0.4,0.9,0.9,0.9c0,0,0,0,0.1,0c1.1,0,1.7,0,2.2,0c0.8,0,1.4,0,2.9,0c0.5,0,1-0.4,1-1
		c0-0.9,0-1.5,0-1.9C547.4,172.2,547.4,171.6,547.4,170.1z"/>
	<path class="st0" d="M580.5,87.6c0-0.1-0.1-0.3-0.2-0.3l0,0c-0.7,0-0.7,0-1.5,0c-0.2,0-0.3,0.1-0.3,0.3c0,0.7,0,0.7,0,1.4
		c0,0.2,0.1,0.3,0.3,0.3l0,0c0.7,0,0.7,0,1.5,0c0.2,0,0.3-0.1,0.3-0.3l0,0C580.5,88.3,580.5,88.3,580.5,87.6z"/>
	<path class="st0" d="M580.3,111.3c-0.7,0-0.7,0-1.5,0c-0.2,0-0.3,0.1-0.3,0.3c0,0.7,0,0.7,0,1.4c0,0.2,0.1,0.3,0.3,0.3
		c0.7,0,0.7,0,1.5,0c0.1,0,0.3-0.1,0.3-0.3l0,0c0-0.7,0-0.7,0-1.4C580.6,111.5,580.4,111.4,580.3,111.3
		C580.3,111.4,580.3,111.3,580.3,111.3z"/>
	<path class="st0" d="M556.7,205.4c-1,0-1,0-2,0c-0.2,0-0.4,0.2-0.4,0.4c0,1,0,1,0,1.9c0,0.2,0.2,0.4,0.4,0.4c1,0,1,0,2,0
		c0.2,0,0.4-0.2,0.4-0.4c0-1,0-1,0-1.9C557.1,205.6,556.9,205.4,556.7,205.4L556.7,205.4z"/>
	<path class="st0" d="M541.9,217.3c-0.4,0-0.7,0.3-0.7,0.7l0,0c0,1.9,0,1.9,0,3.8c0,0.4,0.3,0.8,0.8,0.8c2,0,2,0,4,0
		c0.4,0,0.7-0.3,0.8-0.7l0,0c0-1.9,0-1.9,0-3.8c0-0.4-0.4-0.7-0.8-0.7l0,0C543.9,217.3,543.9,217.3,541.9,217.3z"/>
	<path class="st0" d="M523.5,246.3c0-0.8,0-1.3,0-1.8c0-0.8,0-1.4,0-2.9c0-0.5-0.4-1-0.9-1c-1,0-1.6,0-2.1,0c-0.8,0-1.4,0-2.9,0
		c-0.5,0-0.9,0.4-0.9,0.9l0,0c0,0.8,0,1.3,0,1.8c0,0.8,0,1.4,0,2.9c0,0.5,0.4,0.9,0.9,0.9c1,0,1.6,0,2.1,0c0.8,0,1.4,0,2.9,0
		C523.1,247.2,523.5,246.8,523.5,246.3L523.5,246.3z"/>
	<path class="st0" d="M565.5,75.6c0,0.2,0,0.5,0,0.7c0,0.5,0,0.9,0,1.9c0,0.4,0.3,0.7,0.7,0.7l0,0c0.8,0,1.3,0,1.7,0
		c0.6,0,1.1,0,2.2,0c0.4,0,0.7-0.3,0.7-0.7l0,0c0-0.9,0-1.3,0-1.7c0-0.3,0-0.5,0-0.8L565.5,75.6z"/>
	<path class="st0" d="M558.9,186.2c0-1.9,0-1.9,0-3.8c0-0.4-0.3-0.8-0.8-0.8c-2,0-2,0-4,0c-0.4,0-0.8,0.4-0.8,0.8c0,1.9,0,1.9,0,3.8
		c0,0.4,0.4,0.8,0.8,0.8c2,0,2,0,4,0C558.6,186.9,558.9,186.6,558.9,186.2z"/>
	<path class="st0" d="M536,160.7c0-0.8,0-1.5,0-3c0-0.6-0.5-1.1-1.1-1.2c0,0,0,0-0.1,0c-1.3,0-2.1,0-2.8,0c-1,0-1.7,0-3.6,0
		c-0.7,0-1.2,0.5-1.2,1.2l0,0c0,1.5,0,2.2,0,3s0,1.5,0,3c0,0.7,0.6,1.2,1.2,1.2l0,0c1.3,0,2.1,0.1,2.8,0.1c1,0,1.7-0.1,3.6-0.1
		c0.7,0,1.2-0.5,1.2-1.1l0,0C536.1,162.2,536,161.5,536,160.7z"/>
	<path class="st0" d="M535.7,208.8c0-0.8,0-1.4,0-2.9c0-0.6-0.4-1.1-1-1.1l0,0c-1.4,0-2.1,0-2.8,0s-1.5,0-3,0
		c-0.6,0-1.1,0.5-1.1,1.1l0,0c0,1.2,0,1.9,0,2.5c0,0.8,0,1.4,0,2.9c0,0.6,0.5,1.1,1.1,1.1c1.4,0,2.1,0,2.8,0c0.8,0,1.5,0,3,0
		c0.6,0,1.1-0.5,1.1-1.1l0,0C535.7,210.1,535.7,209.4,535.7,208.8z"/>
	<path class="st0" d="M528.9,117.4c1.3,0,2.1,0.1,2.8,0.1c1,0,1.7,0,3.6,0c0.7,0,1.2-0.6,1.2-1.3c0-1.5,0-2.2,0-3s0-1.5,0-3
		c0-0.7-0.5-1.2-1.2-1.2c-1.3,0-2.1,0-2.8,0c-1,0-1.7-0.1-3.6-0.1c-0.7,0-1.2,0.6-1.2,1.2l0,0c0,1.5,0,2.3,0,3s0,1.5,0,3
		C527.7,116.9,528.2,117.4,528.9,117.4L528.9,117.4z"/>
	<path class="st0" d="M540,151.3c0,0.5,0.4,1,0.9,1l0,0c1.1,0,1.7,0,2.2,0c0.8,0,1.4,0,2.9,0c0.5,0,0.9-0.5,0.9-1c0-0.9,0-1.5,0-1.9
		c0-0.8,0-1.4,0-2.9c0-0.5-0.4-1-1-1c-1.1,0-1.7,0-2.2,0c-0.8,0-1.4,0-2.9,0c-0.6,0-1,0.4-1,1c0,0.9,0,1.5,0,1.9
		C540,149.2,540,149.8,540,151.3z"/>
	<path class="st0" d="M536.6,88.5c0-0.8,0-1.5,0-3c0-0.7-0.5-1.2-1.2-1.2l0,0c-1.3,0-2.1,0-2.7,0c-1,0-1.7-0.1-3.6-0.1
		c-0.7,0-1.2,0.6-1.2,1.2c0,1.5-0.1,2.2-0.1,2.9c0,0.8,0.1,1.5,0.1,3c0,0.7,0.5,1.2,1.2,1.2c1.3,0,2.1,0,2.7,0c1,0,1.7-0.1,3.6-0.1
		c0.7,0,1.2-0.5,1.2-1.2C536.6,90,536.6,89.2,536.6,88.5z"/>
	<path class="st0" d="M536.6,139.7c0-1.5,0.1-2.3,0-3c0-0.7-0.1-1.5-0.1-3c0-0.7-0.5-1.2-1.1-1.2l0,0c-1.3,0-2.1,0.1-2.8,0.1
		c-1,0-1.7,0-3.6,0c-0.7,0-1.2,0.5-1.2,1.2c0,1.5,0,2.2,0,3s0,1.5,0,3c0,0.6,0.5,1.2,1.1,1.2l0,0c1.3,0,2.1,0.1,2.8,0
		c1,0,1.7,0,3.6,0C536,140.9,536.6,140.3,536.6,139.7L536.6,139.7z"/>
	<path class="st0" d="M542.9,128.9c0.8,0,1.4-0.1,2.9-0.1c0.5,0,1-0.4,1-0.9l0,0c0-1,0-1.6,0-2.1c0-0.8,0.1-1.4,0.1-2.9
		c0-0.6-0.5-1-1-1c-1.2,0-1.9,0-2.5,0c-0.8,0-1.4,0-2.9,0c-0.6,0-1,0.5-1,1l0,0c0,1,0,1.6,0,2.1c0,0.8,0,1.4,0,2.9c0,0.6,0.5,1,1,1
		C541.6,128.8,542.3,128.9,542.9,128.9z"/>
	<path class="st0" d="M547.5,101.1c0-0.8,0-1.4,0-2.9c0-0.5-0.4-1-0.9-1l0,0c-1.2,0-1.8,0-2.4,0c-0.8,0-1.4,0-2.9,0
		c-0.6,0-1,0.4-1,1l0,0c0,1,0,1.6,0,2.2c0,0.8,0,1.4,0,2.9c0,0.5,0.4,1,0.9,1c0,0,0,0,0.1,0c1.2,0,1.8,0.1,2.4,0.1
		c0.8,0,1.4,0,2.9,0c0.5,0,1-0.4,1-1l0,0C547.5,102.2,547.5,101.6,547.5,101.1z"/>
	<path class="st0" d="M535.8,181.6c0-0.7-0.5-1.2-1.2-1.2c-1.2,0-2,0-2.6,0c-1,0-1.7,0.1-3.6,0.1c-0.6,0-1.2,0.5-1.2,1.1l0,0
		c0,1.4,0,2.1,0,2.8c0,0.8,0.1,1.5,0.1,3c0,0.7,0.5,1.2,1.1,1.2l0,0c1.2,0,2,0,2.6,0c1,0,1.7,0,3.6,0c0.7,0,1.2-0.6,1.1-1.2
		c0-1.4,0-2.1,0-2.8C535.7,183.9,535.8,183.1,535.8,181.6z"/>
	<path class="st0" d="M528.8,253.9c-1,0-1,0-2,0c-0.2,0-0.4,0.2-0.4,0.4v1.9c0,0.2,0.2,0.4,0.4,0.4l0,0c1,0,1,0,2,0
		c0.2,0,0.4-0.2,0.4-0.4l0,0c0-1,0-1,0-1.9C529.2,254.1,529,253.9,528.8,253.9z"/>
	<path class="st0" d="M530,235.4c0.8,0,1.4,0,1.8,0c0.8,0,1.3,0,2.8,0c0.5,0,0.9-0.4,0.9-0.9l0,0c0-2.2,0-2.2,0-4.4
		c0-0.5-0.4-0.9-0.9-0.9l0,0c-0.8,0-1.4,0-1.8,0c-0.8,0-1.3,0-2.8,0c-0.5,0-0.9,0.4-0.9,0.8l0,0c0,2.2,0,2.2,0,4.4
		C529.1,235,529.5,235.4,530,235.4z"/>
	<path class="st0" d="M558.4,109.4c-2.2,0-2.2,0-4.3,0c-0.4,0-0.8,0.4-0.8,0.8l0,0c0,2,0,2,0,4.1c0,0.5,0.4,0.8,0.8,0.8
		c2.2,0,2.2,0,4.3,0c0.5,0,0.8-0.4,0.8-0.8c0-2,0-2,0-4.1C559.2,109.8,558.8,109.4,558.4,109.4L558.4,109.4z"/>
	<path class="st0" d="M466.6,283.5c0-1,0-2,0.1-2.9s0.1-1.7,0.1-3.6c0-0.7-0.5-1.3-1.3-1.3c0,0,0,0-0.1,0c-1.8,0-2.7-0.1-3.6-0.1
		s-1.8,0.1-3.7,0.1c-0.7,0-1.3,0.6-1.3,1.3c0,0,0,0,0,0.1c0,1.6,0,2.4,0,3.2c0,0.9-0.1,1.8-0.1,3.6c0,0.8,0.6,1.4,1.4,1.4
		c1.8,0,2.7-0.1,3.6-0.1h3.7C466.3,285.1,466.6,284.2,466.6,283.5z"/>
	<path class="st0" d="M478.2,271c0-1.5,0.1-2.3,0.1-3c0.1-1.2,0.2-2.5,0.2-3.7c0-0.8-0.7-1.4-1.5-1.4c-1.8,0-2.7,0.1-3.6,0.1
		s-1.9,0-3.7,0c-0.7,0-1.3,0.6-1.3,1.3c0,0,0,0,0,0.1c0,1.6-0.1,2.5-0.1,3.3c0,1,0,1.8,0,3.7c0,0.8,0.7,1.4,1.4,1.3l0,0
		c1.8,0,2.7,0,3.6,0s1.9,0.1,3.7,0.1C477.9,272.7,478.2,271.8,478.2,271z"/>
	<path class="st0" d="M465.1,304.3c0-0.8,0.1-1.6,0.1-3.3c0-0.7-0.6-1.3-1.3-1.3c-0.6,0-1.1,0-1.6,0c-1.2,0-1.9,0-2.9,0
		c-0.6,0-1.3,0.1-2.3,0.1c-0.7,0-1.2,0.5-1.3,1.1c0,0,0,0,0,0.1c0,1.5,0,2.3,0,3.1c0,0.8,0,1.6,0,3.3c0,0.7,0.5,1.3,1.2,1.3l0,0
		c0.6,0,1.1,0,1.6,0c1.2,0,1.9-0.1,2.9-0.1c0.6,0,1.3,0.1,2.3,0.1c0.7-0.1,1.2-0.7,1.2-1.4C465.1,305.8,465.1,305.1,465.1,304.3z"/>
	<path class="st0" d="M444.7,320.6c0.6,0,1.4,0.1,1.8,0.1c0.9,0,1.2-0.1,1.9-0.1c0.9,0,1.8,0,3.6,0c0.8,0,1.4-0.7,1.3-1.4
		c0-1.6,0-2.4,0-3.3s-0.1-1.8-0.1-3.6c0-0.7-0.5-1.3-1.2-1.4c0,0,0,0-0.1,0c-1.4,0-2.2,0-2.9,0c-0.9,0-1.1-0.1-2.3-0.1
		c-0.4,0-1.4,0.1-2,0.1c-0.8,0-1.4,0.7-1.4,1.4c0,0.6,0,1.2,0,1.6c0,0.7,0,1.1,0,1.6s0.3,1,0.3,1.7c0,0.5-0.2,1.1-0.2,1.9
		C443.4,320,444,320.6,444.7,320.6L444.7,320.6z"/>
	<path class="st0" d="M447.4,344.1c1.4,0,2.2,0,2.9,0s1.4,0,2.9,0c0.6,0,1.1-0.5,1.1-1.1c0-1.3,0-1.9,0-2.6s-0.1-1.4-0.1-2.9
		c0-0.6-0.4-1.1-1-1.1l0,0c-1.1,0-1.8,0-2.3,0c-1,0-1.6,0-3.4,0c-0.6,0-1.1,0.5-1.1,1.1c0,1.3,0,1.9,0,2.6s0.1,1.4,0.1,2.9
		C446.3,343.6,446.8,344.1,447.4,344.1L447.4,344.1z"/>
	<path class="st0" d="M439.5,347.9c-1.3,0-2,0-2.7,0c-1,0-1.7,0-3.5,0c-0.6,0-1.1,0.5-1.1,1.1l0,0c0,1.5-0.1,2.2-0.1,2.9s0,1.5,0,3
		c0,0.6,0.6,1.2,1.2,1.1l0,0c1.3,0,2,0.1,2.7,0.1c1,0,1.7-0.1,3.5-0.1c0.6,0,1.2-0.5,1.2-1.1l0,0c0-1.4,0-2.2,0-2.9s0-1.5,0-3
		C440.6,348.4,440.1,347.9,439.5,347.9L439.5,347.9z"/>
	<path class="st0" d="M476.8,295.3c0-1.2,0-1.9,0.1-2.5c0.2-1.2,0.2-2.3,0.2-3.5c0-0.7-0.6-1.3-1.3-1.3c-1.7,0-2.6,0-3.4,0.1
		c-0.9,0-1.8,0-3.6,0c-0.7,0-1.3,0.5-1.3,1.2l0,0c0,1.3,0,2,0,2.7c0,0.9,0,1.7,0,3.5c0,0.7,0.6,1.3,1.4,1.2c1.7,0,2.6,0,3.5,0
		s1.8,0,3.6,0C476.6,296.8,476.8,296,476.8,295.3z"/>
	<path class="st0" d="M488.6,250.7c-1.8,0-2.8,0-3.7,0s-1.9,0-3.7,0c-0.8,0-1.4,0.6-1.4,1.4c0,1.6,0,2.5,0,3.3c0,1,0,1.8,0,3.7
		c0,0.8,0.6,1.4,1.4,1.4l0,0h3.7c0.9,0,1.9,0,3.7,0c0.8,0,1.4-0.5,1.4-1.3l0,0c0-1.6,0-2.5,0-3.3c0-1,0-1.8,0-3.7
		C490.1,251.3,489.4,250.7,488.6,250.7z"/>
	<path class="st0" d="M488.7,277.4c0-0.7-0.5-1.2-1.2-1.3l0,0c-1.5,0-2.3,0-3.1,0c-1,0-1.8,0-3.6,0c-0.7,0-1.3,0.6-1.3,1.3l0,0
		c0,1.3,0,2,0,2.7v3.6c0,0.7,0.5,1.2,1.2,1.2c0,0,0,0,0.1,0c1.5,0,2.3,0,3.1,0c1,0,1.8,0.1,3.7,0.1c0.7,0,1.2-0.6,1.2-1.3l0,0
		c0-1.3,0.1-2,0.1-2.7C488.7,280,488.7,279.3,488.7,277.4z"/>
	<path class="st1" d="M590.3,75.6c-0.1,225.2-196.1,337.9-255.2,367.9c-38.7,19.6-77.9,34.3-119.3,43.9v-0.2
		c-3.5,0.2,0.2-3.3,0.3-6.8c0.4-2.3,1.6-2.2,3.3-2.2c3.1,0,3.1-0.2,6.2-0.2c3.3,0,3.7-1,3.8-2.4c0-2.7,0-2.7,0-5.5
		c0-1.3,0.2-2.7,2.1-2.7c3.5,0,3.5,0,7,0.1c2.2,0.1,2.4,0.1,2.6,2c0.1,2.1,0.7,2,0.7,4.1c0,1.4,0.4,2.8,2.2,2.8c2.5,0,2.5-0.1,5-0.1
		c2,0,2.4-0.9,2.7-3.1c0.1-2.2,0.2-2.2,0.3-4.4c0.1-1.2-0.8-2.2-2-2.3h-0.1c-0.8,0-0.8,0-1.6,0c-0.7,0-0.7,0-1.5,0
		c-0.9,0-0.9,0-1.8,0c-0.6,0-0.6,0-1.2,0c-0.4,0-0.4,0-0.8,0c-0.4,0-0.7-0.1-1-0.4c-0.2-0.2-0.3-0.5-0.3-0.9c0-0.9,0-0.9,0-1.8
		c0-0.8,0-0.8,0-1.6c0-0.7,0-0.7,0-1.4c0-0.6,0-0.6,0-1.2c0-0.3,0-0.3,0-0.6c0-0.7,0.6-1.3,1.3-1.3c0,0,0,0,0.1,0c0.8,0,0.8,0,1.7,0
		c0.7,0,0.7,0,1.5,0c0.9,0,0.9,0,1.8,0c0.6,0,0.6,0,1.1,0c0.4,0,0.4,0,0.8,0c0.7,0,1.3,0.6,1.3,1.3c0,0.9,0,0.9,0,1.8
		c0,0.8,0,0.8,0,1.6c0,0.7,0,0.7,0,1.4c0,0.4,0,0.5,0,0.7l0,0c0,1.9,2.4,2,3.3,2c1.5,0,2.5-0.2,3.3-0.2c0.5,0,0.9,0.2,1.5,0.1
		c0.7,0,1.5-0.1,2.8-0.1s2.4-1.2,2.5-3.3c0.1-3.5-0.1-3.5-0.1-6.9c0-2.3,1.6-2.4,3.8-2.4c3.2,0,2.7-0.3,6.4-0.3
		c2.1,0.3,2.4-0.2,2.4-1.7c0-2.6,0.1-2.5,0.1-5.2c0-1.5,0.4-2.3,2-2.5c2.7-0.3,2.7,0.3,5.4,0.3c2.8,0,3.5,0.2,3.6,2.5
		c0,1.3,0,2.1,0,3.4s0,3.6,2,3.6c2.1,0,5.7,0,5.8-0.1c1.9-0.1,2.9-1,3-2.3c-0.1-2,0-4,0.3-6c0.2-1.3,0-2.6-1.3-3
		c-0.2,0.1-0.4,0.1-0.7,0.1c-0.7,0-0.7,0-1.3,0c-0.8,0-0.8,0-1.5,0s-0.7,0-1.4,0c-0.6,0-0.6,0-1.1,0s-0.6,0-1.1,0s-1-0.3-1.3-0.7
		c-0.1-0.2-0.2-0.5-0.2-0.8c0-0.7,0-0.7,0-1.3v-1.6c0-0.7,0-0.7,0-1.4c0-0.6,0-0.6,0-1.1c0-0.6,0-0.6,0-1.1s0.3-1,0.7-1.3
		c0.2-0.2,0.5-0.2,0.8-0.2c0.7,0,0.7,0,1.3,0c0.8,0,0.8,0,1.5,0s0.7,0,1.4,0c0.6,0,0.6,0,1.1,0h1.1c0.5,0,1,0.3,1.3,0.7
		c0.2,0.2,0.3,0.5,0.3,0.8v1.3c0,0.8,0,0.8,0,1.6c0,0.7,0,0.7,0,1.4c0,0.6,0,0.6,0,1.1s0,0.6,0,1.1c0.3,1.2,1.3,1.7,3.6,1.4
		c2.9-0.4,2.8-0.1,5.7-0.1c2.5,0,2.6-1.1,2.6-2.7c0-2.7,0.3-3.8,0.3-7.1c0-2.5,0.9-3.2,2.8-3.2c3.5,0,3,0.2,6.5,0.1
		c2.8-0.1,1.9-0.6,1.8-2.2c-0.2-3.2,0.6-2.7,0.8-5.9c0.1-2.4-0.2-3.4-1.3-3.8c0,0,0,0-0.1,0c-0.6,0-0.6,0-1.3,0c-0.8,0-0.8,0-1.5,0
		s-0.7,0-1.3,0c-0.5,0-0.5,0-1.1,0s-0.5,0-1.1,0c-0.8,0-1.4-0.6-1.5-1.4v-0.1c0-0.6,0-0.6,0-1.3c0-0.8,0-0.8,0-1.5s0-0.7,0-1.3
		c0-0.6,0-0.6,0-1.1s0-0.5,0-1.1c0-0.8,0.6-1.5,1.4-1.5l0,0c0.6,0,0.6,0,1.3,0c0.8,0,0.8,0,1.5,0s0.7,0,1.3,0c0.5,0,0.5,0,1.1,0
		c0.5,0,0.5,0,1.1,0c0.4,0,0.8,0.2,1.1,0.5c0.3,0.3,0.4,0.6,0.4,1c0,0.6,0,0.6,0,1.3v1.5c0,0.7,0,0.7,0,1.3c0,0.6,0,0.6,0,1.1
		s0,0.5,0,1.1l0,0c0.1,1.2,0.4,2.2,1.1,2.5c0.5,0.2,1.1,0.3,1.6,0.3c1,0.1,1.9,0.1,2.9,0c1.7,0,3.3,0,6,0c1.7,0,1.5,1.1,1.5,2.8
		c0,0.3,0.1,0.6,0.3,0.8c0,0.1,0,0.3,0,0.4c0,0.9-0.1,1.7-0.1,3.5c0,0.7,0.6,1.3,1.3,1.3c1.5,0,2.3,0,3.1,0c0.9,0,1.7,0,3.5,0
		c0.7,0,1.2-0.5,1.2-1.2l0,0c0-1.3,0-2.1,0-2.7c0-0.9,0-1.7,0-3.5c0-0.7-0.5-1.2-1.2-1.2l0,0c-1.5,0-2.3,0.1-3.1,0.1
		c-0.9,0-1.7,0-3.5,0c-0.1,0-0.3,0-0.4,0.1c-0.1-0.1-0.3-0.2-0.4-0.3c-0.3-0.3-0.5-0.8-0.5-1.2c0-0.8,0-0.8,0-1.6c0-0.7,0-0.7,0-1.4
		c0-0.8,0.1-0.8,0.1-1.6c0-0.7,0-0.7,0-1.5c0-0.6,0-0.6,0-1.2c0-0.3,0-0.3,0-0.5c0-0.5,0.2-1,0.6-1.3c0.3-0.3,0.8-0.5,1.2-0.5
		c0.8,0,0.8,0,1.6,0c0.7,0,0.7,0,1.4,0h1.6c0.7,0,0.7,0,1.4,0c0.6,0,0.6,0,1.2,0c0.1,0,0.2,0,0.3,0c0.1,0,0.3,0,0.4,0
		c0.2,0,0.6-0.1,1-0.2c0.3-0.1,0.4,0.1,0.4,0.4c0,1.4,0,2.2,0,2.9c0,1-0.1,1.8-0.1,3.7c0,0.7,0.6,1.4,1.4,1.4c1.6,0,2.5,0,3.3,0
		c1,0,1.8,0,3.7,0c0.7,0,1.3-0.6,1.3-1.3l0,0c0-1.4,0-2.2,0-2.9c0-1,0-1.8,0-3.7c0-0.7-0.6-1.3-1.3-1.3l0,0c-1.6,0-2.5,0.1-3.3,0.1
		c-0.9,0-1.8,0-3.7,0c-0.3,0-0.1-0.8-0.1-1.3c0-0.8,0-0.8,0-1.6c0-0.7,0-0.7,0-1.4c0-0.8,0-0.8,0-1.6c0-0.7,0-0.7,0-1.5
		c0-0.6,0-0.6,0-1.2v-0.5c0-0.5,0.2-1,0.6-1.3c0.3-0.3,0.8-0.5,1.2-0.5c0.8,0,0.8,0,1.6,0c0.7,0,0.7,0,1.4,0c0.8,0,0.8,0,1.6,0
		c0.7,0,0.7,0,1.4,0c0.6,0,0.6,0,1.2,0c0.3,0,0.3,0,0.5,0c0.8-0.1,1.7,0,2.5,0.2c0,1.4,0.1,2.2,0.1,2.9c0,1-0.1,1.9-0.1,3.9
		c0,0.8,0.7,1.4,1.4,1.4c1.7,0,2.6,0,3.5,0c1,0,1.9,0,3.9,0c0.8,0,1.4-0.6,1.4-1.4l0,0c0-1.5,0-2.3,0-3.1c0-1,0-1.9,0-3.9
		c0-0.8-0.6-1.4-1.4-1.4l0,0c-1.7,0-2.6,0.1-3.5,0.1c-1,0-1.9,0-3.9,0c-0.2,0-0.4,0.1-0.6,0.2c-0.4-0.1-0.8-0.3-1.1-0.6
		c-0.3-0.3-0.5-0.8-0.4-1.2c0-0.8,0-0.6,0-1.4c0-0.7,0-0.7,0-1.4c0-0.8,0-0.8,0-1.6c0-0.7,0-0.7,0-1.5c0-0.6,0-0.6,0-1.2
		c0-0.3,0-0.3,0-0.5c0-0.6,0.3-1.1,0.7-1.5c0.3-0.3,0.7-0.4,1.1-0.4c0.8,0,0.8,0,1.6,0c0.7,0,0.7,0,1.4,0c0.8,0,0.8,0,1.6,0
		c0.7,0,0.7,0,1.4,0c0.6,0,0.6,0,1.2,0c0.3,0,0.3-0.1,0.5-0.1c0.6,0,2.3-0.1,2.6,0.3c0.2,0.3,0.4,0.5,0.6,0.8c0,0.1,0,0.2-0.1,0.3
		c0,1.4,0.1,2.3,0.1,3c0,1-0.1,1.8-0.1,3.8c0,0.8,0.6,1.4,1.4,1.4c1.7,0,2.6,0,3.4,0c1,0,1.9,0,3.8,0c0.8,0,1.4-0.6,1.4-1.4l0,0
		c0-1.4,0-2.3,0-3c0-1,0-1.8,0-3.8c0-0.7-0.6-1.4-1.3-1.4l0,0c-1.3,0-2.1,0-2.8,0.1l0,0c-0.5,0-0.6,0-1.3,0c-0.7,0-0.7,0-1.4,0
		c-0.1,0-0.1,0-0.2,0c-0.4,0-0.8,0-1.3,0c-0.1-0.1-1.3-0.3-1.6-0.6c-0.3-0.3-0.5-0.8-0.5-1.2c0-0.8,0-1.4,0-2.2c0-0.7,0-0.7,0-1.4
		c0-0.8,0-0.8,0-1.6c0-0.7-0.1-0.7-0.1-1.5c0-0.6,0.1-0.6,0.1-1.2c0-0.3,0-0.3,0-0.5c0-1,0.7-1.8,1.7-1.8h0.1c0.8,0,0.8,0,1.6,0
		c0.7,0,0.7,0,1.4,0c0.8,0,0.8,0.1,1.6,0.1c0.7,0,0.7-0.1,1.4-0.1c0.6,0,0.6,0,1.2,0c0.3,0,0.8,0,1.1,0c0.2,0,0.4,0,0.6,0
		c1.8-0.3,1.3-1.5,1.3-1.6c0-0.8,0-0.8,0-1.5s-0.1-2.6-0.1-3.4c0-0.7-0.1-0.9-0.1-1.6c0-0.6,0-0.9,0-1.5v-0.5c0-0.9,0.2-1.8,0.5-2.6
		c0.4-0.3,0.8-0.4,1.3-0.4c0.8,0,1.5-0.3,2.3-0.3c0.7,0,0.7,0,1.3,0c0.8,0,0.8,0,1.6,0c0.7,0,0.7,0,1.4,0c0.6,0,0.6,0,1.2,0
		c0.3,0,0.3,0,0.5,0c1.6,0.1,1-1.1,1.1-2.1c0-0.7,0,0,0-0.7v-1.7c0-0.8,0-0.8,0-1.6c0-0.7,0-0.7,0-1.4c0-0.6,0-0.6,0-1.2
		c0-0.3,0-0.3,0-0.6c0-0.6-0.2-1.2-0.6-1.7c-0.1,0-0.3,0.1-0.4,0.1c-1.1,0-1.1,0-2.2,0s-1.1,0-2.1,0c-0.7,0-0.7,0-1.3,0
		c-0.5,0-0.5,0-1.1,0c-0.9,0-1.6-0.7-1.6-1.6c0-1.1,0-1.1,0-2.2s0-1.1,0-2.1c0-0.7,0-0.7,0-1.3c0-0.6,0-0.6,0-1.1
		c0-0.4,0.2-0.9,0.5-1.2c0.3-0.3,0.7-0.4,1.1-0.4c1.1,0,1.1,0,2.2,0s1.1,0,2.1,0c0.7,0,0.7,0,1.3,0c0.6,0,0.6,0,1.1,0
		c0.9,0,1.6,0.7,1.6,1.6l0,0c0,1.1,0,1.1,0,2.2s0,1.1,0,2.1c0,0.7,0,0.7,0,1.3c0,0.6,0,0.6,0,1.1c0,0.2-0.1,0.5-0.2,0.7
		c0.3,0.2,0.6,0.2,1,0.2c0.7,0,0.7,0,1.5,0c0.9,0,0.9,0,1.7,0c0.8,0,0.8,0,1.6,0c0.7,0,0.7,0,1.4,0c0.6,0,1.6,0.5,2.2,0.5
		c0.2,0,0.4,0,0.6,0c1.5-0.2,1.7-0.8,1.7-1.6c0-0.7,0-0.7,0-1.5c0-0.9-0.1-0.9-0.1-1.7c0-0.8,0-0.8,0-1.6c0-0.7,0-0.7,0-1.4
		c0-0.6,0-0.6,0-1.2c0-0.3,0.1-0.3,0.1-0.6c0-1,0.7-1.8,1.7-1.8c0.1,0,0.1,0,0.2,0c0.8,0,0.8,0,1.5,0c0.9,0,0.9,0,1.7,0
		c0.8,0,0.8,0,1.6,0h2.6c0.3,0,0.3,0,0.6,0c1.4,0,1.3-1.3,1.3-1.8c0-0.7-0.3-0.5-0.3-1.3c0-0.9-0.4-0.7-0.4-1.6v-1.6
		c0-0.7,0.2-1.7,0.2-2.4c0-0.6-0.2-1.1-0.2-1.7c0-0.3,0-0.3,0-0.6c0-1.3,0.6-2.2-1.8-2.3c-0.5,0-0.7,0-1.5,0c-1.1,0-1.1,0-2.2,0
		c-0.7,0-0.7,0-1.4,0c-0.6,0-0.6,0-1.1,0s-0.9-0.2-1.2-0.5c-0.3-0.3-0.4-0.7-0.4-1.1c0-1.1,0-1.1,0-2.3c0-1.1,0-1.1,0-2.2
		c0-0.7,0-0.7,0-1.4c0-0.6,0-0.6,0-1.2c0-0.9,0.6-1.6,1.5-1.6h0.1c1.1,0,1.1,0,2.3,0c1.1,0,1.1,0,2.2,0c0.7,0,0.7,0,1.4,0
		c0.6,0,0.6,0,1.1,0s0.9,0.2,1.2,0.5c0.3,0.3,0.4,0.7,0.4,1.1c0,1.1,0,1.1,0,2.3c0,1.1,0,1.1,0,2.2c0,0.7,0,0.7,0,1.4
		c0,0.5,0,0.6,0,0.9c0.1,1.3,0.3,2.4,1.3,2.4c0.7,0,0.7,0,1.5,0c0.9,0,0.9,0,1.7,0c0.8,0,0.8,0,1.6,0c0.7,0,0.7,0,1.4,0
		c0.4,0,0.8,0,1.2,0c0.1,0,0.9,0.1,1.2,0.1c0.2,0,0.6,0.2,0.8,0.2c1.7-0.1,1.2-0.7,1.2-1.6c0-0.4,0-0.8,0-1.1c0-0.8,0-0.8,0-1.5
		c0-0.9,0-0.9,0-1.8c0-0.8,0-0.8,0-1.6c0-0.7,0-0.7,0-1.4v-1.2c0-0.3,0.1-0.3,0.1-0.6c0.1-0.6-0.2-1.1-0.7-1.4
		c-0.2,0-0.3,0.1-0.5,0.1c-1,0-1,0-1.9,0s-0.9,0-1.7,0c-0.8,0-0.8,0-1.5,0s-0.7,0-1.3,0c-0.5,0-0.5,0-0.9,0c-0.6,0-1.1-0.3-1.4-0.8
		c-0.2-0.3-0.4-0.7-0.4-1c0-1,0-1,0-1.9s0-0.9,0-1.8c0-0.8,0-0.8,0-1.5s0-0.7,0-1.3c0-0.5,0-0.5,0-0.9c0-0.6,0.3-1.1,0.8-1.4
		c0.3-0.2,0.6-0.3,1-0.3c1,0,1,0,1.9,0s0.9,0,1.7,0c0.8,0,0.8,0,1.5,0s0.7,0,1.3,0c0.5,0,0.5,0,0.9,0c0.6,0,1.2,0,1.5,0.5
		c0.2,0.4,0.2,0.8,0.2,1.3c0,1,0,1,0,1.9s0,0.9,0,1.8c0,0.8,0,0.8,0,1.6c0,0.7,0,0.7,0,1.3c0,0.5,0,0.5,0,0.9c0,0.2-0.1,0.4-0.2,0.6
		c0.5,0.2,0.9,0.4,1.4,0.5c0.8,0,0.8-0.1,1.5-0.1c0.9,0,0.9,0,1.8,0c0.8,0,0.8,0,1.6,0c0.7,0,0.7,0,1.4,0c0.6,0,0.8,0,1.4,0
		c2.2-0.1,3-1.1,3-2.5c-0.2-2,0-2.7,0-6c0-1-0.4-1.4-0.1-2.1c0-0.1-0.1-1.7-1.3-1.6l0,0c-0.1,0-0.3,0.1-0.5,0.1c-1,0-1,0-1.9,0
		s-0.9,0-1.7,0c-0.8,0-0.8,0-1.5,0c-0.6,0-0.6,0-1.3,0c-0.5,0-0.5,0-1,0c-0.6,0.1-1.1-0.1-1.5-0.5c-0.2-0.4-0.3-0.9-0.2-1.3
		c0-1,0-1,0-1.9s0-0.9,0-1.8c0-0.8-0.4-0.4-0.4-1.1s0.4-1.1,0.4-1.7c0-0.5,0-0.5,0-0.9c0-0.6,0.3-1.1,0.8-1.5c0.3-0.2,0.6-0.3,1-0.3
		c1,0,1-0.1,1.9-0.1s0.9,0,1.7,0c0.8,0,0.8,0,1.5,0c0.6,0,0.6,0,1.3,0c0.5,0,1.4-0.3,1.8-0.3c0.6,0,1.5,0.2,1.3,1
		c-0.2,0.4-0.3,0.7-0.4,1.1c0,1,0,1,0,1.9s0,0.9,0,1.8c0,0.8,0,0.8,0,1.5s0,0.7,0,1.3c0,0.1,0,0.2,0,0.2l0,0
		c0.1,1.9,0.4,2.5,2.1,2.6c1,0.1,1.9,0,2.6,0c0.4,0,1.5-0.2,1.5-0.2c1.3,0.1,2.6,0.2,3.8,0.2c2.1-0.2,1.8-1.3,1.8-2.3
		c0-1.1,0.1-1.5,0.2-3c0-0.5-0.1-1.6-0.1-2.3s0-1.4,0-2.2c-0.2-1.1-1.2-1.5-2.8-1.5c-0.1,0-0.3,0-0.4,0c-0.7,0-0.7,0-1.4,0
		c-0.8,0-0.8,0-1.6,0c-0.7,0-0.7,0-1.5,0c-0.6,0-0.6,0-1.3,0c-0.1,0-0.1-0.1-0.3-0.1c-0.5,0-1-0.2-1.3-0.6c-0.3-0.3-0.4-0.8-0.4-1.2
		c0-0.8,0-0.8,0-1.6c0-0.7,0-0.7,0-1.4c0-0.8,0-0.8,0-1.7c0-0.8,0-0.8,0-1.5c0-0.6,0-0.6,0-1.3c0-0.1,0.1-0.1,0.1-0.3
		c0-0.5,0.2-1,0.6-1.3c0.3-0.3,0.7-0.5,1.2-0.5c0.8,0,0.8,0,1.6,0c0.7,0,0.7,0,1.4,0c0.8,0,0.8,0,1.7,0c0.7,0,0.7,0,1.5,0
		c0.6,0,0.6,0,1.3,0c0.1,0,0.1,0.1,0.3,0c1.4-0.1,2.5-1.1,2.6-2.5c0-0.5-0.1-1,0-1.5c0-0.6,0-0.6,0-1.3c0-0.8,0-0.8,0-1.5
		s0-0.7,0-1.4c0-0.6,0-0.6,0-1.1V265c0-0.5-0.5-1.3-0.1-1.7c0.3-0.3,1.5-0.1,1.9-0.1c0.8,0,0.8,0,1.5,0c0.6,0,0.6,0,1.3,0
		c0.8,0,0.8,0,1.5,0s0.7,0,1.3,0c0.4,0,1,0,1.3,0c2.4-0.3,2.9-1.8,2.9-3c0.1-3.6,0-3.7,0-7.3c-0.1-1-0.2-3.1-3.6-2.9
		c-0.1,0-0.1,0-0.2,0c-0.2,0-0.4,0-0.8,0c-0.7,0-0.7,0-1.3,0c-0.8,0-0.8,0-1.6,0c-0.7,0-0.7,0-1.4,0c-0.6,0-0.6,0-1.2,0
		c-0.3,0-0.3,0-0.6,0c-0.5,0-1-0.3-1.2-0.7c-0.1-0.2-0.2-0.5-0.2-0.8v-1.7c0-0.7,0-0.7,0-1.5c0-0.9,0-0.9,0-1.8c0-0.8,0-0.8,0-1.7
		V241c0-0.8,0.7-1.5,1.5-1.5l0,0c0.8,0,0.8,0,1.6,0c0.7,0,0.7,0,1.4,0c0.8,0,0.8,0,1.6,0c0.7,0,0.7,0,1.4,0c0.6,0,0.6,0,1.2,0h0.6
		c0.5,0,1,0.3,1.3,0.7c0.1,0.2,0.2,0.5,0.2,0.8c0,0.8,0,0.8,0,1.7c0,0.7,0,0.7,0,1.5c0,0.9,0,0.9,0,1.8c0,0.8,0,0.8,0,1.7
		c0,0.4,0,0.4,0,0.8c0,0.1,0,0.2,0,0.2c0.1,2,3.5,2.1,4.2,2.1c2.9,0.1,2.9,0,5.7,0c2,0,2.5-0.7,2.6-2.3c0.2-2.5,0.1-5.1-0.3-7.6
		c-0.2-2.2-0.3-2.9-2.6-3.1c-0.3,0-0.5,0-1.1,0c-0.8,0-0.8,0-1.5,0c-0.9,0-0.9,0-1.8,0s-0.9,0-1.7,0c-0.4,0-0.4,0-0.9,0
		c-0.4,0-0.8-0.2-1.1-0.5c-0.2-0.3-0.4-0.6-0.4-1c0-0.9,0-0.9,0-1.8c0-0.8,0-0.8,0-1.6c0-0.7,0-0.7,0-1.4c0-0.6,0-0.6,0-1.2V229
		c0-0.4,0.2-0.8,0.5-1.1s0.6-0.4,1-0.4c0.9,0,0.9,0,1.7,0h1.5c0.9,0,0.9-0.1,1.8-0.1s0.9,0.1,1.7,0.1c0.4,0,0.4,0,0.9,0
		c0.4,0,1.2-0.1,1.5,0.2s0,0.9,0,1.3c0,0.9,0,0.9,0,1.8c0,0.8,0,0.8,0,1.7c0,0.7,0,0.7,0,1.4v1.2c0,0.6,0,0.6,0,1.1v0.1
		c0.2,1.7,0.8,2.1,2.6,2.2c4.1,0.3,4.2-0.3,8.4-0.3c1.7,0,2.5-0.1,2.6-1.5c0.2-3-0.3-3.3-0.3-6.3c0,0-0.2-2.2-0.3-2.9
		s-0.1-1.3-2.9-1.5c-0.2,0-0.3,0-0.7,0c-0.9,0-0.9,0-1.8,0c-0.8,0-0.8,0-1.6,0h-1.4c-0.6,0-0.6,0-1.2,0c-0.4,0-0.4,0-0.9,0
		s-1.3,0.5-1.6,0.2s0-1.3,0-1.8c0-0.8,0-0.8,0-1.6c0-0.7,0-0.7,0-1.4c0-0.8,0-0.8,0-1.7c0-0.8,0.1-0.8,0.1-1.5c0-0.6,0-0.6,0-1.3
		c0-0.2,0-0.2,0-0.4c0-0.5,0.3-1,0.7-1.3c0.3-0.2,0.6-0.3,0.9-0.3c0.8,0,0.8,0,1.5,0c0.9,0,0.9,0,1.8,0c0.8,0,0.8,0,1.6,0
		c0.7,0,0.7-0.1,1.4-0.1c0.6,0,0.6,0.1,1.2,0.1c0.2,0,0.3,0,0.5,0c0,0,0,0,0.1,0c3.2,0,2.3-0.6,2.3-1s0-1.5,0.1-2.5
		c0.1-0.7,0.1-1.4,0-2.2c-0.2-1.4-0.3-2.8-0.2-4.2c0-3.3,0.4-3.2,2.9-3.2c2.9,0,2-0.2,5-0.1c1.7,0.3,3.4-0.3,3.4-2.6
		c0-2.8-0.4-2.1-0.4-4.9c0.2-2.3-1.2-2.9-2.5-2.9c-3.1,0-3.1,0.1-6.2,0.2c-1.6,0-3-1.7-3.2,0.9c0,0.3,0,0.4,0,1c0,0.8,0,0.8,0,1.6
		s0,0.8,0,1.5s0,0.7,0,1.3s0,0.6,0,1.1v0.5c0,0.5-0.2,0.9-0.6,1.2c-0.3,0.2-0.6,0.3-0.9,0.3c-0.9,0-0.9,0-1.8,0c-0.8,0-0.8,0-1.6,0
		c-0.7,0-0.7,0-1.4,0h-1.3c-0.5,0-0.5,0-1.1,0c-0.4,0-0.4,0.1-0.8,0.1c-0.8,0-1.5-0.7-1.5-1.6c0-0.7,0-0.7,0-1.4c0-0.8,0-0.8,0-1.6
		s0-0.8,0-1.5s0-0.7,0-1.3s0-0.6,0-1.1c0-0.2,0-0.2,0-0.5c0-0.4,0.2-0.8,0.5-1c0.3-0.3,0.7-0.5,1.1-0.5h1.8c0.8,0,0.8,0,1.6,0
		c0.7,0,0.7,0,1.4,0c0.6,0,0.6,0,1.3,0c0.3,0,0.4,0,0.5,0c3.8,0,4.1-2.1,4.1-3.6c0.1-3.1-0.5-3.1-0.4-6.2c-0.1-1.1,0.1-2.1,0.4-3.2
		c-0.2,0.2-0.5,0.2-0.8,0.2c-0.9,0-0.9,0-1.8,0c-0.8,0-0.8,0-1.6,0c-0.7,0-0.7,0-1.4,0c-0.6,0-0.6,0-1.2,0c-0.8,0-0.8-0.1-1.5-0.1
		c-0.4,0-0.4,0-0.7,0c-0.5,0-0.9-0.2-1.2-0.6c-0.2-0.3-0.4-0.6-0.4-1c0-0.7,0-0.7,0-1.4v-1.7c0-0.7,0-0.7,0-1.5c0-0.7,0-0.7,0-1.3
		s0-0.6,0-1.1c0-0.4,0-0.4,0-0.8c0-0.5,0.2-0.9,0.6-1.2c0.3-0.2,0.6-0.3,1-0.3c0.9,0,0.9,0,1.8,0c0.8,0,0.8,0,1.6,0h1.4
		c0.6,0,0.6,0,1.2,0c0.8,0,0.8,0,1.5,0c0.4,0,0.4,0.1,0.7,0.1c0.4,0,0.8,0.1,1.1,0.4c0.3,0.3,0.5,0.7,0.5,1.2c0,0.7,0,0.7,0,1.4v1.7
		c0,0.7,0,0.7,0,1.5c0,0.7,0,0.7,0,1.3s0,0.6,0,1.1c0,0.4,0,0.4,0,0.8c0,0.4-0.2,0.8-0.4,1.1l0,0c0.6,0,1.5,1.7,2.5,1.7
		c2.2,0,4.3-0.1,6.5-0.4c0.2,0,1.2-1,1.2-3.5c0-1.6,0-3.3,0.1-4.9c0.1-2,0.2-3.4-3-3.4c-3-0.1-2.5,0.3-5.5,0.2
		c-1.7-0.1-2.3-1.5-2.1-3.8c0.3-2.1,0.3-4.2-0.1-6.2c-0.3-3-0.6-3.3-2.1-3.5c-0.2,0-0.3,0.1-0.5,0.1c-0.7,0-0.7,0-1.5,0
		c-0.6,0-0.6,0-1.3,0c-0.7,0-0.7,0-1.5,0c-0.7,0-0.7,0-1.3,0c-0.6,0-0.6,0-1.1,0H481c-0.5,0-0.9-0.3-1.2-0.7
		c-0.1-0.2-0.2-0.5-0.2-0.8c0-0.8,0-0.8,0-1.6c0-0.7,0-0.7,0-1.4c0-0.8,0-0.8,0-1.7c0-0.8,0-0.8,0-1.5c0-0.4,0-0.4,0-0.9
		s0.3-0.9,0.7-1.2c0.2-0.1,0.5-0.2,0.7-0.2c0.7,0,0.7,0,1.5,0c0.6,0,0.6,0,1.3,0c0.7,0,0.7,0,1.5,0h1.3c0.6,0,0.6,0,1.1,0
		c0.4,0,0.4,0,0.7,0c0.8,0.1,1.4,0.7,1.4,1.4c0,0.8,0,0.8,0,1.6c0,0.7,0,0.7,0,1.4c0,0.8,0,0.8,0,1.7c0.1,3.6,1.6,3.8,4.3,3.7
		c2.8-0.1,2,0.1,4.8-0.1c1.5-0.6,2.7-0.6,2.5-2.7c-0.2-1.6-0.2-3.3,0-4.9c0.2-1.9,0.6-2.5-1.7-2.6c-0.4,0-0.8,0-1.3,0
		c-2.4,0-2.3-0.3-4.7-0.2c-2.1,0-2.8,0.4-2.8-2.7c0-3.8,0.1-3.8,0.1-7.7c0.1-1.9,0.4-2.6,3.7-2.3c1.4,0.1,2.7,0,4.1-0.1
		c2,0,2.5-0.2,2.6-2.7c0-3.3-0.4-2.6-0.2-5.9c0.1-1.6,0.6-2-0.8-2.2c-0.5-0.1-1.8,0.3-2.7,0.2c-2.4-0.1-1.5,0.3-3.9,0.2
		c-1.9,0-2.9-1-2.9-3.3c0-3.9,0-3.9-0.3-7.7c-0.2-2.6-0.3-3.1-2.4-3.3c-0.3,0-0.5,0-1,0c-0.9,0-0.9,0-1.7,0c-0.8,0-0.8,0-1.5,0
		s-0.7,0-1.4,0c-0.6,0-0.6-0.1-1.2-0.1c-0.3,0-0.3,0-0.6,0c-0.5,0-1-0.2-1.3-0.6c-0.2-0.3-0.3-0.6-0.3-0.9c0-0.8,0-0.8,0-1.6V101
		c0-0.8,0-0.8,0-1.6V98c0-0.6,0-0.6,0-1.2c0-0.1,0.1-0.1,0.1-0.3c0-0.4,0.1-0.8,0.4-1.1c0.3-0.3,0.7-0.4,1-0.4c0.7,0,0.7,0,1.5,0
		c0.9,0,0.9,0,1.7,0c0.8,0,0.8,0,1.5,0s0.7,0,1.4,0c0.6,0,0.6,0,1.2,0c0.3,0,0.3,0,0.6,0c0.8,0,1.5,0.7,1.5,1.5s0,0.8,0,1.6
		c0,0.7,0,0.7,0,1.3c0,0.8,0,0.8,0,1.6v1.5c0,0.6,0,0.6,0,1.2c0,0.1,0,0.1,0,0.3c0,0.1,0,0.1,0,0.2c0.1,2.3,1.1,2.3,4,2.3
		c2.3,0,2.4,0.1,4.7,0.1c2.2,0,2.7-0.2,2.7-2.5c-0.1-3.5-0.1-3.1-0.2-6.6c0-2.5,1-2.6-3.3-2.6c-2.3,0-1.7-0.6-4-0.7
		c-2.1-0.1-3.7,0.7-3.7-2c0-0.7,0.2-1.4,0.2-1.9c0-1.6-0.2-2.5-0.1-3.8c0-0.6,0.5-0.8,0.5-1.6c-0.1-1.9,0.2-2.4,3.8-2.4
		c2.9,0,2,0.2,4.9,0.1c1.6,0,2.6,0,2.6-2.1c0.1-1.2,0.1-2.3-0.1-3.5c-0.1-0.3-0.1-0.9-0.1-1.3h-12.3c0.3,0.6,0,0.7,0,1.4
		c0,0.9,0,0.9,0,1.7c0,0.8,0,0.8,0,1.6c0,0.3,0,0.3,0,0.6c0,0.5-0.2,1-0.6,1.3c-0.3,0.2-0.6,0.3-0.9,0.3c-0.7,0-0.7,0-1.4,0
		c-0.8,0-0.8,0-1.6,0c-0.7,0-0.7,0-1.4,0c-0.9,0-0.9,0-1.8,0c-0.6,0-0.6,0-1.1,0s-0.5,0-0.9,0c-0.5,0-1-0.2-1.3-0.6
		c-0.2-0.3-0.3-0.6-0.3-0.9c0-0.7,0-0.7,0-1.4c0-0.9,0-0.9,0-1.7c0-0.8,0-0.8,0-1.6c0-0.3-0.3-0.5,0-0.6l0,0h-13.3
		c0.3,0.7,0,0.8,0,1.5s0,0.7,0,1.4c0,0.6,0,0.6,0,1.2c0,0.4,0,0.4,0,0.7c0,0.4-0.1,0.8-0.4,1s-0.6,0.3-0.9,0.3c-0.8,0-0.8,0-1.7,0
		c-0.7,0-0.7,0-1.5,0c-0.9,0-0.9,0-1.8,0c-0.8,0-0.8,0-1.7,0c-0.3,0-0.3,0-0.6,0c-0.8,0-1.4-0.6-1.4-1.4l0,0c0-0.8,0-0.8,0-1.6v-1.4
		c0-0.6,0-0.6,0-1.2c0-0.3-0.2-0.5-0.1-0.6h-13.7c0.3,0.7,0,0.8,0,1.6c0,0.7,0,0.7,0,1.5c0,0.6,0,0.6,0,1.2c0,0.3,0,0.3,0,0.5
		c0,0.4-0.1,0.8-0.4,1c-0.2,0.2-0.6,0.3-0.9,0.3c-0.8,0-0.8,0-1.7,0c-0.8,0-0.8,0-1.5,0s-0.7,0-1.3,0c-0.8,0-0.8,0-1.6,0
		c-0.4,0-0.4,0-0.9,0c-0.4,0-0.7-0.2-1-0.5c-0.2-0.2-0.3-0.5-0.4-0.9c0-0.8,0-0.8,0-1.6c0-0.7,0-0.7,0-1.5c0-0.6,0-0.6,0-1.2
		c0-0.2-0.1-0.4-0.1-0.4h-13.7c0.3,0.8,0,0.9,0,1.8c0,0.6,0,0.6,0,1.2c0,0.5,0,0.5,0,0.9c0,0.7-0.6,1.3-1.3,1.3c-0.9,0-0.9,0-1.8,0
		c-0.8,0-0.8,0-1.6,0c-0.7,0-0.7,0-1.4,0c-0.6,0-0.6,0-1.2,0c-0.3,0-0.3,0-0.7,0c-0.7,0-1.2-0.5-1.2-1.2l0,0c0-0.9,0-0.9,0-1.8
		c0-0.6,0-0.6,0-1.2c0-0.4-0.3-0.6-0.1-0.9h-15.1c0.3,0.9,0,1,0,1.9c0,0.7,0,0.7,0,1.4c0,0.6-0.5,1.1-1.1,1.1l0,0
		c-0.7,0-0.7,0-1.4,0c-0.9,0-0.9,0-1.8,0h-1.6c-0.4,0-0.4,0-0.9,0c-0.6,0-1.1-0.5-1.1-1.1c0-1,0-1,0-2c0-0.7-0.5-0.9-0.1-1.4H369
		c0.3,0.6,0,0.7,0,1.5c0,0.7,0,0.7,0,1.4c0,0.5-0.4,1-1,1c-0.8,0-0.8,0-1.6,0c-0.7,0-0.7,0-1.3,0c-0.8,0-0.8,0-1.7,0
		c-0.3,0-0.3,0-0.6,0c-0.5,0-1-0.4-1-1l0,0c0-0.8,0-0.8,0-1.5c0-0.6-0.5-0.9-0.1-1.3h-17.9c0.2,0.6,0,0.7,0,1.4c0,0.7,0,0.7,0,1.4
		c0,0.4-0.3,0.7-0.7,0.7l0,0c-0.6,0-0.6,0-1.3,0c-0.8,0-0.8,0-1.6,0c-0.4,0-0.4,0-0.8,0s-0.7-0.3-0.7-0.7v-1.5
		c0-0.6-0.4-0.9-0.1-1.3H76.4v440.9h539.4V75.6H590.3z M479,123.2c0-0.6,0-0.6,0-1.2c0-0.3,0-0.3,0-0.6c0-0.5,0.2-0.9,0.6-1.2
		c0.2-0.2,0.5-0.3,0.8-0.3c0.7,0,0.7,0,1.4,0c0.8,0,0.8,0,1.6,0c0.7,0,0.7,0,1.5,0c0.6,0,0.6,0,1.3,0c0.5,0,0.5,0,1.1,0
		c0.5,0,0.5,0,1,0s0.9,0.2,1.2,0.6c0.2,0.3,0.3,0.6,0.3,0.9v1.5c0,0.6,0,0.6,0,1.3c0,0.8,0,0.8,0,1.5s0,0.7,0,1.4c0,0.6,0,0.6,0,1.2
		c0,0.3,0,0.3,0,0.6c0,0.4-0.1,0.8-0.4,1.1s-0.7,0.4-1.1,0.4c-0.7,0-0.7,0-1.4,0h-1.6c-0.7,0-0.7,0-1.5,0c-0.6,0-0.6,0-1.3,0
		c-0.5,0-0.5,0-1.1,0c-0.5,0-0.5,0-1,0c-0.4,0-0.8-0.2-1.1-0.5c-0.3-0.3-0.4-0.7-0.4-1.1c0-0.7,0-0.7,0-1.5c0-0.6,0.1-0.6,0.1-1.3
		v-1.5C479,123.9,479,123.9,479,123.2L479,123.2z M478,212c0,0.4-0.2,0.9-0.5,1.2c-0.3,0.2-0.6,0.4-1,0.4c-0.8,0-0.8,0-1.7,0
		c-0.7,0-0.7,0-1.4,0c-0.9,0-0.9,0-1.7,0c-0.8,0-0.8,0-1.5,0c-0.6,0-0.6,0-1.3,0c-0.3,0-0.3,0-0.5,0c-0.4,0-0.9-0.2-1.2-0.5
		c-0.3-0.3-0.4-0.6-0.4-1c0-0.9,0-0.9,0-1.8c0-0.8,0-0.8,0-1.6c0-0.9,0-0.9,0-1.9c0-0.9,0-0.9,0-1.7c0-0.4,0-0.4,0-0.7
		c0-0.4,0.2-0.8,0.5-1.1s0.7-0.4,1.1-0.4c0.8,0,0.8,0,1.7,0c0.7,0,0.7,0,1.4,0c0.9,0,0.9,0.1,1.7,0.1c0.8,0,0.8,0,1.5,0s0.7,0,1.3,0
		c0.3,0,0.3,0,0.5,0c0.4,0,0.8,0.2,1.1,0.5c0.3,0.3,0.5,0.7,0.5,1.1c0,0.9,0,0.9,0,1.8c0,0.8,0,0.8,0,1.5c0,0.9,0,0.9,0,1.9
		c0,0.9,0,0.9,0,1.7C478,211.7,478,211.7,478,212L478,212z M477.7,186.2c0,0.5,0,0.5,0,1.1c0,0.4-0.2,0.8-0.5,1s-0.6,0.4-0.9,0.3
		c-0.8,0-0.8,0-1.6,0c-0.7,0-0.7,0-1.4,0c-0.9,0-0.9,0-1.8,0c-0.8,0-0.8,0-1.6,0c-0.4,0-0.4,0-0.8,0s-0.8-0.2-1-0.4
		c-0.2-0.3-0.4-0.6-0.4-1c0-0.9,0-0.9,0-1.7s0-0.8,0-1.6c0-0.7,0-0.7,0-1.4c0-0.6,0-0.6,0-1.1s-0.1-0.5-0.1-1.1c0-0.4,0.2-0.8,0.5-1
		s0.6-0.3,0.9-0.3h1.6c0.7,0,0.7,0,1.5,0c0.9,0,0.9,0,1.8,0c0.8,0,0.8,0,1.6,0h0.8c0.7,0,1.3,0.5,1.4,1.2c0,0.1,0,0.1,0,0.2
		c0,0.9,0.1,0.9,0.1,1.7s0,0.8,0,1.6c0,0.7,0,0.7,0,1.4C477.7,185.7,477.7,185.7,477.7,186.2L477.7,186.2z M467.3,89.1
		c0-0.7,0-0.7,0-1.4c0-0.6,0-0.6,0-1.1s0-0.5,0-1.1c0.1-0.7,0.7-1.3,1.4-1.4c0.8,0,0.8,0,1.6,0c0.7,0,0.7,0,1.4,0c0.9,0,0.9,0,1.8,0
		c0.8,0,0.8,0,1.6,0c0.4,0,0.4,0,0.8,0s0.7,0.2,1,0.4c0.2,0.3,0.4,0.6,0.4,1v1.7c0,0.8,0,0.8,0,1.6c0,0.7,0,0.7,0,1.4
		c0,0.6,0,0.6,0,1.1s0,0.5,0,1.1c0,0.8-0.6,1.4-1.4,1.4h-1.6c-0.7,0-0.7,0-1.4,0c-0.9,0-0.9,0-1.8,0c-0.8,0-0.8,0-1.6,0h-0.8
		c-0.4,0-0.8-0.2-1-0.4c-0.2-0.3-0.4-0.6-0.4-1c0-0.9,0-0.9,0-1.7S467.3,89.9,467.3,89.1z M466.7,113.7c0-0.8,0-0.8,0-1.7
		c0-0.7,0.1-0.7,0.1-1.5c0-0.6,0-0.6,0-1.3c0-0.2,0-0.2,0-0.3c0-0.4,0.2-0.8,0.5-1.1c0.3-0.3,0.7-0.4,1.1-0.4c0.8,0,0.8,0,1.5,0
		c0.9,0,0.9,0,1.8,0c0.8,0,0.8,0,1.6,0c0.7,0,0.7,0,1.4,0c0.6,0,0.6,0,1.2,0c0.4,0,0.4,0,0.8,0s0.8,0.1,1.1,0.4
		c0.3,0.3,0.4,0.7,0.4,1.1c0,0.8,0,0.8,0,1.6c0,0.7,0,0.7,0,1.4c0,0.8,0,0.8,0,1.7c0,0.7,0,0.7,0,1.5c0,0.6,0,0.6,0,1.3
		c0,0.2,0,0.2,0,0.3c0,0.4-0.2,0.8-0.5,1.1c-0.3,0.3-0.7,0.4-1.1,0.4c-0.8,0-0.8,0-1.5,0c-0.9,0-0.9,0-1.7,0h-1.6
		c-0.7,0-0.7,0.1-1.4,0.1c-0.6,0-0.6,0-1.2,0c-0.4,0-0.4,0-0.8,0s-0.8-0.2-1.1-0.5c-0.3-0.3-0.5-0.7-0.5-1.1c0-0.8,0.1-0.8,0.1-1.6
		C466.8,114.4,466.7,114.4,466.7,113.7z M477.4,140.4c0,0.4-0.2,0.7-0.4,1c-0.2,0.3-0.6,0.4-0.9,0.4c-0.8,0-0.8,0-1.6,0
		c-0.7,0-0.7,0-1.4,0c-0.9,0-0.9,0-1.8,0c-0.8,0-0.8,0-1.6,0c-0.4,0-0.4,0-0.8,0s-0.7-0.1-1-0.4c-0.2-0.3-0.4-0.6-0.4-0.9
		c0-0.9,0-0.9,0-1.7s0-0.8,0-1.6c0-0.7,0-0.7,0-1.4c0-0.6,0-0.6,0-1.1s0-0.5,0-1.1c0-0.7,0.6-1.4,1.3-1.4c0,0,0,0,0.1,0
		c0.8,0,0.8,0,1.6,0c0.7,0,0.7,0,1.4,0c0.9,0,0.9,0,1.8,0c0.8,0,0.8,0,1.6,0c0.4,0,0.4,0,0.8,0s0.7,0.2,1,0.4
		c0.2,0.2,0.4,0.6,0.4,0.9c0,0.9,0,0.9,0,1.7s0,0.8,0,1.6c0,0.7,0,0.7,0,1.4c0,0.6,0,0.6,0,1.1C477.3,139.8,477.4,139.8,477.4,140.4
		L477.4,140.4z M466.6,159.6c0-0.7,0-0.7,0-1.5c0-0.6,0-0.6,0-1.3c0-0.2,0-0.2,0-0.3c-0.1-0.8,0.6-1.5,1.4-1.5c0.1,0,0.1,0,0.2,0
		c0.7,0,0.7,0,1.5,0c0.9,0,0.9,0,1.8,0c0.8,0,0.8,0,1.6,0c0.7,0,0.7-0.1,1.4-0.1c0.6,0,0.6,0,1.2,0c0.4,0,0.4,0,0.8,0
		c0.5,0,1,0.2,1.3,0.7c0.2,0.3,0.3,0.6,0.3,0.9c0,0.8,0,0.8,0,1.6c0,0.7,0,0.7,0,1.4c0,0.8,0,0.8,0,1.7v1.5c0,0.6,0,0.6,0,1.3
		c0,0.2,0,0.2,0,0.3c0,0.5-0.3,1-0.7,1.3c-0.3,0.2-0.6,0.2-0.9,0.2c-0.8,0-0.8,0-1.5,0c-0.9,0-0.9,0-1.7,0c-0.8,0-0.8,0-1.6,0h-1.4
		c-0.6,0-0.6,0-1.2,0c-0.4,0-0.4,0-0.8,0c-0.5,0-1-0.3-1.3-0.7c-0.2-0.2-0.3-0.5-0.3-0.9c0-0.8,0.1-0.8,0.1-1.6v-1.4
		C466.7,160.4,466.6,160.4,466.6,159.6z M466.5,223.9v0.7c0,0.4-0.2,0.8-0.5,1.1s-0.6,0.4-1,0.4c-0.9,0-0.9,0-1.8,0c-1,0-1,0-2.1,0
		h-1.4c-0.9,0-0.9,0-1.7,0c-0.5,0-0.5,0-0.9,0c-0.8,0-1.5-0.7-1.5-1.5c0-0.9,0-0.9,0-1.9c0-0.8,0-0.8,0-1.7c0-0.7,0-0.7,0-1.5
		c0-0.9,0-0.9,0-1.8c0-0.3,0-0.3,0-0.7s0.2-0.8,0.5-1.1s0.6-0.4,1-0.4c0.9,0,0.9,0,1.8,0c1,0,1,0,2.1,0c0.7,0,0.7,0,1.4,0h1.7
		c0.5,0,0.5,0,0.9,0s0.8,0.2,1.1,0.5c0.3,0.3,0.4,0.6,0.5,1c0,0.9,0,0.9,0,1.9c0,0.8,0,0.8,0,1.7c0,0.7,0,0.7,0,1.5
		C466.4,223,466.5,223,466.5,223.9L466.5,223.9z M465.5,175.9c0,0.4,0,0.4,0,0.8c0,0.4-0.2,0.8-0.5,1c-0.2,0.2-0.6,0.4-0.9,0.4
		c-0.8,0-0.8,0-1.7,0c-0.7,0-0.7,0-1.5,0c-0.9,0-0.9,0-1.8,0c-0.6,0-0.6,0-1.1,0s-0.6,0-1.1,0c-0.4,0-0.8-0.2-1-0.4
		c-0.2-0.3-0.3-0.6-0.3-0.9c0-0.9,0-0.9,0-1.8c0-0.8,0-0.8,0-1.6c0-0.7,0-0.7,0-1.4c0-0.6,0-0.6,0-1.2c0-0.4,0-0.4,0-0.8
		c0-0.8,0.6-1.4,1.4-1.4h1.7c0.7,0,0.7,0,1.5,0c0.9,0,0.9,0,1.8,0c0.6,0,0.6-0.1,1.1-0.1s0.6,0,1.1,0c0.4,0,0.8,0.2,1,0.5
		c0.2,0.2,0.4,0.6,0.4,0.9c0,0.9,0,0.9,0,1.8c0,0.8,0,0.8,0,1.6v1.4C465.5,175.3,465.5,175.3,465.5,175.9z M466.2,198.2
		c0,0.5,0,0.5,0,1c0,0.4-0.2,0.8-0.4,1c-0.3,0.3-0.6,0.4-1,0.4c-0.8,0-0.8,0-1.6,0c-0.7,0-0.7,0.1-1.4,0.1c-0.8,0-0.8,0-1.7,0
		c-0.8,0-0.8,0-1.5,0c-0.4,0-0.4,0-0.8,0s-0.4,0-0.7,0c-0.8,0-1.4-0.7-1.4-1.5l0,0c0-0.8,0-0.8,0-1.7c0-0.8,0-0.8,0-1.5v-1.8
		c0-0.6,0-0.6,0-1.2c0-0.5,0-0.5,0-1c0-0.4,0.2-0.8,0.4-1c0.3-0.3,0.6-0.4,1-0.4c0.8,0,0.8-0.1,1.6-0.1c0.7,0,0.7,0,1.4,0
		c0.8,0,0.8,0,1.7,0c0.7,0,0.7,0,1.5,0c0.4,0,0.4,0,0.8,0s0.4,0,0.7,0c0.4,0,0.8,0.2,1,0.4c0.3,0.3,0.4,0.7,0.4,1c0,0.9,0,0.9,0,1.7
		v1.5c0,0.9,0,0.9,0,1.8C466.2,197.6,466.2,197.6,466.2,198.2L466.2,198.2z M457,96.4c0.8,0,0.8,0,1.7,0c0.7,0,0.7,0,1.5,0
		c0.9,0,0.9,0,1.8,0c0.6,0,0.6,0,1.1,0s0.6,0,1.1,0c0.4,0,0.8,0.2,1,0.4c0.2,0.3,0.4,0.6,0.4,0.9c0,0.9,0,0.9,0,1.8
		c0,0.8,0,0.8,0,1.6c0,0.7,0,0.7,0,1.4c0,0.6,0,0.6,0,1.2c0,0.4,0,0.4,0,0.8s-0.2,0.8-0.5,1s-0.6,0.3-0.9,0.3c-0.8,0-0.8,0-1.7,0
		c-0.7,0-0.7,0-1.5,0c-0.9,0-0.9,0-1.8,0c-0.6,0-0.6,0-1.1,0s-0.6,0-1.1,0c-0.7,0-1.4-0.6-1.4-1.4l0,0c0-0.9,0-0.9,0-1.8
		c0-0.8,0-0.8,0-1.6c0-0.7,0-0.7,0-1.4c0-0.6,0-0.6,0-1.2c0-0.4,0-0.4,0-0.8C455.6,97,456.2,96.4,457,96.4
		C456.9,96.4,457,96.4,457,96.4L457,96.4z M455.6,121.2c0-0.4,0.2-0.8,0.4-1c0.3-0.2,0.6-0.3,0.9-0.3c0.8,0,0.8,0,1.7,0
		c0.7,0,0.7,0,1.5,0c0.9,0,0.9,0,1.8,0c0.6,0,0.6,0,1.1,0s0.6,0,1.1,0c0.7,0.1,1.3,0.7,1.4,1.4c0,0.9,0,0.9,0,1.8c0,0.8,0,0.8,0,1.6
		c0,0.7,0,0.7,0,1.4c0,0.6,0,0.6,0,1.2c0,0.4,0,0.4,0,0.8s-0.1,0.8-0.4,1s-0.6,0.3-0.9,0.3c-0.8,0-0.8,0-1.7,0c-0.7,0-0.7,0-1.5,0
		c-0.9,0-0.9,0-1.8,0c-0.6,0-0.6,0-1.1,0s-0.6,0-1.1,0c-0.4,0-0.8-0.1-1-0.4c-0.2-0.3-0.4-0.6-0.4-0.9c0-0.9,0-0.9,0-1.8v-1.6
		c0-0.7,0-0.7,0-1.4c0-0.6,0-0.6,0-1.2C455.6,121.6,455.6,121.6,455.6,121.2L455.6,121.2z M455.3,144.8c0-0.8,0.6-1.4,1.4-1.4l0,0
		c0.8,0,0.8,0,1.6,0c0.7,0,0.7,0,1.4,0c0.8,0,0.8,0,1.7,0c0.8,0,0.8,0,1.5,0c0.4,0,0.4,0,0.8,0s0.4,0,0.7,0c0.8,0,1.4,0.7,1.5,1.5
		c0,0.8,0,0.8,0,1.7c0,0.8,0,0.8,0,1.5c0,0.9,0,0.9,0,1.8c0,0.6,0,0.6,0,1.2c0,0.5,0,0.5,0,1c0,0.8-0.6,1.4-1.3,1.5h-0.1
		c-0.8,0-0.8,0-1.6,0c-0.7,0-0.7,0-1.4,0c-0.8,0-0.8,0-1.7,0c-0.8,0-0.8,0-1.5,0c-0.4,0-0.4,0-0.8,0s-0.4,0-0.7,0
		c-0.8,0-1.4-0.6-1.4-1.4l0,0c0-0.8,0-0.8,0-1.7c0-0.8,0-0.8,0-1.5c0-0.9,0-0.9,0-1.8c0-0.6,0-0.6,0-1.2
		C455.3,145.3,455.3,145.3,455.3,144.8L455.3,144.8z M432.9,223.7c0-0.8,0-0.8,0-1.7c0-1,0-1,0-2c0-0.9,0-0.9,0-1.9
		c0-0.4,0-0.4,0-0.7c0-0.7,0.5-1.3,1.2-1.3l0,0c1.1,0,1.1,0,2.1,0s1,0,2,0c0.6,0,0.6,0,1.3,0c0.6,0,0.6,0,1.2,0
		c0.7,0,1.3,0.6,1.3,1.3c0,0.8,0,0.8,0,1.7c0,1,0,1,0,2c0,0.9,0,0.9,0,1.9c0,0.4,0,0.4,0,0.7c0,0.7-0.6,1.3-1.3,1.3
		c-1.1,0-1.1,0-2.1,0s-1,0-2,0c-0.6,0-0.6,0-1.3,0c-0.6,0-0.6,0-1.2,0C433.4,225,432.9,224.4,432.9,223.7L432.9,223.7L432.9,223.7z
		 M454.6,253.3c0,0.7,0,0.7,0,1.4c0,0.8,0,0.8,0,1.6c0,0.7,0,0.7,0,1.4c0,0.6,0,0.6,0,1.3c0,0.5,0,0.5,0,1.1c0,0.3,0,0.3,0,0.7
		c0,0.4-0.2,0.8-0.4,1c-0.3,0.3-0.6,0.5-1,0.5h-1.6c-0.7,0-0.7,0-1.5,0c-0.7,0-0.7-0.1-1.3-0.1c-0.6,0-0.6,0-1.2,0
		c-0.7,0-0.7,0-1.4,0c-0.3,0-0.3,0-0.6,0c-0.5,0-0.9-0.2-1.2-0.5c-0.2-0.3-0.3-0.6-0.3-0.9c0-0.7,0-0.7,0-1.4c0-0.8,0-0.8,0-1.6
		c0-0.7,0.1-0.7,0.1-1.4c0-0.6,0-0.6,0-1.3c0-0.5,0-0.5,0-1.1c0-0.3,0-0.3,0-0.7c0-0.5,0.2-0.9,0.6-1.2c0.2-0.2,0.6-0.3,0.9-0.3
		c0.8,0,0.8,0,1.6,0c0.7,0,0.7,0,1.5,0c0.7,0,0.7,0,1.3,0c0.6,0,0.6,0,1.2,0c0.7,0,0.7,0,1.4,0c0.3,0,0.3,0,0.6,0
		c0.4,0,0.7,0.2,1,0.4C454.5,252.4,454.6,252.8,454.6,253.3L454.6,253.3z M444.2,230.3c0-0.3,0-0.3,0-0.7c0-0.7,0.6-1.3,1.3-1.3
		c0.7,0,0.7,0,1.4,0c0.8,0,0.8,0,1.6,0c0.7,0,0.7,0,1.4,0h2.3c0.7,0,1.3,0.6,1.3,1.3c0,1,0,1,0,2c0,0.9,0,0.9,0,1.9
		c0,0.9,0,0.9,0,1.8v0.7c0,0.7-0.6,1.3-1.3,1.3l0,0c-0.7,0-0.7,0-1.4,0c-0.8,0-0.8,0-1.6,0c-0.7,0-0.7,0-1.4,0c-0.6,0-0.6,0-1.2,0
		s-0.6,0-1.1,0c-0.7,0-1.3-0.6-1.3-1.3c0-1,0-1,0-2c0-0.9,0-0.9,0-1.9C444.3,231.2,444.3,231.2,444.2,230.3L444.2,230.3z M454.1,205
		v2.1c0,1,0,1,0,1.9s0,0.9,0,1.8c0,0.5,0,0.5,0,1c0,0.8-0.6,1.4-1.4,1.4c-1,0-1,0-2,0c-0.9,0-0.9,0-1.8,0c-0.8,0-0.8,0-1.6,0
		c-0.7,0-0.7,0-1.4,0c-0.2,0-0.2,0-0.5,0c-0.8,0-1.4-0.6-1.4-1.4c0-1,0-1,0-2.1c0-1,0-1,0-1.9s0-0.9,0-1.8c0-0.5,0-0.5,0-1
		c0-0.8,0.6-1.4,1.4-1.4c1,0,1,0,2,0c0.9,0,0.9,0,1.8,0c0.8,0,0.8,0,1.6,0c0.7,0,0.7,0,1.4,0h0.5C453.5,203.6,454.1,204.2,454.1,205
		L454.1,205L454.1,205z M453.3,114.6c0,0.6,0,0.6,0,1.2c0,0.3,0,0.3,0,0.7c0,0.7-0.5,1.3-1.3,1.3c-0.9,0-0.9,0-1.8,0
		c-0.8,0-0.8,0-1.6,0c-0.7,0-0.7,0-1.4,0c-0.6,0-0.6,0-1.2,0c-0.4,0-0.4,0-0.7,0c-0.7,0-1.2-0.5-1.3-1.2l0,0c0-0.7,0-0.7,0-1.4
		c0-0.8,0-0.8,0-1.6c0-0.7,0-0.7,0-1.4c0-0.6,0-0.6,0-1.2c0-0.3,0-0.3,0-0.7c0-0.7,0.6-1.3,1.3-1.3c0.9,0,0.9,0,1.8,0
		c0.8,0,0.8,0,1.6,0c0.7,0,0.7,0,1.4,0h1.2c0.4,0,0.4,0,0.7,0c0.7,0,1.3,0.6,1.2,1.3c0,0.7,0,0.7,0,1.4c0,0.8,0,0.8,0,1.6
		C453.3,113.8,453.3,113.8,453.3,114.6L453.3,114.6z M453.3,139.2c0,0.3,0,0.3,0,0.6c0,0.7-0.6,1.3-1.3,1.3l0,0c-0.9,0-0.9,0-1.8,0
		c-0.8,0-0.8,0-1.6,0c-0.7,0-0.7,0-1.4,0c-0.6,0-0.6,0-1.2,0c-0.4,0-0.4,0-0.7,0c-0.7,0-1.3-0.6-1.2-1.3l0,0c0-0.7,0-0.7,0-1.4
		c0-0.8,0-0.8,0-1.6c0-0.7,0-0.7,0-1.4v-1.2c0-0.3,0-0.3,0-0.6c0-0.7,0.6-1.3,1.3-1.3c0.9,0,0.9,0,1.8,0c0.8,0,0.8,0,1.6,0
		c0.7,0,0.7,0,1.4,0c0.6,0,0.6,0,1.2,0c0.4,0,0.4,0,0.7,0c0.7,0,1.3,0.6,1.2,1.3c0,0.7,0,0.7,0,1.4c0,0.8,0,0.8,0,1.6
		c0,0.7,0,0.7,0,1.4C453.3,138.6,453.3,138.6,453.3,139.2L453.3,139.2z M444.1,159.1c0-0.6,0-0.6,0-1.2c0-0.3,0-0.3,0-0.6
		c0-0.7,0.6-1.3,1.3-1.3l0,0c0.9,0,0.9,0,1.8,0c0.8,0,0.8,0,1.6,0c0.7,0,0.7,0,1.4,0c0.6,0,0.6-0.1,1.2-0.1c0.4,0,0.4,0,0.7,0
		c0.7,0,1.3,0.6,1.3,1.3s0,0.7,0,1.4c0,0.8,0,0.8,0,1.6c0,0.7,0,0.7,0,1.4c0,0.6,0,0.6,0,1.2c0,0.3,0,0.3,0,0.6
		c0,0.7-0.6,1.3-1.2,1.3l0,0c-0.9,0-0.9,0-1.8,0c-0.8,0-0.8,0-1.6,0h-1.4c-0.6,0-0.6,0-1.2,0c-0.4,0-0.4,0-0.7,0
		c-0.7,0-1.3-0.6-1.3-1.3l0,0c0-0.7,0-0.7,0-1.4c0-0.8,0-0.8,0-1.6C444.1,159.8,444.1,159.8,444.1,159.1L444.1,159.1z M443.9,85.6
		c0-0.4,0.2-0.8,0.5-1c0.2-0.2,0.5-0.3,0.9-0.3c0.9,0,0.9,0,1.7,0c0.8,0,0.8,0,1.5,0s0.7,0,1.3,0c0.8,0,0.8,0,1.6,0
		c0.4,0,0.4,0,0.9,0c0.7,0,1.3,0.6,1.3,1.3l0,0c0,0.9,0,0.9,0,1.8c0,0.8,0,0.8,0,1.6c0,0.7,0,0.7,0,1.5c0,0.6,0,0.6,0,1.3
		c0,0.2,0,0.2,0,0.4c0,0.4-0.2,0.8-0.4,1c-0.2,0.2-0.5,0.3-0.9,0.3c-0.9,0-0.9,0-1.7,0c-0.8,0-0.8,0-1.5,0c-0.6,0-0.6,0-1.3,0
		c-0.8,0-0.8,0-1.6,0c-0.4,0-0.4,0.1-0.9,0.1c-0.4,0-0.8-0.2-1-0.5c-0.2-0.2-0.3-0.6-0.3-0.9c0-0.9,0-0.9,0-1.8c0-0.8,0-0.8,0-1.6
		c0-0.7,0-0.7,0-1.5c0-0.6,0-0.6,0-1.3C443.9,85.7,443.9,85.7,443.9,85.6L443.9,85.6z M443.6,181.4c0-0.7,0.6-1.3,1.3-1.3l0,0
		c0.9,0,0.9,0,1.9,0c0.9,0,0.9,0,1.7,0c0.8,0,0.8,0,1.5,0s0.7,0,1.3,0c0.2,0,0.2,0,0.4,0c0.7,0,1.3,0.6,1.3,1.3l0,0c0,1,0,1,0,2
		c0,0.9,0,0.9,0,1.9c0,0.9,0,0.9,0,1.7c0,0.4,0,0.4,0,0.9c0,0.7-0.6,1.3-1.3,1.3l0,0c-0.9,0-0.9,0-1.9,0c-0.9,0-0.9,0-1.7,0
		c-0.8,0-0.8,0-1.5,0s-0.7,0-1.3,0c-0.2,0-0.2,0-0.4,0c-0.7,0-1.3-0.6-1.3-1.3l0,0c0-1,0-1,0-2c0-0.9,0-0.9,0-1.9
		c0-0.9,0.1-0.9,0.1-1.7C443.7,181.8,443.6,181.8,443.6,181.4L443.6,181.4z M443.7,265.2c0,0.7,0,0.7,0,1.4c0,0.8,0,0.8,0,1.6
		c0,0.7,0,0.7,0,1.4c0,0.6,0,0.6,0,1.3c0,0.5,0,0.5,0,1.1c0,0.3,0,0.3,0,0.7c0,0.4-0.2,0.8-0.4,1c-0.3,0.3-0.6,0.5-1,0.5h-1.6
		c-0.8,0-0.8,0-1.5,0s-0.7-0.1-1.3-0.1c-0.6,0-0.6,0-1.2,0c-0.7,0-0.7,0-1.4,0c-0.3,0-0.3,0-0.6,0c-0.5,0-0.9-0.2-1.2-0.5
		c-0.2-0.3-0.3-0.6-0.3-0.9c0-0.7,0-0.7,0-1.4c0-0.8,0-0.8,0-1.6c0-0.7,0.1-0.7,0.1-1.4c0-0.6,0-0.6,0-1.3c0-0.5,0-0.5,0-1.1
		c0-0.3,0-0.3,0-0.7c0-0.5,0.2-0.9,0.6-1.2c0.2-0.2,0.6-0.3,0.9-0.3c0.8,0,0.8,0,1.6,0c0.8,0,0.8,0,1.5,0s0.7,0,1.3,0
		c0.6,0,0.6,0,1.2,0c0.7,0,0.7,0,1.4,0c0.3,0,0.3,0,0.6,0c0.4,0,0.7,0.2,1,0.4C443.5,264.4,443.7,264.8,443.7,265.2L443.7,265.2z
		 M442.7,241.6c0,0.7,0,0.7,0,1.4c0,0.8,0,0.8,0,1.6c0,0.7,0,0.7,0,1.4c0,0.6,0,0.6,0,1.2c0,0.5,0,0.5,0,0.9c0,0.7-0.6,1.3-1.3,1.3
		l0,0c-0.9,0-0.9,0-1.8,0c-0.8,0-0.8,0-1.6,0c-0.7,0-0.7,0-1.4,0c-0.6,0-0.6,0-1.2,0c-0.5,0-0.5,0-1,0c-0.7,0-1.3-0.6-1.3-1.3l0,0
		c0-0.7,0-0.7,0-1.4c0-0.8,0-0.8,0-1.6c0-0.7,0-0.7,0-1.4c0-0.6,0-0.6,0-1.2c0-0.5,0-0.5,0-0.9c0-0.7,0.6-1.3,1.3-1.3
		c0.9,0,0.9,0,1.8,0c0.8,0,0.8,0,1.6,0c0.7,0,0.7,0,1.4,0c0.6,0,0.6,0,1.2,0c0.5,0,0.5,0,1,0C442.2,240.3,442.7,240.8,442.7,241.6
		L442.7,241.6L442.7,241.6z M441.7,171.9c0,0.9,0,0.9,0,1.8c0,0.8,0,0.8,0,1.6c0,0.4,0,0.4,0,0.9c0,0.6-0.5,1.1-1.1,1.2l0,0
		c-0.9,0-0.9,0-1.9,0c-0.9,0-0.9,0-1.8,0c-0.8,0-0.8,0-1.6,0c-0.4,0-0.4,0-0.8,0c-0.6,0-1.1-0.5-1.1-1.1l0,0v-1.5c0-0.9,0-0.9,0-1.8
		c0-0.8,0-0.8,0-1.6v-0.9c0-0.6,0.5-1.2,1.1-1.2l0,0c0.9,0,0.9,0,1.9,0c0.9,0,0.9,0,1.8,0c0.8,0,0.8,0,1.6,0c0.4,0,0.4,0,0.8,0
		c0.6,0,1.1,0.5,1.1,1.1l0,0C441.7,171.1,441.7,171.1,441.7,171.9L441.7,171.9z M433,100c0-0.8,0-0.8,0-1.7c0-0.3,0-0.3,0-0.6
		c0-0.6,0.5-1.1,1.1-1.1l0,0c1,0,1,0,1.9,0s0.9,0,1.8,0c0.6,0,0.6,0,1.1,0s0.5,0,1.1,0s1.1,0.5,1.1,1.1v1.5c0,0.9,0,0.9,0,1.8
		c0,0.8,0,0.8,0,1.7c0,0.3,0,0.3,0,0.6c0,0.6-0.5,1.1-1.1,1.1l0,0c-1,0-1,0-1.9,0s-0.9,0-1.8,0c-0.6,0-0.6,0-1.1,0s-0.5,0-1.1,0
		s-1.1-0.5-1.1-1.1c0-0.7,0-0.7,0-1.5C433,100.9,433,100.9,433,100L433,100z M441.2,126.8v0.6c0,0.6-0.5,1.1-1.1,1.1l0,0
		c-1,0-1,0-1.9,0s-0.9,0-1.8,0c-0.6,0-0.6,0-1.1,0s-0.5,0-1.1,0s-1.1-0.5-1.1-1.1l0,0c0-0.7,0-0.7,0-1.5c0-0.9,0-0.9,0-1.8v-1.7
		c0-0.3,0-0.3,0-0.6c0-0.6,0.5-1.1,1.1-1.1c1,0,1,0,1.9,0s0.9,0,1.8,0h1.1c0.5,0,0.5,0,1.1,0s1.1,0.5,1.1,1.1l0,0c0,0.7,0,0.7,0,1.5
		c0,0.9,0,0.9,0,1.8C441.2,126,441.1,126,441.2,126.8L441.2,126.8z M433.9,145.1c1,0,1,0,2,0c0.9,0,0.9,0,1.9,0c0.6,0,0.6,0,1.2,0
		s0.6,0,1.1,0c0.7,0,1.2,0.5,1.2,1.2c0,0.8,0,0.8,0,1.6c0,0.9,0,0.9,0,1.9c0,0.9,0,0.9,0,1.8c0,0.3,0,0.3,0,0.7
		c0,0.7-0.5,1.2-1.2,1.2c-1,0-1,0-2,0c-0.9,0-0.9,0-1.9,0c-0.6,0-0.6,0-1.2,0s-0.6,0-1.1,0c-0.7,0-1.2-0.5-1.2-1.2l0,0
		c0-0.8,0-0.8,0-1.6c0-0.9,0-0.9,0-1.9c0-0.9,0-0.9,0-1.8c0-0.3,0-0.3,0-0.7C432.7,145.6,433.3,145.1,433.9,145.1L433.9,145.1
		L433.9,145.1z M432.2,195.3c0-0.6,0-0.6,0-1.2c0-0.4,0-0.4,0-0.9c0-0.8,0.6-1.4,1.4-1.3l0,0c0.8,0,0.8,0,1.7,0c0.7,0,0.7,0,1.5,0
		c0.9,0,0.9,0,1.8,0c0.8,0,0.8,0,1.6,0c0.3,0,0.3,0,0.7,0c0.7,0,1.4,0.6,1.4,1.3l0,0c0,0.9,0,0.9,0,1.8c0,0.8,0,0.8,0,1.6
		c0,0.7,0,0.7,0,1.4c0,0.6,0.1,0.6,0,1.2c0,0.4,0,0.4,0,0.9c0,0.7-0.6,1.3-1.3,1.4l0,0c-0.8,0-0.8,0-1.7,0c-0.7,0-0.7,0-1.5,0
		c-0.9,0-0.9,0-1.8,0c-0.8,0-0.8,0-1.7,0c-0.3,0-0.3,0-0.7,0c-0.8,0-1.4-0.6-1.4-1.4c0-0.9,0-0.9,0-1.8c0-0.8,0-0.8,0-1.6
		C432.2,196,432.2,196,432.2,195.3z M431,276.9c0,1.1-0.1,1.1-0.1,2.2c0,1,0,1,0,2c0,0.9,0,0.9,0,1.9c0,0.4,0,0.4,0,0.8
		c0,0.8-0.6,1.4-1.4,1.4c-0.7,0-0.7,0-1.5,0c-0.9,0-0.9,0-1.8,0c-0.8,0-0.8,0-1.5,0c-0.6,0-0.6,0-1.3,0c-0.6,0-0.6,0-1.2,0
		c-0.7,0-1.3-0.6-1.4-1.3l0,0c0-1.1,0-1.1,0-2.2c0-1-0.1-1-0.1-2c0-0.9,0-0.9,0-1.9c0-0.4,0-0.4,0-0.8c0-0.8,0.6-1.4,1.4-1.4
		s0.8,0,1.5,0c0.9,0,0.9,0,1.8,0c0.8,0,0.8,0,1.5,0c0.6,0,0.6,0,1.3,0c0.6,0,0.6,0,1.2,0C430.3,275.5,431,276.2,431,276.9L431,276.9
		z M429.8,234.3c0,0.5,0,0.5,0,1.1c0,0.7-0.6,1.2-1.2,1.2c-1.1,0-1.1,0-2.1,0s-1,0-2,0c-0.6,0-0.6,0-1.3,0c-0.5,0-0.5,0-1,0
		c-0.7,0-1.2-0.5-1.2-1.2l0,0c0-0.8,0-0.8,0-1.7c0-1,0-1,0-2c0-0.6,0-0.6,0-1.3c0-0.5,0-0.5,0-1.1c0-0.7,0.6-1.2,1.2-1.2
		c1.1,0,1.1,0,2.1,0s1,0,2,0c0.7,0,0.7,0,1.3,0c0.5,0,0.5,0,0.9,0c0.7,0,1.2,0.6,1.2,1.2c0,0.8,0,0.8,0,1.7v2
		C429.8,233.7,429.7,233.7,429.8,234.3L429.8,234.3z M429.3,210.6c0,0.5,0,0.5,0,1c0,0.6-0.5,1.1-1.1,1.1l0,0c-0.8,0-0.8,0-1.6,0h-2
		c-0.6,0-0.6,0-1.3,0c-0.5,0-0.5,0-1,0c-0.6,0-1.1-0.5-1.1-1.1l0,0c0-0.9,0-0.9,0-1.7s0-0.8,0-1.5c0-0.6,0-0.6,0-1.3
		c0-0.5,0-0.5,0-1c0-0.6,0.5-1.1,1.1-1.2l0,0c0.8,0,0.8,0,1.6,0c1,0,1,0,2,0c0.6,0,0.6,0,1.3,0c0.5,0,0.5,0,1,0
		c0.6,0,1.1,0.5,1.1,1.1l0,0c0,0.9,0,0.9,0,1.7s0,0.8,0,1.5C429.3,209.9,429.3,209.9,429.3,210.6L429.3,210.6z M429.5,185.2
		c0,0.9,0,0.9,0,1.8c0,0.3,0,0.3,0,0.6c0,0.7-0.5,1.2-1.2,1.2c-1,0-1,0-2,0c-0.9,0-0.9,0-1.9,0c-0.6,0-0.6,0-1.2,0s-0.6,0-1.2,0
		c-0.7,0-1.2-0.6-1.2-1.2c0-0.8,0-0.8,0-1.6c0-0.9,0-0.9,0-1.9c0-0.9,0-0.9,0-1.8v-0.6c0-0.7,0.5-1.2,1.1-1.2l0,0c1,0,1,0,2,0
		c0.9,0,0.9,0,1.9,0c0.6,0,0.6,0,1.2,0s0.6,0,1.2,0c0.7,0,1.2,0.6,1.2,1.2c0,0.8,0,0.8,0,1.6C429.5,184.2,429.5,184.2,429.5,185.2
		L429.5,185.2z M428.8,114.7c0,0.3,0,0.3,0,0.6c0,0.6-0.5,1.1-1.1,1.1h-1.9c-0.9,0-0.9,0-1.8,0c-0.6,0-0.6,0-1.1,0s-0.5,0-1.1,0
		s-1.1-0.5-1.1-1.1l0,0c0-0.7,0-0.7,0-1.5c0-0.9,0-0.9,0-1.8c0-0.8,0-0.8,0-1.7c0-0.3,0-0.3,0-0.6c0-0.6,0.5-1.1,1.1-1.1
		c1,0,1,0,1.9,0h1.8c0.6,0,0.6,0,1.1,0s0.5,0,1.1,0s1.1,0.5,1.1,1.1l0,0v1.5c0,0.9,0,0.9,0,1.8S428.8,113.9,428.8,114.7L428.8,114.7
		z M421.7,133.6c1,0,1,0,1.9,0s0.9,0,1.8,0c0.6,0,0.6,0,1.1,0h1.1c0.6,0,1.1,0.5,1.1,1.1c0,0.7,0,0.7,0,1.5c0,0.9,0,0.9,0,1.8
		c0,0.8,0,0.8,0,1.7c0,0.3,0,0.3,0,0.6c0,0.6-0.5,1.1-1.1,1.1l0,0c-1,0-1,0-1.9,0s-0.9,0-1.8,0c-0.6,0-0.6,0-1.1,0s-0.5,0-1.1,0
		s-1.1-0.5-1.1-1.1l0,0c0-0.7,0-0.7,0-1.5c0-0.9,0-0.9,0-1.8c0-0.8,0-0.8,0-1.7c0-0.3,0-0.3,0-0.6
		C420.6,134.1,421.1,133.6,421.7,133.6L421.7,133.6z M429.4,158.2c0,0.8,0,0.8,0,1.7c0,0.7,0,0.7,0,1.5c0,0.6,0,0.6,0,1.2
		c0,0.5,0,0.5,0,1c0,0.6-0.5,1.1-1.1,1.1l0,0h-1.6c-1,0-1,0-1.9,0c-0.6,0-0.6,0-1.2,0c-0.5,0-0.5,0-1,0c-0.6,0-1.1-0.5-1.1-1.1l0,0
		c0-0.8,0-0.8,0-1.7c0-0.7,0-0.7,0-1.5c0-0.6,0-0.6,0-1.2c0-0.5,0-0.5,0-1c0-0.6,0.5-1.1,1.1-1.1l0,0c0.8,0,0.8,0,1.6,0
		c1,0,1,0,1.9,0c0.6,0,0.6,0,1.2,0c0.5,0,0.5,0,1,0C428.9,157.1,429.4,157.6,429.4,158.2L429.4,158.2L429.4,158.2z M420.6,86.3
		c0-0.6,0.5-1.1,1.1-1.1l0,0c1,0,1,0,1.9,0s0.9,0,1.8,0c0.6,0,0.6,0,1.1,0s0.5,0,1.1,0s1.1,0.5,1.1,1.1c0,0.7,0,0.7,0,1.5v1.8
		c0,0.8,0,0.8,0,1.7c0,0.3,0,0.3,0,0.6c0,0.6-0.5,1.1-1.1,1.1c-1,0-1,0-1.9,0s-0.9,0-1.8,0c-0.6,0-0.6,0-1.1,0s-0.5,0-1.1,0
		s-1.1-0.5-1.1-1.2s0-0.7,0-1.5c0-0.9,0-0.9,0-1.8c0-0.8,0-0.8,0-1.7C420.6,86.7,420.6,86.7,420.6,86.3z M420.3,255.9
		c0-0.9,0-0.9,0-1.8c0-0.3,0-0.3,0-0.7c0-0.7,0.6-1.3,1.3-1.3c0.7,0,0.7,0,1.4,0c0.8,0,0.8,0,1.6,0c0.7,0,0.7,0,1.4,0
		c0.6,0,0.6,0,1.2,0s0.6,0,1.1,0c0.7,0,1.2,0.6,1.2,1.2l0,0c0,1,0,1,0,2c0,0.9,0,0.9,0,1.9c0,0.9,0,0.9,0,1.8c0,0.3,0,0.3,0,0.7
		c0,0.7-0.6,1.3-1.3,1.3l0,0c-0.7,0-0.7,0-1.4,0c-0.8,0-0.8,0-1.6,0c-0.7,0-0.7,0-1.4,0h-2.3c-0.7,0-1.3-0.6-1.3-1.3c0-1,0-1,0-2
		C420.4,256.9,420.3,256.9,420.3,255.9L420.3,255.9z M418.2,267.5c0,1,0,1,0,1.9c0,0.6,0,0.6,0,1.2c0,0.5,0,0.5,0,1
		c0,0.6-0.5,1.2-1.2,1.2c-1,0-1,0-2,0s-1,0-1.9,0c-0.6,0-0.6,0-1.2,0c-0.5,0-0.5,0-1,0c-0.6,0-1.2-0.5-1.2-1.2l0,0
		c0-0.8,0-0.8,0-1.6c0-1,0-1,0-1.9c0-0.6,0-0.6,0-1.2c0-0.5,0-0.5,0-1c0-0.6,0.5-1.2,1.2-1.2c1,0,1,0,2,0s1,0,1.9,0
		c0.6,0,0.6,0,1.2,0c0.5,0,0.5,0,1,0c0.6,0,1.2,0.5,1.2,1.2l0,0C418.2,266.7,418.2,266.7,418.2,267.5L418.2,267.5z M409.8,219.8
		c0-0.6,0-0.6,0-1.1s0.4-1,1-1l0,0c0.9,0,0.9,0,1.8,0c0.8,0,0.8,0,1.7,0s0.8,0,1.6,0c0.5,0,1,0.4,1,1l0,0c0,1,0,1,0,1.9s0,0.9,0,1.8
		v1.1c0,0.5-0.4,1-1,1l0,0h-1.8c-0.8,0-0.8,0-1.7,0s-0.8,0-1.6,0c-0.5,0-1-0.4-1-1c0-1,0-1,0-1.9
		C409.8,220.7,409.8,220.7,409.8,219.8L409.8,219.8z M418,241.8c0,1.1,0,1.1,0,2.1s0,1,0,1.9c0,0.7,0,0.7,0,1.3s-0.5,1.1-1.1,1.1
		l0,0c-1,0-1,0-2,0c-1.2,0-1.2,0-2.5,0c-0.6,0-0.6,0-1.3,0c-0.6,0-1-0.5-1.1-1l0,0c0-1.1,0-1.1,0-2.1s0-1,0-1.9v-1.3
		c0-0.6,0.5-1.1,1.1-1.1c1,0,1,0,2,0c1.2,0,1.2,0,2.5,0c0.6,0,0.6,0,1.3,0C417.5,240.7,417.9,241.2,418,241.8
		C417.9,241.8,417.9,241.8,418,241.8L418,241.8z M410,170.5c0-0.5,0.4-1,1-1c0.8,0,0.8,0,1.7,0c0.7,0,0.7,0,1.5,0c0.6,0,0.6,0,1.3,0
		c0.4,0,0.4,0,0.7,0c0.5,0,1,0.4,1,1l0,0v1.8c0,0.8,0,0.8,0,1.6c0,0.7,0,0.7,0,1.5c0,0.5-0.4,1-0.9,1l0,0c-0.8,0-0.8,0-1.7,0H413
		h-1.3c-0.4,0-0.4,0-0.7,0c-0.5,0-1-0.5-1-1c0-0.9,0-0.9,0-1.8c0-0.8,0-0.8,0-1.6S410,171.2,410,170.5L410,170.5z M416.4,152.5
		c-0.8,0-0.8,0-1.6,0c-1,0-1,0-1.9,0h-1.2c-0.5,0-0.5,0-0.9,0c-0.6,0-1.1-0.5-1.1-1l0,0c0-0.8,0-0.8,0-1.7c0-0.7,0-0.7,0-1.5
		c0-0.6,0-0.6,0-1.2c0-0.5,0-0.5,0-1c0-0.6,0.5-1.1,1.1-1.1l0,0c0.8,0,0.8,0,1.6,0c1,0,1,0,1.9,0c0.6,0,0.6,0,1.2,0
		c0.5,0,0.5,0,0.9,0c0.6,0,1.1,0.5,1.1,1.1l0,0c0,0.8,0,0.8,0,1.7c0,0.7,0,0.7,0,1.5c0,0.6,0,0.6,0,1.2c0,0.5,0,0.5,0,1
		C417.4,152,416.9,152.5,416.4,152.5L416.4,152.5z M417.4,126.7c0,0.5,0,0.5,0,1c0,0.6-0.5,1.1-1.1,1.1c-0.8,0-0.8,0-1.6,0
		c-1,0-1,0-1.9,0h-1.2c-0.5,0-0.5,0-0.9,0c-0.6,0-1-0.5-1-1.1l0,0c0-0.8,0-0.8,0-1.7c0-0.7,0-0.7,0-1.5c0-0.6,0-0.6,0-1.2
		c0-0.5,0-0.5,0-1c0-0.6,0.5-1.1,1.1-1.1c0.8,0,0.8,0,1.6,0c1,0,1,0,1.9,0c0.6,0,0.6,0,1.2,0c0.5,0,0.5,0,0.9,0
		c0.6,0,1.1,0.5,1.1,1.1l0,0c0,0.8,0,0.8,0,1.7c0,0.7,0,0.7,0,1.5C417.4,126.1,417.4,126.1,417.4,126.7L417.4,126.7z M409.6,97.3
		c0-0.6,0.5-1.1,1.1-1.1l0,0c0.8,0,0.8,0,1.6,0c1,0,1,0,1.9,0h1.2c0.5,0,0.5,0,0.9,0c0.6,0,1.1,0.5,1.1,1.1c0,0.8,0,0.8,0,1.7
		c0,0.7,0,0.7,0,1.5c0,0.6,0,0.6,0,1.2c0,0.5,0,0.5,0,1c0,0.6-0.5,1.1-1.1,1.1c-0.8,0-0.8,0-1.6,0c-1,0-1,0-1.9,0
		c-0.6,0-0.6,0-1.2,0h-0.9c-0.6,0-1.1-0.5-1-1.1l0,0c0-0.8,0-0.8,0-1.7c0-0.7,0-0.7,0-1.5c0-0.6,0-0.6,0-1.2
		C409.6,97.8,409.6,97.8,409.6,97.3L409.6,97.3z M410.1,192.2c0.9,0,0.9,0,1.9,0c0.9,0,0.9,0,1.8,0c0.8,0,0.8,0,1.6,0
		c0.4,0,0.4,0,0.8,0c0.6,0,1.2,0.5,1.2,1.2s0,0.7,0,1.5c0,0.9,0,0.9,0,1.8c0,0.8,0,0.8,0,1.6c0,0.4,0,0.4,0,0.9
		c0,0.6-0.5,1.2-1.1,1.2l0,0c-0.9,0-0.9,0-1.9,0c-0.9,0-0.9,0-1.8,0c-0.8,0-0.8,0-1.6,0h-0.8c-0.6,0-1.1-0.5-1.1-1.2l0,0
		c0-0.7,0-0.7,0-1.5c0-0.9,0-0.9,0-1.8c0-0.8,0-0.8,0-1.6c0-0.4,0-0.4,0-0.9C408.9,192.8,409.4,192.3,410.1,192.2L410.1,192.2z
		 M408.7,291.3c0-0.6,0-0.6,0-1.1s0-0.6,0-1.1c0-0.4,0.1-0.8,0.4-1s0.6-0.4,1-0.4c0.8,0,0.8,0,1.6,0c0.7,0,0.7,0,1.4,0
		c0.9,0,0.9,0,1.7,0c0.8,0,0.8,0,1.6,0c0.5,0,0.5,0,0.9,0s0.8,0.1,1,0.4s0.4,0.6,0.4,1c0,0.9,0,0.9,0,1.7c0,0.8,0,0.8,0,1.6
		c0,0.7,0,0.7,0,1.4c0,0.6,0,0.6,0,1.1s0,0.6,0,1.1c0,0.4-0.1,0.8-0.4,1s-0.6,0.4-1,0.4c-0.8,0-0.8,0-1.6,0c-0.7,0-0.7,0-1.4,0
		c-0.9,0-0.9,0-1.7,0c-0.8,0-0.8,0-1.6,0c-0.5,0-0.5,0-0.9,0c-0.8,0-1.4-0.6-1.4-1.4c0,0,0,0,0-0.1c0-0.9-0.1-0.9-0.1-1.7
		c0-0.8,0-0.8,0-1.6C408.7,291.9,408.7,291.9,408.7,291.3L408.7,291.3z M407.4,325.4c0.3,0.3,0.4,0.7,0.5,1.1c0,1.1,0,1.1,0,2.2
		c0,1,0,1,0,2.1c0,0.7,0,0.7,0,1.3c0,0.5,0,0.5,0,1.1c0,0.9-0.7,1.6-1.5,1.6c-1.1,0-1.1,0-2.2,0c-1,0-1,0-2,0c-0.7,0-0.7,0-1.3,0
		c-0.5,0-0.5,0-1.1,0c-0.8,0-1.5-0.7-1.5-1.5v-0.1V331c0-1,0-1,0-2.1c0-0.6,0-0.6,0-1.3v-1.1c0-0.9,0.7-1.6,1.6-1.6
		c1.1,0,1.1,0.1,2.2,0.1c1,0,1,0,2,0c0.7,0,0.7,0,1.3,0c0.5,0,0.5,0,1.1,0C406.7,324.9,407.1,325,407.4,325.4L407.4,325.4z
		 M405.6,230.1c0,1,0,1,0,2c0,0.9,0,0.9,0,1.8c0,0.6,0,0.6,0,1.2c0,0.6-0.4,1-1,1l0,0c-0.9,0-0.9,0-1.9,0c-0.8,0-0.8,0-1.7,0
		s-0.8,0-1.7,0c-0.5,0-1-0.4-1-1l0,0c0-1,0-1,0-2c0-0.9,0-0.9,0-1.8c0-0.6,0-0.6,0-1.2c0-0.6,0.4-1,1-1c0.9,0,0.9,0,1.9,0
		c0.8,0,0.8,0,1.7,0s0.8,0,1.7,0C405.1,229.1,405.6,229.6,405.6,230.1L405.6,230.1z M405.4,258.9c0,0.5-0.4,0.9-0.9,0.9
		c-1,0-1,0-1.9,0s-0.9,0-1.8,0h-1c-0.5,0-0.9-0.4-0.9-0.9c0-1,0-1,0-2c0-0.6,0-0.6,0-1.3c0-0.6,0-0.6,0-1.1s0.4-0.9,0.9-0.9l0,0
		c1,0,1,0,1.9,0s0.9,0,1.8,0c0.5,0,0.5,0,1,0s0.9,0.4,0.9,0.9l0,0c0,1,0,1,0,2c0,0.6,0,0.6,0,1.3
		C405.4,258.3,405.4,258.3,405.4,258.9L405.4,258.9z M405.2,115c0,0.5-0.4,0.9-0.9,0.9l0,0c-0.8,0-0.8,0-1.6,0c-0.7,0-0.7,0-1.4,0
		c-0.6,0-0.6,0-1.2,0c-0.3,0-0.3,0-0.6,0c-0.5,0-0.9-0.4-0.9-0.9l0,0c0-0.8,0-0.8,0-1.6v-1.5c0-0.6,0-0.6,0-1.3
		c0-0.5,0.4-0.9,0.9-0.9l0,0c0.8,0,0.8,0,1.6,0c0.7,0,0.7,0,1.4,0c0.6,0,0.6,0,1.2,0h0.6c0.5,0,0.9,0.4,0.9,0.9c0,0.8,0,0.8,0,1.6
		c0,0.8,0,0.8,0,1.5C405.1,114.4,405.1,114.4,405.2,115L405.2,115z M405.1,211c0,0.4-0.3,0.8-0.8,0.8l0,0c-0.9,0-0.9,0-1.8,0
		c-0.8,0-0.8,0-1.7,0h-0.6c-0.4,0-0.8-0.3-0.8-0.8l0,0c0-0.7,0-0.7,0-1.3c0-0.8,0-0.8,0-1.6c0-0.4,0-0.4,0-0.9
		c0-0.4,0.4-0.8,0.8-0.8c0.9,0,0.9,0,1.8,0c0.8,0,0.8,0,1.7,0c0.3,0,0.3,0,0.6,0c0.4,0,0.8,0.3,0.8,0.8l0,0c0,0.7,0,0.7,0,1.3
		c0,0.8,0,0.8,0,1.6C405.1,210.6,405.1,210.6,405.1,211L405.1,211z M399.4,132.9h3.3c0.6,0,0.6,0,1.2,0c0.5,0,0.8,0.4,0.8,0.9
		c0,0.9,0,0.9,0,1.8v1.7c0,0.3,0,0.3,0,0.7c0,0.5-0.4,0.8-0.8,0.9l0,0c-0.9,0-0.9,0-1.7,0c-0.8,0-0.8,0-1.6,0c-0.6,0-0.6,0-1.1,0
		s-0.8-0.4-0.8-0.8l0,0c0-0.9,0-0.9,0-1.8c0-0.8,0-0.8,0-1.7v-0.7C398.6,133.3,399,132.9,399.4,132.9L399.4,132.9z M404.6,183.9
		c0,0.8,0,0.8,0,1.7c0,0.4,0,0.4,0,0.8c0,0.5-0.4,0.9-0.9,0.9c-0.9,0-0.9,0-1.7,0c-0.8,0-0.8,0-1.6,0c-0.6,0-0.6,0-1.2,0
		c-0.5,0-0.9-0.4-0.9-0.9c0-0.9,0-0.9,0-1.8c0-0.8,0-0.8,0-1.7v-0.8c0-0.5,0.4-0.9,0.9-0.9h1.7c0.8,0,0.8,0,1.6,0c0.6,0,0.6,0,1.2,0
		c0.5,0,0.8,0.4,0.8,0.9C404.6,183,404.6,183,404.6,183.9L404.6,183.9z M398.5,86.4c0-0.5,0.4-0.9,0.9-0.9l0,0c0.8,0,0.8,0,1.6,0
		c0.7,0,0.7,0,1.4,0c0.6,0,0.6,0,1.2,0c0.3,0,0.3,0,0.6,0c0.5,0,0.9,0.4,0.9,0.9c0,0.8,0,0.8,0,1.7c0,0.8,0,0.8,0,1.5s0,0.7,0,1.3
		c0,0.5-0.4,0.9-0.9,0.9l0,0c-0.8,0-0.8,0-1.6,0c-0.7,0-0.7,0-1.4,0c-0.6,0-0.6,0-1.2,0c-0.3,0-0.3,0-0.6,0c-0.5,0-0.9-0.4-0.9-0.9
		l0,0c0-0.8,0-0.8,0-1.7c0-0.8,0-0.8,0-1.5V86.4z M397.8,158.9c0-0.5,0.4-0.9,0.9-1h1.6c0.7,0,0.7,0,1.4,0c0.6,0,0.6,0,1.2,0
		c0.3,0,0.3,0,0.7,0c0.5,0,0.9,0.4,0.9,0.9l0,0c0,0.8,0,0.8,0,1.7c0,0.8,0,0.8,0,1.5s0,0.7,0,1.4c0,0.5-0.4,0.9-0.9,0.9l0,0
		c-0.8,0-0.8,0-1.6,0c-0.7,0-0.7,0-1.4,0c-0.6,0-0.6,0-1.2,0c-0.3,0-0.3,0-0.7,0c-0.5,0-0.9-0.4-0.9-0.9l0,0c0-0.8,0-0.8,0-1.7
		c0-0.8,0-0.8,0-1.5C397.8,159.6,397.8,159.6,397.8,158.9L397.8,158.9z M397.6,277.7c0-0.6,0.4-1,1-1.1l0,0c0.8,0,0.8,0,1.7,0
		c0.7,0,0.7,0,1.5,0c0.6,0,0.6,0,1.2,0c0.5,0,0.5,0,1.1,0s1,0.4,1,1l0,0c0,0.9,0,0.9,0,1.8c0,1.1,0,1.1,0,2.2v1.1
		c0,0.6-0.5,1.1-1,1.1c-0.8,0-0.8,0-1.7,0h-2.7c-0.5,0-0.5,0-1.1,0s-1-0.5-1-1l0,0c0-0.9,0-0.9,0-1.8c0-1.1,0-1.1,0-2.2
		C397.6,278.2,397.5,278.2,397.6,277.7L397.6,277.7z M397.3,301.3c0-0.7,0.6-1.2,1.2-1.2c0.8,0,0.8,0,1.7,0c1,0,1,0,2.1,0
		c1,0,1,0,1.9,0c0.4,0,0.4,0,0.8,0c0.7,0,1.2,0.5,1.2,1.2c0,0.9,0,0.9,0,1.8c0,0.8,0,0.8,0,1.5c0,1,0,1,0,1.9c0,0.4,0,0.4,0,0.9
		c0,0.7-0.5,1.2-1.2,1.2l0,0c-0.8,0-0.8,0-1.7,0c-1,0-1,0-2.1,0c-1,0-1,0-1.9,0c-0.4,0-0.4,0-0.8,0c-0.7,0-1.2-0.6-1.2-1.2
		c0-0.9,0-0.9,0-1.8c0-0.8,0-0.8,0-1.6v-1.9C397.3,301.7,397.2,301.7,397.3,301.3L397.3,301.3z M393.5,266.4c0,0.7,0,0.7,0,1.4
		c0,0.9,0,0.9,0,1.7v0.7c0,0.4-0.3,0.8-0.8,0.8l0,0c-1,0-1,0-1.9,0c-0.6,0-0.6,0-1.2,0c-0.4,0-0.4,0-0.9,0c-0.4,0-0.8-0.3-0.8-0.7
		l0,0c0-0.7,0-0.7,0-1.4c0-0.9,0-0.9,0-1.7c0-0.3,0-0.3,0-0.7c0-0.4,0.3-0.8,0.8-0.8l0,0c1,0,1,0,1.9,0c0.6,0,0.6,0,1.2,0
		c0.4,0,0.4,0,0.9,0C393.1,265.6,393.5,265.9,393.5,266.4L393.5,266.4z M387.1,243.6c0-0.4,0.3-0.7,0.7-0.7c0.7,0,0.7,0,1.3,0
		c0.8,0,0.8,0,1.6,0c0.4,0,0.4,0,0.8,0s0.7,0.3,0.7,0.7c0,0.7,0,0.7,0,1.4c0,0.6,0,0.6,0,1.2c0,0.5,0,0.5,0,0.9s-0.3,0.7-0.7,0.7
		c-0.7,0-0.7,0-1.3,0c-0.8,0-0.8,0-1.6,0c-0.4,0-0.4,0-0.8,0s-0.7-0.3-0.7-0.7c0-0.7,0-0.7,0-1.4c0-0.6,0-0.6,0-1.2
		C387.1,244.1,387,244.1,387.1,243.6L387.1,243.6z M387.1,170.6c0-0.4,0.3-0.8,0.8-0.8c0.9,0,0.9,0,1.7,0c0.8,0,0.8,0,1.6,0h0.7
		c0.4,0,0.8,0.3,0.8,0.8c0,0.9,0,0.9,0,1.8c0,0.6,0,0.6,0,1.2c0,0.4,0,0.4,0,0.8c0,0.4-0.3,0.8-0.8,0.8c-0.9,0-0.9,0-1.7,0
		c-0.8,0-0.8,0-1.6,0c-0.3,0-0.3,0-0.7,0c-0.4,0-0.8-0.4-0.7-0.8l0,0c0-0.9,0-0.9,0-1.8c0-0.6,0-0.6,0-1.2
		C387.1,171,387.1,171,387.1,170.6L387.1,170.6z M387.1,150.6c0-1,0-1,0-2v-1.1c0-0.3,0.3-0.6,0.6-0.6l0,0c1,0,1,0,2,0
		c0.7,0,0.7,0,1.3,0c0.4,0,0.6,0.3,0.6,0.6c0,1,0,1,0,2c0,0.5,0,0.5,0,1.1c0,0.3-0.3,0.6-0.6,0.6l0,0c-1,0-1,0-2,0h-1.3
		C387.4,151.3,387.1,151,387.1,150.6C387.1,150.7,387.1,150.6,387.1,150.6L387.1,150.6z M392.4,219.1v1.4c0,0.6,0,0.6,0,1.2
		c0,0.4,0,0.4,0,0.9c0,0.4-0.3,0.7-0.7,0.7l0,0c-0.7,0-0.7,0-1.3,0c-0.8,0-0.8,0-1.6,0c-0.4,0-0.4,0-0.7,0c-0.4,0-0.7-0.3-0.7-0.7
		l0,0c0-0.7,0-0.7,0-1.4c0-0.6,0-0.6,0-1.2c0-0.4,0-0.4,0-0.9c0-0.4,0.3-0.7,0.7-0.7c0.7,0,0.7,0,1.3,0h1.6c0.4,0,0.4,0,0.7,0
		C392.1,218.4,392.4,218.7,392.4,219.1L392.4,219.1z M386.8,99.1c0-0.4,0-0.4,0-0.8c0-0.5,0.4-0.8,0.8-0.8l0,0c0.8,0,0.8,0,1.6,0
		h1.5c0.6,0,0.6,0,1.2,0c0.5,0,0.8,0.4,0.8,0.8c0,0.9,0,0.9,0,1.7c0,0.8,0,0.8,0,1.6c0,0.4,0,0.4,0,0.8c0,0.5-0.3,0.8-0.8,0.9l0,0
		c-0.8,0-0.8,0-1.6,0c-0.8,0-0.8,0-1.5,0c-0.6,0-0.6,0-1.2,0c-0.5,0-0.8-0.4-0.8-0.9c0-0.9,0-0.9,0-1.7S386.8,99.9,386.8,99.1z
		 M386.8,123.2c0-0.4,0.3-0.7,0.7-0.7l0,0c0.7,0,0.7,0,1.3,0c0.8,0,0.8,0,1.6,0c0.3,0,0.3,0,0.7,0c0.4,0,0.7,0.3,0.7,0.7
		c0,1,0,1,0,2c0,0.7,0,0.7,0,1.4c0,0.4-0.3,0.7-0.7,0.7l0,0c-0.7,0-0.7,0-1.3,0c-0.8,0-0.8,0-1.7,0c-0.3,0-0.3,0-0.7,0
		c-0.4,0-0.7-0.3-0.7-0.7l0,0c0-1,0-1,0-2C386.8,123.9,386.8,123.9,386.8,123.2L386.8,123.2z M386.5,194.9c0-0.4,0.3-0.7,0.7-0.7
		l0,0c0.7,0,0.7,0,1.3,0c0.8,0,0.8,0,1.6,0c0.4,0,0.4,0,0.7,0c0.4,0,0.7,0.3,0.7,0.7c0,0.7,0,0.7,0,1.4c0,0.6,0,0.6,0,1.2
		c0,0.4,0,0.4,0,0.9c0,0.4-0.3,0.7-0.7,0.7l0,0c-0.7,0-0.7,0-1.3,0c-0.8,0-0.8,0-1.6,0c-0.4,0-0.4,0-0.7,0c-0.4,0-0.7-0.3-0.7-0.7
		l0,0c0-0.7,0-0.7,0-1.4c0-0.6,0-0.6,0-1.2C386.6,195.3,386.5,195.3,386.5,194.9L386.5,194.9z M386.2,292c0-0.8,0-0.8,0-1.6
		c0-0.3,0-0.3,0-0.6c0-0.6,0.5-1.1,1.1-1.1c0.9,0,0.9,0,1.8,0c0.8,0,0.8,0,1.7,0c0.8,0,0.8,0,1.6,0c0.3,0,0.3,0,0.6,0
		c0.6,0,1.1,0.5,1.1,1.1l0,0c0,0.7,0,0.7,0,1.4c0,0.9,0,0.9,0,1.7c0,0.8,0,0.8,0,1.6c0,0.3,0,0.3,0,0.6c0,0.6-0.5,1.1-1.1,1.1
		c-0.9,0-0.9,0-1.8,0c-0.8,0-0.8,0-1.7,0c-0.8,0-0.8,0-1.6,0h-0.5c-0.6,0-1.1-0.5-1.1-1.1c0-0.7,0-0.7,0-1.4
		C386.2,292.9,386.2,292.9,386.2,292L386.2,292z M387.2,312.5h1.6c1,0,1,0,2,0h2.6c0.7,0,1.2,0.6,1.2,1.2v1.7c0,0.8,0,0.8,0,1.5
		c0,0.9,0,0.9,0,1.9c0,0.4,0,0.4,0,0.8c0,0.7-0.5,1.2-1.2,1.2c-0.8,0-0.8,0-1.7,0h-2c-0.9,0-0.9,0-1.9,0H387c-0.7,0-1.2-0.6-1.2-1.2
		c0-0.9,0-0.9,0-1.7c0-0.8,0-0.8,0-1.5c0-0.9,0-0.9,0-1.9c0-0.4,0-0.4,0-0.8C385.9,313,386.5,312.5,387.2,312.5L387.2,312.5z
		 M380.8,302.6v1.7c0,0.8,0,0.8,0,1.6c0,0.3,0,0.3,0,0.7c0,0.4-0.4,0.8-0.8,0.8c-0.8,0-0.8,0-1.6,0c-0.8,0-0.8,0-1.5,0
		c-0.5,0-0.5,0-1.1,0c-0.5,0-0.8-0.4-0.8-0.8c0-0.9,0-0.9,0-1.7c0-0.8,0-0.8,0-1.6c0-0.3,0-0.3,0-0.7c0-0.4,0.3-0.8,0.8-0.8l0,0
		c0.8,0,0.8,0,1.6,0c0.8,0,0.8,0,1.5,0c0.5,0,0.5,0,1.1,0C380.4,301.8,380.8,302.2,380.8,302.6L380.8,302.6L380.8,302.6z
		 M374.9,183.1c0-0.3,0.3-0.6,0.6-0.6c0.9,0,0.9,0,1.8,0c0.6,0,0.6,0,1.3,0c0.3,0,0.6,0.3,0.6,0.6l0,0c0,0.9,0,0.9,0,1.9
		c0,0.5,0,0.5,0,1c0,0.3-0.3,0.6-0.6,0.6l0,0c-0.9,0-0.9,0-1.8,0h-1.3c-0.3,0-0.6-0.3-0.6-0.6c0-0.9,0-0.9,0-1.9
		C375,183.6,374.9,183.6,374.9,183.1L374.9,183.1z M379.6,136.3v1c0,0.3-0.3,0.6-0.6,0.6c-1,0-1,0-1.9,0h-1.3
		c-0.3,0-0.6-0.3-0.6-0.6l0,0c0-1,0-1,0-2c0-0.5,0-0.5,0-1c0-0.3,0.3-0.6,0.6-0.6l0,0c1,0,1,0,1.9,0c0.7,0,0.7,0,1.3,0
		c0.3,0,0.6,0.3,0.6,0.6C379.6,135.3,379.6,135.3,379.6,136.3L379.6,136.3z M379.5,162.6c0,0.3-0.2,0.6-0.6,0.6c-0.9,0-0.9,0-1.8,0
		h-1.2c-0.3,0-0.6-0.3-0.6-0.6c0-0.9,0-0.9,0-1.9c0-0.5,0-0.5,0-1c0-0.3,0.3-0.6,0.6-0.6c0.9,0,0.9,0,1.8,0c0.6,0,0.6,0,1.2,0
		c0.3,0,0.6,0.3,0.6,0.6c0,0.9,0,0.9,0,1.9C379.5,162.1,379.5,162.1,379.5,162.6L379.5,162.6z M379.5,209.2c0,0.5,0,0.5,0,1
		c0,0.3-0.2,0.6-0.6,0.6l0,0c-0.9,0-0.9,0-1.8,0c-0.6,0-0.6,0-1.2,0c-0.3,0-0.6-0.3-0.6-0.6c0-0.9,0-0.9,0-1.8c0-0.5,0-0.5,0-1
		c0-0.3,0.3-0.6,0.6-0.6c0.9,0,0.9,0,1.8,0c0.6,0,0.6,0,1.2,0c0.3,0,0.6,0.2,0.6,0.6l0,0C379.5,208.3,379.5,208.3,379.5,209.2
		L379.5,209.2z M380.3,281.1c0,0.6,0,0.6,0,1.3c0,0.4-0.3,0.7-0.6,0.7l0,0h-1.3c-0.6,0-0.6,0-1.1,0s-0.5,0-1,0
		c-0.3,0-0.6-0.3-0.6-0.6l0,0c0-1,0-1,0-1.9v-1.3c0-0.4,0.3-0.6,0.6-0.7l0,0c0.7,0,0.7,0,1.3,0c0.6,0,0.6,0,1.1,0s0.5,0,1,0
		c0.3,0,0.6,0.3,0.6,0.6l0,0C380.2,280.2,380.3,280.2,380.3,281.1L380.3,281.1z M380.1,257.1c0,0.5,0,0.5,0,1.1
		c0,0.3-0.3,0.6-0.6,0.6h-1.9c-0.7,0-0.7,0-1.3,0c-0.3,0-0.6-0.3-0.6-0.6l0,0v-2c0-0.5,0-0.5,0-1.1c0-0.3,0.3-0.6,0.6-0.6l0,0
		c1,0,1,0,1.9,0c0.7,0,0.7,0,1.3,0c0.3,0,0.6,0.3,0.6,0.6C380.1,256.1,380.1,256.1,380.1,257.1L380.1,257.1z M380.2,232.6
		c0,0.6,0,0.6,0,1.1c0,0.4-0.3,0.6-0.6,0.6c-1,0-1,0-2,0c-0.7,0-0.7,0-1.4,0c-0.4,0-0.6-0.3-0.6-0.7c0-1,0-1,0-2c0-0.6,0-0.6,0-1.1
		c0-0.3,0.3-0.6,0.6-0.6l0,0c1,0,1,0,2,0h1.4c0.3,0,0.6,0.3,0.6,0.6l0,0C380.1,231.6,380.1,231.6,380.2,232.6L380.2,232.6z
		 M380,111.2c0,0.6,0,0.6,0,1.3c0,0.5,0,0.5,0,1.1c0,0.4,0,0.4,0,0.8c0,0.3-0.3,0.6-0.6,0.6h-1.2c-0.8,0-0.8,0-1.5,0
		c-0.3,0-0.3,0-0.6,0c-0.3,0-0.6-0.3-0.6-0.6l0,0c0-0.6,0-0.6,0-1.3V112c0-0.4,0-0.4,0-0.8c0-0.3,0.3-0.6,0.6-0.6l0,0h1.2
		c0.8,0,0.8,0,1.5,0c0.3,0,0.3,0,0.6,0S380,110.9,380,111.2L380,111.2z M374.5,87.7c0-0.3,0-0.3,0-0.6c0-0.4,0.3-0.7,0.7-0.7l0,0
		c0.9,0,0.9,0,1.8,0c0.6,0,0.6,0,1.1,0c0.4,0,0.4,0,0.9,0c0.4,0,0.7,0.3,0.7,0.7l0,0v1.3c0,0.8,0,0.8,0,1.6c0,0.3,0,0.3,0,0.6
		c0,0.4-0.3,0.7-0.7,0.7c-0.9,0-0.9,0-1.8,0c-0.6,0-0.6,0-1.1,0c-0.4,0-0.4,0-0.9,0c-0.4,0-0.7-0.3-0.7-0.7c0-0.7,0-0.7,0-1.3
		C374.5,88.6,374.5,88.6,374.5,87.7L374.5,87.7z M373.9,326.7c0-0.3,0-0.3,0-0.7c0-0.7,0.5-1.2,1.2-1.2l0,0c0.7,0,0.7,0,1.3,0
		c0.8,0,0.8,0,1.6,0c0.7,0,0.7,0,1.4,0c0.6,0,0.6,0,1.1,0s0.5,0,1.1,0c0.7,0,1.2,0.5,1.2,1.2c0,1,0,1,0,1.9s0,0.9,0,1.8
		c0,0.8,0,0.8,0,1.7c0,0.3,0,0.3,0,0.7c0,0.7-0.5,1.2-1.2,1.2s-0.7,0-1.3,0c-0.8,0-0.8,0-1.6,0c-0.7,0-0.7,0-1.4,0
		c-0.6,0-0.6,0-1.1,0s-0.5,0-1.1,0c-0.7,0-1.2-0.5-1.2-1.2l0,0c0-1,0-1,0-1.9s0-0.9,0-1.8C373.9,327.5,373.9,327.5,373.9,326.7
		L373.9,326.7z M373.1,351.9c0-0.6,0-0.6,0-1.1s0.3-1.1,0.7-1.4c0.3-0.2,0.6-0.3,1-0.3c0.9,0,0.9,0,1.8,0c0.8,0,0.8,0,1.6,0
		c0.7,0,0.7-0.1,1.4-0.1c0.6,0,0.6,0,1.2,0c0.5,0,0.5,0,1.1,0c0.5,0,1,0.3,1.3,0.7c0.2,0.3,0.4,0.6,0.4,1c0,0.9,0,0.9,0,1.8
		c0,0.8,0,0.8,0,1.6c0,0.7,0,0.7,0,1.4c0,0.6,0,0.6,0,1.2s0,0.6,0,1.1s-0.3,1-0.7,1.3c-0.3,0.2-0.6,0.3-1,0.4c-0.9,0-0.9,0-1.8,0
		h-1.6c-0.7,0-0.7,0-1.4,0c-0.6,0-0.6,0-1.2,0c-0.5,0-0.5,0-1.1,0c-0.5,0-1.1-0.3-1.4-0.7c-0.2-0.3-0.3-0.6-0.3-1c0-0.9,0-0.9,0-1.8
		c0-0.8,0-0.8,0-1.6c0-0.7,0-0.7,0-1.4C373.1,352.5,373.1,352.5,373.1,351.9L373.1,351.9z M369.1,337.1c0.6,0,1.1,0.5,1.1,1l0,0
		c0,0.9,0,0.9,0,1.8c0,1.1,0,1.1,0,2.2c0,0.6,0,0.6,0,1.2s-0.4,1-1,1.1l0,0c-0.9,0-0.9,0-1.7,0c-0.8,0-0.8,0-1.5,0
		c-0.6,0-0.6,0-1.3,0h-1.1c-0.6,0-1.1-0.5-1.1-1.1l0,0c0-0.9,0-0.9,0-1.8c0-1.1,0-1.1,0-2.3c0-0.6,0-0.6,0-1.2s0.5-1.1,1.1-1.1
		c0.9,0,0.9,0,1.7,0h1.5c0.6,0,0.6,0,1.3,0C368.5,337.1,368.5,337.1,369.1,337.1z M364,221c-0.9,0-0.9,0-1.7,0
		c-0.2,0-0.3-0.1-0.3-0.3l0,0c0-0.8,0-0.8,0-1.6c0-0.2,0.2-0.3,0.3-0.3c0.9,0,0.9,0,1.7,0c0.2,0,0.3,0.2,0.3,0.3c0,0.8,0,0.8,0,1.6
		C364.3,220.8,364.2,221,364,221L364,221z M365.1,243.1c0.2,0,0.4,0.2,0.4,0.4l0,0c0,0.6,0,0.6,0,1.1c0,0.4,0,0.4,0,0.9
		c0,0.2-0.2,0.4-0.4,0.4l0,0H364c-0.5,0-0.5,0-1.1,0c-0.2,0-0.4-0.2-0.4-0.4l0,0c0-0.6,0-0.6,0-1.1v-0.9c0-0.2,0.2-0.4,0.4-0.4l0,0
		c0.5,0,0.5,0,1.1,0S364.6,243.1,365.1,243.1L365.1,243.1z M368.9,315v1.6c0,0.8,0,0.8,0,1.5c0,0.3,0,0.3,0,0.6
		c0,0.4-0.3,0.8-0.7,0.8l0,0h-1.6c-0.7,0-0.7,0-1.4,0c-0.5,0-0.5,0-1,0c-0.4,0-0.7-0.3-0.7-0.7l0,0c0-0.8,0-0.8,0-1.6v-1.5
		c0-0.3,0-0.3,0-0.6c0-0.4,0.3-0.8,0.8-0.8h1.6c0.7,0,0.7,0,1.4,0h1C368.6,314.2,368.9,314.6,368.9,315L368.9,315L368.9,315z
		 M368.5,291.3c0,1,0,1,0,1.9c0,0.6,0,0.6,0,1.3c0,0.4-0.3,0.6-0.6,0.6c-0.6,0-0.6,0-1.3,0c-0.5,0-0.5,0-1.1,0h-1
		c-0.4,0-0.6-0.3-0.6-0.6l0,0c0-0.9,0-0.9,0-1.9c0-0.6,0-0.6,0-1.3c0-0.4,0.3-0.6,0.6-0.6c0.6,0,0.6,0,1.3,0c0.5,0,0.5,0,1.1,0
		c0.5,0,0.5,0,1,0C368.2,290.7,368.5,291,368.5,291.3L368.5,291.3z M368,267.2v1.6c0,0.3,0,0.3,0,0.7c0,0.3-0.2,0.5-0.5,0.5
		c-0.8,0-0.8,0-1.6,0H365c-0.3,0-0.5-0.2-0.5-0.5v-2.3c0-0.3,0.2-0.5,0.5-0.5c0.8,0,0.8,0,1.6,0h0.9
		C367.8,266.7,368,266.9,368,267.2L368,267.2z M367.5,123.5c0,0.9,0,0.9,0,1.8c0,0.5,0,0.5,0,1c0,0.3-0.2,0.6-0.6,0.6l0,0h-1.8
		c-0.6,0-0.6,0-1.2,0c-0.3,0-0.6-0.3-0.6-0.6l0,0c0-0.9,0-0.9,0-1.8c0-0.5,0-0.5,0-1c0-0.3,0.2-0.6,0.6-0.6l0,0h1.8
		c0.6,0,0.6,0,1.2,0C367.3,123,367.5,123.2,367.5,123.5L367.5,123.5z M362.9,98.9c0-0.3,0.3-0.6,0.6-0.6c0.9,0,0.9,0,1.8,0h1.3
		c0.3,0,0.6,0.3,0.6,0.6l0,0c0,0.9,0,0.9,0,1.8c0,0.5,0,0.5,0,1c0,0.3-0.3,0.6-0.6,0.6c-0.9,0-0.9,0-1.8,0c-0.6,0-0.6,0-1.3,0
		c-0.3,0-0.6-0.3-0.6-0.6l0,0c0-0.9,0-0.9,0-1.8C362.9,99.5,362.9,99.5,362.9,98.9L362.9,98.9z M362.6,146.8c0-0.2,0.2-0.4,0.4-0.4
		c0.6,0,0.6,0,1.1,0s0.5,0,0.9,0c0.2,0,0.4,0.2,0.4,0.4c0,1,0,1,0,1.9c0,0.2-0.2,0.4-0.4,0.4c-0.6,0-0.6,0-1.1,0s-0.5,0-0.9,0
		c-0.2,0-0.4-0.2-0.4-0.4C362.6,147.8,362.6,147.8,362.6,146.8L362.6,146.8z M362.3,170.9h1.1c0.5,0,0.5,0,1.1,0
		c0.2,0,0.4,0.2,0.4,0.4l0,0c0,0.6,0,0.6,0,1.1s0,0.5,0,0.9c0,0.2-0.2,0.4-0.4,0.4l0,0c-0.5,0-0.5,0-1.1,0s-0.5,0-1.1,0
		c-0.2,0-0.4-0.2-0.4-0.4c0-0.6,0-0.6,0-1.1s0-0.5,0-0.9C361.9,171.1,362,170.9,362.3,170.9L362.3,170.9z M361.6,192.7h1.7
		c0.2,0,0.3,0.2,0.3,0.3c0,0.8,0,0.8,0,1.6c0,0.2-0.1,0.3-0.3,0.3c-0.9,0-0.9,0-1.7,0c-0.2,0-0.3-0.1-0.3-0.3l0,0c0-0.8,0-0.8,0-1.6
		C361.2,192.9,361.4,192.7,361.6,192.7L361.6,192.7z M361.2,364.6c0-0.5,0-0.5,0-1.1c0-0.4,0.2-0.8,0.5-1.1c0.3-0.3,0.7-0.4,1-0.4
		c1.1,0,1.1,0,2.1,0s1,0,2,0c0.6,0,0.6,0,1.3,0c0.5,0,0.5,0,1.1,0c0.4,0,0.8,0.2,1.1,0.5c0.3,0.3,0.4,0.7,0.4,1c0,1.1,0,1.1,0,2.1
		s0,1,0,2c0,0.6,0,0.6,0,1.3c0,0.5,0,0.5,0,1.1c0,0.8-0.7,1.5-1.5,1.5c-1.1,0-1.1,0-2.1,0s-1,0-2,0c-0.6,0-0.6,0-1.3,0
		c-0.5,0-0.5,0-1.1,0c-0.4,0-0.8-0.2-1.1-0.5c-0.3-0.3-0.4-0.6-0.4-1c0-1.1,0-1.1,0-2.1s0-1,0-2
		C361.2,365.2,361.2,365.2,361.2,364.6z M358.3,350c0,0.8,0,0.8,0,1.5c0,0.9,0,0.9,0,1.8c0,0.6,0,0.6,0,1.2c0,0.5,0,0.5,0,0.9
		c0,0.6-0.5,1.1-1.1,1.1H354c-0.8,0-0.8,0-1.6,0c-0.5,0-0.5,0-1,0c-0.6,0-1.1-0.5-1.1-1.1l0,0c0-0.8,0-0.8,0-1.5c0-0.9,0-0.9,0-1.8
		c0-0.6,0-0.6,0-1.2c0-0.5,0-0.5,0-0.9c0-0.6,0.5-1.1,1.1-1.1l0,0c1,0,1,0,1.9,0c0.6,0,0.6,0,1.3,0c0.8,0,0.8,0,1.6,0
		c0.5,0,0.5,0,1,0C357.8,348.9,358.3,349.4,358.3,350L358.3,350z M356.6,327.6c0,1,0,1,0,1.9c0,0.6,0,0.6,0,1.1
		c0,0.3-0.3,0.6-0.6,0.6l0,0c-0.9,0-0.9,0-1.9,0c-0.7,0-0.7,0-1.4,0c-0.3,0-0.6-0.3-0.6-0.6c0-1,0-1,0-2v-1.1c0-0.3,0.3-0.6,0.6-0.6
		c0.9,0,0.9,0,1.9,0c0.7,0,0.7,0,1.4,0C356.3,327,356.6,327.3,356.6,327.6L356.6,327.6L356.6,327.6z M355.6,303.9c0,0.8,0,0.8,0,1.6
		c0,0.3,0,0.3,0,0.7c0,0.2-0.2,0.5-0.5,0.4l0,0c-0.8,0-0.8,0-1.5,0c-0.4,0-0.4,0-0.8,0c-0.2,0-0.4-0.2-0.5-0.4l0,0
		c0-0.8,0-0.8,0-1.6c0-0.3,0-0.3,0-0.7c0-0.2,0.2-0.4,0.4-0.4l0,0c0.8,0,0.8,0,1.5,0h0.8C355.4,303.4,355.6,303.6,355.6,303.9
		C355.6,303.8,355.6,303.9,355.6,303.9L355.6,303.9z M355.5,111.6c0,0.7,0,0.7,0,1.4c0,0.5,0,0.5,0,1c0,0.3-0.2,0.5-0.5,0.5l0,0
		c-0.7,0-0.7,0-1.4,0h-1.2c-0.3,0-0.5-0.2-0.5-0.5l0,0c0-0.7,0-0.7,0-1.4c0-0.5,0-0.5,0-1c0-0.3,0.2-0.5,0.5-0.5c0.7,0,0.7,0,1.4,0
		c0.6,0,0.6,0,1.2,0C355.2,111.1,355.5,111.3,355.5,111.6L355.5,111.6L355.5,111.6z M350.9,86.9c0-0.3,0.2-0.6,0.6-0.6l0,0h1.8
		c0.6,0,0.6,0,1.3,0c0.3,0,0.6,0.3,0.6,0.6l0,0c0,0.9,0,0.9,0,1.8c0,0.5,0,0.5,0,1c0,0.3-0.3,0.6-0.6,0.6l0,0c-0.9,0-0.9,0-1.7,0
		c-0.6,0-0.6,0-1.3,0c-0.3,0-0.6-0.2-0.6-0.5l0,0c0-0.9,0-0.9,0-1.8L350.9,86.9L350.9,86.9z M350.3,281.1c0.9,0,0.9,0,1.8,0
		c0.2,0,0.3,0.2,0.3,0.3c0,0.8,0,0.8,0,1.7c0,0.2-0.1,0.3-0.3,0.3c-0.9,0-0.9,0-1.8,0c-0.2,0-0.3-0.1-0.3-0.3l0,0c0-0.8,0-0.8,0-1.7
		C350,281.2,350.1,281,350.3,281.1z M350.1,372.6c0.3-0.2,0.6-0.4,1-0.4c1,0,1,0,2,0s1,0,1.9,0c0.6,0,0.6,0,1.2,0c0.5,0,0.5,0,1,0
		c0.8,0,1.4,0.5,1.4,1.3v0.1c0,1,0,1,0,2s0,1,0,1.9c0,0.6,0,0.6,0,1.2c0,0.5,0,0.5,0,1c0,0.4-0.2,0.8-0.5,1.1
		c-0.3,0.3-0.6,0.4-1,0.4c-1,0-1,0-2,0s-1,0-1.9,0c-0.6,0-0.6,0-1.2,0c-0.5,0-0.5,0-1,0c-0.8,0-1.5-0.6-1.5-1.4c0-1,0-1,0-2
		s0-1,0-1.9c0-0.6,0-0.6,0-1.2c0-0.5,0-0.5,0-1C349.6,373.3,349.8,372.9,350.1,372.6L350.1,372.6z M345.8,129.3h1.7
		c0.2,0,0.3,0.2,0.3,0.3c0,0.8,0,0.8,0,1.6c0,0.2-0.1,0.3-0.3,0.3c-0.9,0-0.9,0-1.7,0c-0.2,0-0.3-0.1-0.3-0.3c0-0.8,0-0.8,0-1.6
		C345.5,129.5,345.7,129.3,345.8,129.3z M343.8,339.4c0.2,0,0.5,0.2,0.5,0.5c0,0.8,0,0.8,0,1.5c0,0.4,0,0.4,0,0.8
		c0,0.3-0.2,0.5-0.5,0.5l0,0c-0.7,0-0.7,0-1.5,0c-0.5,0-0.5,0-0.9,0c-0.2,0-0.5-0.2-0.5-0.4c0-0.7,0-0.7,0-1.5c0-0.4,0-0.4,0-0.8
		c0-0.3,0.2-0.5,0.5-0.5c0.7,0,0.7,0,1.5,0L343.8,339.4z M343.4,317.7c0,0.8,0,0.8,0,1.6c0,0.2-0.1,0.3-0.3,0.3c-0.9,0-0.9,0-1.7,0
		c-0.2,0-0.3-0.1-0.3-0.3l0,0c0-0.8,0-0.8,0-1.6c0-0.2,0.1-0.3,0.3-0.3l0,0c0.9,0,0.9,0,1.7,0C343.2,317.4,343.4,317.5,343.4,317.7
		L343.4,317.7z M340.7,100.1c0-0.2,0.2-0.4,0.4-0.4l0,0c0.9,0,0.9,0,1.9,0c0.2,0,0.4,0.2,0.4,0.3v1.8c0,0.2-0.2,0.4-0.4,0.4
		c-0.9,0-0.9,0-1.9,0c-0.2,0-0.4-0.2-0.4-0.4C340.7,101,340.7,101,340.7,100.1L340.7,100.1z M339.5,360.9c0.8,0,0.8,0,1.6,0
		c0.7,0,0.7,0,1.4,0c0.6,0,0.6,0,1.1,0s0.5,0,1,0s0.9,0.4,0.9,0.9l0,0c0,0.8,0,0.8,0,1.6c0,1,0,1,0,2v1.1c0,0.5-0.4,1-0.9,1l0,0
		c-0.8,0-0.8,0-1.6,0c-0.7,0-0.7,0-1.4,0c-0.6,0-0.6,0-1.1,0s-0.5,0-1,0s-1-0.4-1-1l0,0c0-0.8,0-0.8,0-1.6c0-1,0-1,0-2
		c0-0.6,0-0.6,0-1.1C338.6,361.3,339,360.9,339.5,360.9z M338.9,384.7c0.3-0.2,0.6-0.4,1-0.4c1,0,1,0,1.9,0s0.9,0,1.8,0
		c0.6,0,0.6,0,1.2,0h1c0.8,0,1.4,0.7,1.4,1.4c0,1,0,1,0,1.9s0,0.9,0,1.8c0,0.6,0,0.6,0,1.2c0,0.5,0,0.5,0,1c0,0.4-0.2,0.8-0.5,1
		s-0.6,0.4-0.9,0.4c-1,0-1,0-1.9,0s-0.9,0-1.8,0c-0.6,0-0.6,0-1.2,0c-0.5,0-0.5,0-1,0c-0.8,0-1.4-0.6-1.4-1.4c0-1,0-1,0-1.9
		s0-0.9,0-1.8c0-0.6,0-0.6,0-1.2c0-0.5,0-0.5,0-1C338.4,385.3,338.6,384.9,338.9,384.7L338.9,384.7z M328.8,351.7c1,0,1,0,2,0
		c0.2,0,0.4,0.2,0.4,0.4l0,0c0,0.9,0,0.9,0,1.8c0,0.2-0.2,0.4-0.4,0.4l0,0c-1,0-1,0-2,0c-0.2,0-0.4-0.2-0.4-0.4l0,0
		c0-0.9,0-0.9,0-1.8C328.4,351.9,328.6,351.7,328.8,351.7L328.8,351.7z M326.9,377.3c0-0.8,0-0.8,0-1.6v-1c0-0.5,0.4-0.9,0.8-0.9
		l0,0h1.7c0.8,0,0.8,0,1.5,0h1.5c0.5,0,0.9,0.4,0.9,0.9c0,0.9,0,0.9,0,1.7c0,0.8,0,0.8,0,1.6c0,0.5,0,0.5,0,1s-0.4,0.9-0.9,0.9
		c-0.8,0-0.8,0-1.7,0h-1.5c-0.7,0-0.7,0-1.5,0c-0.5,0-0.9-0.4-0.9-0.9l0,0L326.9,377.3z M326.2,398.7c0-0.5,0-0.5,0-1
		c0-0.4,0.1-0.8,0.4-1s0.6-0.4,0.9-0.4c1,0,1,0,1.9,0s0.9,0,1.8,0c0.6,0,0.6,0,1.2,0c0.5,0,0.5,0,1,0c0.8,0,1.4,0.6,1.4,1.4v1.9
		c0,0.9,0,0.9,0,1.8c0,0.6,0,0.6,0,1.2c0,0.5,0,0.5,0,1c0,0.4-0.2,0.8-0.5,1c-0.2,0.2-0.6,0.4-0.9,0.4c-1,0-1,0-1.9,0s-0.9,0-1.8,0
		c-0.6,0-0.6,0-1.2,0c-0.5,0-0.5,0-1,0c-0.8,0-1.4-0.6-1.4-1.4l0,0c0-1,0-1,0-1.9s0-0.9,0-1.8C326.2,399.3,326.2,399.3,326.2,398.7
		L326.2,398.7z M317.4,363.4c0.8,0,0.8,0,1.6,0c0.2,0,0.3,0.1,0.3,0.3l0,0c0,0.8,0,0.8,0,1.5c0,0.2-0.1,0.3-0.3,0.3l0,0
		c-0.8,0-0.8,0-1.6,0c-0.2,0-0.3-0.1-0.3-0.3l0,0c0-0.8,0-0.8,0-1.5C317.1,363.5,317.2,363.4,317.4,363.4L317.4,363.4L317.4,363.4z
		 M315.2,387.3c0-0.5,0-0.5,0-1s0.4-0.9,0.9-0.9c0.8,0,0.8,0,1.7,0c0.8,0,0.8,0,1.5,0s0.7,0,1.5,0c0.5,0,0.9,0.4,0.9,0.9
		c0,0.9,0,0.9,0,1.7c0,0.8,0,0.8,0,1.6c0,0.5,0,0.5,0,1s-0.4,0.9-0.9,0.9l0,0c-0.8,0-0.8,0-1.7,0c-0.8,0-0.8,0-1.5,0s-0.7,0-1.5,0
		c-0.5,0-0.9-0.4-0.8-0.9l0,0c0-0.9,0-0.9,0-1.7L315.2,387.3z M306.2,397.5c0.8,0,0.8,0,1.5,0h1.5c0.5,0,0.9,0.4,0.9,0.9l0,0
		c0,0.9,0,0.9,0,1.7c0,0.8,0,0.8,0,1.6c0,0.5,0,0.5,0,1s-0.4,0.9-0.9,0.9h-1.7c-0.8,0-0.8,0-1.5,0s-0.7,0-1.5,0
		c-0.5,0-0.9-0.4-0.9-0.9c0-0.9,0-0.9,0-1.7c0-0.8,0-0.8,0-1.6c0-0.5,0-0.5,0-1s0.4-0.9,0.9-0.9
		C305.4,397.5,305.4,397.5,306.2,397.5L306.2,397.5z M302.4,384.5c0.8,0,0.8,0,1.6,0c0.2,0,0.3,0.1,0.3,0.3l0,0c0,0.8,0,0.8,0,1.5
		c0,0.2-0.1,0.3-0.3,0.3l0,0c-0.8,0-0.8,0-1.6,0c-0.2,0-0.3-0.1-0.3-0.3l0,0c0-0.8,0-0.8,0-1.5C302.1,384.7,302.3,384.5,302.4,384.5
		L302.4,384.5L302.4,384.5z M301.9,421.7c0-0.8,0.6-1.4,1.4-1.5h0.1c0.6,0,0.6,0,1.3,0c0.8,0,0.8,0,1.5,0h1.3c0.5,0,0.5,0,1.1,0
		c0.5,0,0.5,0,1.1,0c0.5,0,1,0.3,1.2,0.7c0.2,0.2,0.3,0.5,0.3,0.8c0,0.6,0,0.6,0,1.3c0,0.8,0,0.8,0,1.5s0,0.7,0,1.3
		c0,0.6,0,0.6,0,1.1s0,0.6,0,1.1c0,0.8-0.7,1.4-1.5,1.5c-0.6,0-0.6,0-1.3,0h-1.5c-0.7,0-0.7,0-1.3,0h-1.1c-0.5,0-0.5,0-1.1,0
		c-0.4,0-0.8-0.2-1.1-0.4c-0.3-0.3-0.4-0.6-0.4-1c0-0.6,0-0.6,0-1.3c0-0.8,0-0.8,0-1.5s0-0.7,0-1.3c0-0.5,0-0.5,0-1.1
		S301.9,422.3,301.9,421.7L301.9,421.7z M291.4,410.7c0-0.5,0.4-0.9,0.9-0.9l0,0c0.9,0,0.9,0,1.7,0c0.8,0,0.8,0,1.5,0s0.8,0,1.5,0
		c0.5,0,0.9,0.4,0.9,0.9l0,0c0,0.9,0,0.9,0,1.8c0,0.8,0,0.8,0,1.7c0,0.5,0,0.5,0,1s-0.4,0.9-0.9,0.9l0,0c-0.9,0-0.9,0-1.7,0
		c-0.8,0-0.8,0-1.6,0c-0.8,0-0.8,0-1.5,0c-0.5,0-0.9-0.4-0.9-0.9l0,0c0-0.9,0-0.9,0-1.8c0-0.8,0-0.8,0-1.7
		C291.4,411.2,291.4,411.2,291.4,410.7z M280.7,422.4c0.9,0,0.9,0,1.7,0c0.8,0,0.8,0,1.5,0h1.5c0.5,0,0.9,0.4,0.9,0.9
		c0,0.9,0,0.9,0,1.8c0,0.8,0,0.8,0,1.7c0,0.5,0,0.5,0,1s-0.4,0.9-0.9,0.9h-1.7c-0.8,0-0.8,0-1.6,0c-0.8,0-0.8,0-1.5,0
		c-0.5,0-0.9-0.4-0.9-0.9l0,0c0-0.9,0-0.9,0-1.8v-1.7c0-0.5,0-0.5,0-1S280.2,422.4,280.7,422.4L280.7,422.4z M271.7,412.5h1.8
		c0.2,0,0.3,0.2,0.3,0.3c0,0.8,0,0.8,0,1.7c0,0.2-0.1,0.3-0.3,0.3c-0.9,0-0.9,0-1.8,0c-0.2,0-0.3-0.1-0.3-0.3l0,0c0-0.8,0-0.8,0-1.7
		C271.3,412.6,271.5,412.5,271.7,412.5z M267.7,434.7c0-0.5,0.4-1,0.9-1l0,0c0.8,0,0.8,0,1.6,0c0.7,0,0.7,0,1.4,0h1.2
		c0.5,0,0.5,0,1,0s1,0.4,1,0.9l0,0c0,0.9,0,0.9,0,1.7c0,1.1,0,1.1,0,2.1c0,0.6,0,0.6,0,1.1s-0.4,1-1,1l0,0c-0.8,0-0.8,0-1.6,0
		c-0.7,0-0.7,0-1.4,0c-0.6,0-0.6,0-1.2,0c-0.5,0-0.5,0-1,0c-0.6,0-1-0.4-1-1l0,0c0-0.8,0-0.8,0-1.7c0-1,0-1,0-2.1
		C267.6,435.3,267.7,435.3,267.7,434.7L267.7,434.7z M258.2,423.8h1.8c0.2,0,0.3,0.2,0.3,0.3c0,0.8,0,0.8,0,1.7
		c0,0.2-0.2,0.3-0.3,0.3c-0.9,0-0.9,0-1.8,0c-0.2,0-0.3-0.1-0.3-0.3l0,0c0-0.8,0-0.8,0-1.7C257.9,423.9,258,423.8,258.2,423.8
		L258.2,423.8z M254.8,448.7c0-0.6,0-0.6,0-1.2c0-0.5,0-0.5,0-1c0-0.4,0.2-0.7,0.5-1c0.3-0.2,0.6-0.4,0.9-0.4c1,0,1,0,1.9,0
		s0.9,0,1.8,0h1.2c0.5,0,0.5,0,1,0c0.8,0,1.4,0.6,1.4,1.4l0,0c0,1,0,1,0,1.9s0,0.9,0,1.8c0,0.6,0,0.6,0,1.2c0,0.5,0,0.5,0,1
		c0,0.8-0.6,1.4-1.4,1.4c-1,0-1,0-1.9,0s-0.9,0-1.8,0c-0.6,0-0.6,0-1.1,0s-0.5,0-1,0c-0.4,0-0.8-0.1-1-0.4s-0.4-0.6-0.4-1
		c0-1,0-1,0-1.9C254.8,449.7,254.8,449.7,254.8,448.7L254.8,448.7z M245,435.3c0-0.3,0.3-0.6,0.6-0.6l0,0c1,0,1,0,2.1,0
		c0.6,0,0.6,0,1.1,0c0.3,0,0.6,0.3,0.6,0.6l0,0c0,0.8,0,0.8,0,1.6c0,0.7,0,0.7,0,1.4c0,0.3-0.3,0.6-0.6,0.6h-2.1c-0.6,0-0.6,0-1.1,0
		c-0.3,0-0.6-0.3-0.6-0.6c0-0.8,0-0.8,0-1.6C245,436,245,436,245,435.3L245,435.3z M232.4,448.2v-1.1c0-0.4,0.3-0.7,0.7-0.7l0,0
		c0.6,0,0.6,0,1.3,0c0.8,0,0.8,0,1.6,0c0.5,0,0.5,0,0.9,0s0.7,0.3,0.7,0.7l0,0c0,0.7,0,0.7,0,1.4c0,0.6,0,0.6,0,1.1s0,0.5,0,1.1
		c0,0.4-0.3,0.7-0.7,0.7c-0.6,0-0.6,0-1.3,0c-0.8,0-0.8,0-1.6,0h-0.9c-0.4,0-0.7-0.3-0.7-0.7c0-0.7,0-0.7,0-1.4
		C232.4,448.8,232.4,448.8,232.4,448.2L232.4,448.2z M221,458.5c0.9,0,0.9,0,1.8,0c0.8,0,0.8,0,1.6,0c0.6,0,0.6,0,1.1,0
		s0.8,0.4,0.8,0.9c0,0.9,0,0.9,0,1.8c0,0.8,0,0.8,0,1.7c0,0.3,0,0.3,0,0.7c0,0.5-0.4,0.8-0.8,0.9l0,0c-0.9,0-0.9,0-1.7,0
		s-0.8,0-1.6,0c-0.6,0-0.6,0-1.1,0s-0.8-0.4-0.8-0.8l0,0v-1.8c0-0.9,0-0.9,0-1.7c0-0.3,0-0.3,0-0.7
		C220.2,458.9,220.6,458.5,221,458.5z M202.8,458.5h1.8c0.2,0,0.3,0.2,0.3,0.3c0,0.8,0,0.8,0,1.7c0,0.2-0.1,0.3-0.3,0.3
		c-0.9,0-0.9,0-1.8,0c-0.2,0-0.3-0.1-0.3-0.3l0,0c0-0.8,0-0.8,0-1.7C202.4,458.7,202.6,458.5,202.8,458.5L202.8,458.5z M184.1,472.9
		c0-1.2,0.9-2.2,2.1-2.2c0,0,0,0,0.1,0h1.6c0.5,0,0.5,0,1.1,0s1.2,0.3,1.7,0.7c0.3,0.4,0.5,0.9,0.5,1.4c0,1,0,1,0,1.9
		c0,1.2-0.9,2.1-2,2.2h-0.1c-0.8,0-0.8,0-1.6,0c-0.5,0-0.5,0-1.1,0c-1.2,0-2.2-1-2.2-2.2C184,473.9,184.1,473.9,184.1,472.9
		L184.1,472.9z M160.9,475.9c0.9,0,0.9,0,1.8,0c0.2,0,0.3,0.2,0.3,0.3c0,0.8,0,0.8,0,1.7c0,0.2-0.1,0.3-0.3,0.3c-0.9,0-0.9,0-1.8,0
		c-0.2,0-0.3-0.1-0.3-0.3l0,0c0-0.8,0-0.8,0-1.7C160.5,476.1,160.7,475.9,160.9,475.9L160.9,475.9L160.9,475.9z M99.8,500.9
		c-0.6,0-1.1,0-1.7,0c-0.5,0-1,0-1.5,0h-1.4c-0.6,0-1.2,0-1.7,0s-1.1,0-1.6,0s-1,0-1.5,0s-1,0-1.4,0s-0.7,0-1.1-0.1
		c-0.3,0-0.6,0-0.9,0c-0.1-0.5-0.1-1.1,0-1.7c0-1,0-1,0-2.1c0-0.5,0-0.5,0-1s0.2-1,0.4-1.4c0.2-0.4,0.5-0.7,0.8-1s0.7-0.6,1.1-0.8
		c0.3-0.2,0.7-0.3,1-0.4s0.6-0.1,0.9-0.1h1.7c0.8,0,0.8,0,1.6,0c0.5,0,0.5,0,0.9,0c0.5,0,1.1,0.1,1.5,0.4c0.4,0.2,0.7,0.4,1,0.7
		c0.3,0.3,0.6,0.6,0.8,0.9c0.2,0.3,0.4,0.7,0.5,1.1c0.1,0.3,0.2,0.6,0.2,1c0,0.9,0.1,0.9,0.1,1.7c0,0.8,0,0.8,0,1.6
		C99.8,500.4,100.1,500.4,99.8,500.9z M122.2,500.3c-0.5,0.1-1,0.1-1.6,0.2s-1.1,0-1.6,0s-1.1,0.1-1.6,0.2c-0.4,0-0.8,0.1-1.2,0.1
		s-0.8,0-1.2,0c-0.6,0-1.1,0.1-1.6,0.1c-0.4,0-0.8,0-1.2,0c-0.4,0-0.8,0-1.2,0c-0.3,0-0.7,0-1-0.1c-0.1-0.6-0.1-1.2,0-1.8
		c0-0.6,0-0.6,0-1.1s0-0.5,0-1.1c0-0.5,0.1-1.1,0.3-1.6c0.1-0.5,0.4-0.9,0.7-1.3c0.3-0.4,0.8-0.7,1.2-1c0.4-0.2,0.8-0.3,1.3-0.4
		c0.4-0.1,0.9-0.1,1.3-0.1c0.7,0,0.7,0,1.4,0c0.6,0,0.6,0,1.2,0c0.4,0,0.4,0,0.9,0s1.1,0.2,1.5,0.4c0.4,0.2,0.7,0.4,1,0.7
		c0.3,0.3,0.6,0.6,0.8,0.9c0.2,0.3,0.4,0.7,0.5,1.1c0.1,0.3,0.2,0.6,0.2,1c0,0.3,0,1,0,1.7c0,0.6,0,1.1,0,1.5
		C122.3,500.1,122.5,500.2,122.2,500.3L122.2,500.3z M131.3,487.7c0,0.4-0.3,0.7-0.7,0.7c-0.7,0-0.7,0-1.3,0c-0.8,0-0.8,0-1.6,0
		c-0.5,0-0.5,0-0.9,0s-0.7-0.3-0.7-0.7c0-0.7,0-0.7,0-1.4c0-0.6,0-0.6,0-1.1s0-0.5,0-1.1c0-0.4,0.3-0.7,0.7-0.7c0.7,0,0.7,0,1.3,0
		c0.8,0,0.8,0,1.6,0h0.9c0.4,0,0.7,0.3,0.7,0.7c0,0.7,0,0.7,0,1.4c0,0.6,0,0.6,0,1.1C131.3,487.2,131.3,487.2,131.3,487.7
		L131.3,487.7z M140.8,499.1c-0.3,0-0.6,0.1-0.9,0.1c-0.5,0-1,0.1-1.5,0.1s-1.1,0.1-1.6,0.2c-0.6,0.1-1.1,0.1-1.6,0.1
		c-0.4,0-0.8,0.1-1.1,0.1c-0.4,0-0.7,0.1-1,0.1l-1.1,0.1l0,0c-0.3,0-0.6,0.1,0,0c0-0.4,0-0.4,0-0.8c0-0.6,0-0.6,0-1.2
		c0-0.7,0-0.7,0-1.4c0-0.8,0-0.8-0.1-1.6c0-0.3,0.1-0.6,0.1-0.9c0.1-0.3,0.2-0.7,0.4-1c0.3-0.4,0.6-0.7,1.1-1c0.5-0.2,1-0.4,1.5-0.5
		s1.1-0.1,1.6-0.1s0.5,0,1,0c0.8,0,0.8,0,1.6,0h3.2c0.4,0,0.7,0,1.1,0.1c0.6,0.1,1.1,0.4,1.6,0.9c0.5,0.4,0.7,1,0.8,1.6
		c0,0.6,0,0.6,0,1.3c0,0.8,0,0.8,0.1,1.6c0,0.9,0,0.9,0,1.7l-12.7,1.3L140.8,499.1c0.2,0,0.4-0.1,0.6-0.1c0.6-0.1,1.2-0.1,1.7-0.2
		s1-0.1,1.4-0.1c0.9-0.1,0.8,0,1.6-0.1L140.8,499.1z M207.2,489.2c-0.2,0-0.5,0-1.2,0.2c-0.4,0.1-1,0.2-1.6,0.3
		c-0.4,0.1-0.8,0.3-1.3,0.4s-1,0.2-1.5,0.3s-1.1,0.2-1.7,0.3c-0.5,0.1-0.9,0.3-1.4,0.4s-1,0-1.5,0.1s-0.9,0.5-1.5,0.6
		s-1,0.2-1.6,0.3s-1.1,0.1-1.6,0.2c-0.4,0.1-0.8,0-1.2,0.1s-0.8,0.2-1.2,0.3s-0.8,0.1-1.2,0.2s-0.8,0.4-1.2,0.5s-0.9,0-1.3,0.1
		s-0.9,0-1.3,0.1s-0.8,0.3-1.2,0.4s-0.8,0.1-1.2,0.1s-0.8,0.3-1.2,0.4s-0.8,0.1-1.2,0.2s-0.8,0-1.2,0s-0.7,0.1-1,0.1
		c-0.4-0.4-0.8-0.9-0.9-1.5c-0.1-0.3-0.2-0.6-0.2-0.9c-0.2-0.8-0.6-1-1.5-1.1c-0.8,0-0.8,0.2-1.6,0.2c-0.4,0-0.4-0.1-0.8-0.1
		c-0.4,0-0.8,0.3-1,0.7c-0.2,0.4-0.3,0.8-0.3,1.2c0,0.6-0.2,1.2-0.5,1.7c-0.2,0.5-0.6,0.8-1.2,0.9c-0.2,0-0.7,0.1-1.4,0.2
		c-0.5,0.1-0.9,0.4-1.5,0.5c-0.4,0.1-0.9-0.1-1.4-0.1s-1,0.3-1.5,0.4c-0.6,0.1-1.1-0.1-1.7,0c-0.6,0.1-1.2,0.3-1.7,0.4
		c-0.4,0.1-0.8,0.2-1.2,0.3c-0.4,0.1-0.8,0.1-1.1,0.1c-0.4,0.1-0.3,0-0.7,0s-0.7-0.1-0.9-0.4c-0.4-0.4-0.3-0.4-0.2-0.9
		c0-0.8-0.3-0.9-0.3-1.7c0-0.8,0-0.8,0-1.5s0.3-0.7,0.3-1.4c-0.1-0.5-0.5-0.8-1.6-0.8c-0.8,0-0.8-0.2-1.6-0.2c-0.7,0-0.7,0-1.4,0
		c-0.6,0-0.6,0.2-1.2,0.2c-0.3,0-0.3-0.2-0.6-0.2c-0.4,0-0.9-0.1-1.3-0.4c-0.3-0.2-0.5-0.6-0.5-1c-0.1-0.4-0.1-0.7,0-1.1
		c0-0.8,0.1-0.8,0.1-1.5s-0.2-0.7-0.2-1.4c0-0.6,0.2-1.2,0.5-1.6c0.4-0.4,0.8-0.7,1.4-0.9c0.3-0.2,0.6-0.3,1-0.4
		c0.6,0,0.6-0.1,1.1-0.1s0.6,0.2,1.1,0.2c0.6,0,1.1,0.1,1.7,0.2c0.5,0.1,1,0.2,1.5,0.5c0.3,0.3,0.6,0.6,0.7,1
		c0.1,0.4,0.2,0.8,0.2,1.3s0.1,0.9,0,1.5c0,0.4-0.2,0.7-0.2,1.1c0,0.8,0.1,0.8,0.1,1.6c0,0.6-0.5,0.8,0,1.2c0.6,0.4,0.8-0.1,1.5-0.1
		c0.9,0,0.9,0,1.8,0c0.8,0,0.8-0.1,1.6-0.1c0.7,0,0.7,0.2,1.4,0.2c0.6,0,0.6-0.1,1.2-0.1c0.3,0,0.3,0,0.6,0c0.5,0,0.9-0.1,1.3-0.3
		c0.4-0.2,0.8-0.5,1-0.9c-0.1-0.2-0.2-0.4-0.2-0.6c0-1.1,0-1.1,0-2.2c0-1,0-1,0-2.1c0-1,0-1,0-1.9c0-0.4,0-0.4,0-0.8
		c0.1-0.9,0.8-1.5,1.7-1.4l0,0c0.9,0,0.9,0,1.8,0c1.1,0,1.1,0,2.2,0c0.7,0,0.9,0,1.2,0c0.2,0,0.4,0,0.6,0c0.1,0,0.2,0,0.2,0
		c0.6,0,0.7,0,1.4,0s0.7,0,1.5,0c0.8-0.1,1.6,0.5,1.7,1.3l0,0c0,1.1,0.1,1.1,0.1,2.2c0,1,0,1,0,2.1c0,0.5,0,0.7,0,1
		c0.2,0.4,0.5,0.7,0.8,0.9c0.5,0.3,1,0.5,1.5,0.7c0.4,0.2,0.8,0.3,1.2,0.4c0.3,0.1,0.6,0.2,0.8,0.3c0.7,0,0.7,0.1,1.4,0.1
		c0.8,0,0.8-0.1,1.6-0.1c0.7,0,0.7,0.1,1.4,0.1c0.6,0,0.6,0,1.2,0c0.3,0,0.3-0.3,0.5-0.3c0.6,0,1.1-0.1,1.6-0.2
		c0.4-0.1,0.8-0.4,1-0.7c0.1-0.3,0.2-0.5,0.1-0.8c0-0.9,0.2-0.9,0.2-1.8c0-0.1,0-0.1,0-0.1c0-0.5,0-0.7,0-1.4c0-1,0-1,0-1.9
		c0-0.4,0-0.4,0-0.8c0-0.8,0.6-1.4,1.4-1.4l0,0c0.8,0,0.8,0,1.5,0c0.9,0,0.9,0,1.8,0h0.4c0,0,0.1-0.1,0.2-0.1c0.8,0,0.8-0.2,1.6-0.2
		c0.7,0,0.7-0.1,1.5-0.1c0.6,0,0.6,0.2,1.2,0.2c0.1,0,0.1,0,0.3,0c0.5,0,1.1,0,1.6,0.1s1,0.4,1.4,0.8s0.3,1.1,0.5,1.7
		c0.2,0.5,0.4,1,0.6,1.6c0,0.4-0.1,0.9-0.1,1.5c0,0.3,0,0.6,0,0.9c0,0.8,0.1,0.8,0.1,1.6C207.5,488.6,207.3,488.6,207.2,489.2
		L207.2,489.2z M211.5,477.4c-0.7,0-0.7,0-1.3,0h-1.1c-0.5,0-0.5,0-1,0c-0.6,0-1.2-0.5-1.2-1.2l0,0c0-0.9,0-0.9,0-1.8s0-0.9,0-1.7
		c0-0.8,0-0.8,0-1.6v-0.7c0-0.6,0.5-1.2,1.2-1.2l0,0c0.6,0,0.6,0,1.3,0c0.8,0,0.8,0,1.5,0h1.3c0.6,0,0.6,0,1.1,0s0.5,0,1,0
		c0.6,0,1.1,0.5,1.1,1.1l0,0c0,0.9,0,0.9,0,1.9c0,0.9,0,0.9,0,1.7c0,0.8,0,0.8,0,1.6c0,0.3,0,0.3,0,0.7c0,0.7-0.5,1.2-1.2,1.2
		c-0.6,0-0.6,0-1.3,0C212.3,477.4,212.3,477.4,211.5,477.4L211.5,477.4z"/>
	<path class="st0" d="M442.3,331.4c0-1.5,0-2.5,0-3.3c0-0.9-0.1-1.8-0.1-3.6c0-0.7-0.5-1.3-1.3-1.4l0,0c-1.4,0-2.2-0.1-3-0.1
		c-1.2,0-2.1,0-4.3,0c-0.8,0-1.4,0.7-1.4,1.4c0,1.6,0,2.5,0,3.3c0,0.9,0.1,1.8,0.1,3.6c0,0.7,0.6,1.4,1.3,1.4l0,0c1.8,0,2.7,0,3.6,0
		s1.8,0,3.7,0C441.7,332.8,442.3,332.2,442.3,331.4z"/>
	<path class="st0" d="M469.7,319.8c1.3,0,2,0,2.6,0c0.8,0,1.5,0,3,0c0.6,0,1-0.4,1-1l0,0c0-1.1,0-1.8,0-2.3c0-0.8,0-1.4,0-3
		c0-0.6-0.4-1.1-1-1.1l0,0c-1.3,0-2,0-2.6,0c-0.8,0-1.5,0-3,0c-0.6,0-1.1,0.5-1.1,1.1c0,1.1,0.1,1.8,0.1,2.3c0,0.8,0,1.4,0,3
		C468.6,319.3,469.1,319.8,469.7,319.8L469.7,319.8z"/>
	<path class="st0" d="M487.7,301.5c-0.9,0-1.5,0-2,0c-0.8,0-1.4,0-3,0c-0.5,0-1,0.4-1,0.9c0,2.3,0,2.3,0,4.7c0,0.5,0.4,0.9,0.9,0.9
		l0,0c0.9,0,1.5,0.1,2,0.1c0.8,0,1.4,0,3,0c0.5,0,0.9-0.4,0.9-1l0,0c0-2.4,0-2.4,0.1-4.7C488.7,301.9,488.3,301.5,487.7,301.5
		L487.7,301.5z"/>
	<path class="st0" d="M463.6,323.9c-1.3,0-2,0-2.6,0c-0.8,0-1.5,0-3,0c-0.6,0-1.1,0.4-1.1,1l0,0c0,1.1,0,1.8,0,2.3
		c0,0.8,0.1,1.4,0.1,3c0,0.6,0.4,1,1,1c0,0,0,0,0.1,0c1.3,0,2,0,2.6,0c0.8,0,1.5,0.1,3,0.1c0.6,0,1.1-0.5,1.1-1.1c0-1.1,0-1.8,0-2.3
		c0-0.8-0.1-1.4-0.1-3C464.7,324.3,464.2,323.9,463.6,323.9C463.7,323.9,463.7,323.9,463.6,323.9z"/>
	<path class="st0" d="M360.2,422.2c0.7,0,1.1,0,1.5,0s0.8,0,1.7,0c0.3,0,0.6-0.3,0.6-0.6l0,0c0-0.6,0-1,0-1.3c0-0.4,0-0.8,0-1.6
		c0-0.3-0.3-0.6-0.6-0.6l0,0c-0.7,0-1.1,0-1.5,0s-0.8,0-1.7,0c-0.3,0-0.6,0.2-0.6,0.6l0,0c0,0.6,0,1,0,1.3c0,0.4,0,0.8,0,1.6
		C359.6,421.9,359.9,422.2,360.2,422.2z"/>
	<path class="st0" d="M374.1,407.5c-0.4,0-0.8,0.3-0.8,0.8c0,2,0,2,0,3.9c0,0.4,0.3,0.8,0.7,0.8l0,0c2.1,0,2.1,0,4.2,0
		c0.4,0,0.8-0.4,0.8-0.8l0,0c0-2,0-2,0-3.9c0-0.4-0.3-0.8-0.7-0.8l0,0C376.2,407.5,376.2,407.5,374.1,407.5z"/>
	<path class="st0" d="M396,379.8c0-1.5,0-2.3,0-3.1c0-1,0-1.9,0-3.9c0-0.8-0.6-1.4-1.4-1.4l0,0c-1.7,0-2.6,0.1-3.5,0.1
		c-1,0-1.9,0-3.9,0c-0.8,0-1.4,0.6-1.4,1.3l0,0c0,1.5,0.1,2.3,0.1,3.1c0,1-0.1,1.9-0.1,3.9c0,0.8,0.7,1.4,1.4,1.4c1.7,0,2.6,0,3.5,0
		c1,0,1.9,0,3.9,0C395.4,381.2,396,380.6,396,379.8z"/>
	<path class="st0" d="M384.7,401.1c0,0.5,0.4,0.9,0.9,0.9l0,0c1,0,1.6,0.1,2.1,0.1c0.8,0,1.4,0,2.9,0c0.5,0,0.9-0.4,0.9-1l0,0
		c0-0.8,0-1.4,0-1.8c0-0.8,0.1-1.4,0.1-2.9c0-0.5-0.4-0.9-1-0.9c-1,0-1.6,0-2.1,0c-0.8,0-1.4,0-2.9,0c-0.5,0-0.9,0.4-1,0.9l0,0
		c0,0.8,0,1.4,0,1.8C384.7,399,384.7,399.6,384.7,401.1z"/>
	<path class="st0" d="M284.6,453.6c-1.4,0-2.1,0-2.8,0c-0.9,0-1.7,0-3.5,0c-0.6,0-1.2,0.5-1.2,1.2l0,0c0,1.2,0,1.9,0,2.5
		c0,0.9,0,1.7,0,3.5c0,0.6,0.5,1.2,1.1,1.2l0,0c1.4,0,2.1,0,2.8,0c0.9,0,1.7,0,3.5,0c0.7,0,1.2-0.6,1.2-1.2c0-1.2,0-1.9,0-2.5
		c0-0.9,0-1.7,0-3.5C285.8,454.2,285.3,453.6,284.6,453.6z"/>
	<path class="st0" d="M325.2,438.1c1.5,0,2.3,0,3.1,0c0.9,0,1.7,0,3.5,0c0.7,0,1.2-0.6,1.2-1.2l0,0c0-1.3,0-2.1,0-2.7
		c0-0.9,0-1.7,0-3.5c0-0.7-0.5-1.2-1.2-1.2l0,0c-1.5,0-2.3,0.1-3.1,0.1c-0.9,0-1.7,0-3.5,0c-0.7,0-1.2,0.5-1.3,1.2l0,0
		c0,1.3,0,2.1,0.1,2.7c0,0.9-0.1,1.7-0.1,3.5C324,437.5,324.5,438.1,325.2,438.1z"/>
	<path class="st0" d="M430,361.5c0-0.6-0.5-1.1-1.1-1.1l0,0c-1.2,0-1.9,0-2.5,0c-1,0-1.7,0-3.5,0c-0.6,0-1.2,0.5-1.2,1.1
		c0,1.4,0,2.1,0,2.8c0,0.7,0,1.5,0,2.9c0,0.6,0.5,1.1,1.1,1.2c0,0,0,0,0.1,0c1.2,0,1.9,0,2.5,0c1,0,1.7,0,3.5,0
		c0.6,0,1.1-0.5,1.1-1.1l0,0c0-1.4-0.1-2.1,0-2.8C429.9,363.7,430,363,430,361.5z"/>
	<path class="st0" d="M313.5,447.5c0.8,0,1.3,0,1.7,0c0.5,0,1,0,1.9,0c0.4,0,0.7-0.3,0.7-0.7l0,0c0-0.7,0-1.2,0-1.5
		c0-0.5,0-0.9,0-1.9c0-0.4-0.3-0.7-0.7-0.7l0,0c-0.8,0-1.3,0-1.7,0c-0.5,0-1,0-1.9,0c-0.4,0-0.7,0.3-0.7,0.7l0,0c0,0.7,0,1.1,0,1.5
		c0,0.5,0,0.9,0,1.9C312.8,447.2,313.2,447.5,313.5,447.5z"/>
	<path class="st0" d="M419.1,354.6c0-1.6,0-2.5,0-3.3c0-0.9-0.1-1.8-0.1-3.6c0-0.7-0.5-1.3-1.3-1.4c0,0,0,0-0.1,0
		c-1.4,0-2.2-0.1-3-0.1c-1.2,0-2.1,0-4.3,0c-0.8,0-1.4,0.7-1.4,1.4c0,1.6,0,2.5,0,3.3c0,0.9,0.1,1.8,0.1,3.6c0,0.7,0.6,1.4,1.3,1.4
		l0,0c1.8,0,2.7,0,3.6,0s1.8,0,3.6,0C418.5,356,419.2,355.4,419.1,354.6z"/>
	<path class="st0" d="M431.2,343.2c0-1.6,0-2.5,0-3.3c0-0.9-0.1-1.8-0.1-3.7c0-0.7-0.5-1.3-1.3-1.4l0,0c-1.4,0-2.3-0.1-3-0.1
		c-1.2,0-2.1,0-4.4,0c-0.8,0-1.4,0.7-1.4,1.5c0,1.6,0,2.5,0,3.3c0,0.9,0.1,1.8,0.1,3.7c0,0.8,0.6,1.4,1.3,1.4l0,0c1.9,0,2.8,0,3.7,0
		s1.8,0,3.7,0C430.6,344.6,431.3,344,431.2,343.2z"/>
	<path class="st0" d="M413.5,371.5c-0.9,0-1.6,0-3.4,0c-0.6,0-1.1,0.5-1.1,1.1c0,0,0,0,0,0.1c0,1.1,0,1.8,0,2.4c0,0.9,0,1.6,0,3.4
		c0,0.6,0.5,1.2,1.2,1.2l0,0c1.3,0,2,0,2.7,0c0.9,0,1.6,0,3.4,0c0.6,0,1.1-0.5,1.1-1.1l0,0c0-1.1,0.1-1.8,0.1-2.4c0-0.9,0-1.6,0-3.4
		c0-0.6-0.6-1.1-1.2-1.1C414.9,371.5,414.2,371.5,413.5,371.5z"/>
	<path class="st0" d="M404.3,382.9c-1.4,0-2.1,0-2.8,0c-0.8,0-1.5,0-3,0c-0.6,0-1.1,0.5-1.1,1.1c0,1.2-0.1,1.9-0.1,2.5
		c0,0.8,0.1,1.5,0.1,3c0,0.6,0.5,1.1,1.1,1.1c1.4,0,2.1,0,2.8,0c0.8,0,1.5,0,3,0c0.6,0,1.1-0.5,1.1-1.1c0-1.2,0-1.9,0-2.5
		c0-0.8,0-1.5,0-3C405.3,383.4,404.9,382.9,404.3,382.9z"/>
	<path class="st0" d="M407.9,366.7c0-1.6,0-2.5,0-3.3c0-0.9-0.1-1.8-0.1-3.7c0-0.7-0.5-1.4-1.3-1.4c0,0,0,0-0.1,0c-1.4,0-2.3,0-3,0
		c-1.2,0-2.1,0-4.4,0c-0.8,0-1.4,0.7-1.4,1.5c0,1.6,0,2.5,0,3.3c0,0.9,0.1,1.8,0.1,3.7c0,0.8,0.6,1.4,1.3,1.4l0,0c1.9,0,2.8,0,3.7,0
		s1.8,0,3.7,0C407.3,368.1,407.9,367.4,407.9,366.7z"/>
</g>
<g id="LOGO">
	<path class="st1" d="M503.4,570.7c-14.9,0-21.2,13.9-21.2,34.4c0,21.9,5.6,37.1,21.2,37.1c15.5,0,21.2-15.2,21.2-37.1
		C524.6,584.6,518.3,570.7,503.4,570.7z"/>
	<path class="st1" d="M155.3,577c-4.5,16.6-8.4,27.7-12.8,41.4h24.3c-3.8-13.7-7.1-24.8-11.2-41.4H155.3z"/>
	<path class="st0" d="M567.8,655.2h-2.9v6.9h1.9c4.2,0,5.1-2.4,5.1-3.9C571.9,656,570,655.2,567.8,655.2z"/>
	<path class="st1" d="M568.2,648.9c-7.4,0-13.6,6.5-13.6,14c0,7.6,6.2,14.1,13.6,14.1c7.4,0,13.5-6.5,13.5-14.1
		C581.7,655.4,575.6,648.9,568.2,648.9z M574,671.6l-5.6-7.7h-3.6v7.4h-3.2v-17.9h6.8c3.9,0,7,1.5,7,4.6c0,2.6-1.7,4.1-4,5.2
		l5.9,7.6L574,671.6z"/>
	<rect x="79.4" y="80.6" class="st2" width="533.4" height="625.1"/>
	<path class="st1" d="M76.4,511.4v197.8h539.4V511.4H76.4z M181.6,663.4l-9.1-27.6h-35.9l-11.1,27.6H98.1l47.2-115.9h29.3l44,115.9
		H181.6z M293.5,665.4c-38.6,0-70.2-23.2-70.2-61.1c0-35.1,28.8-58.8,68.2-58.8c7.6,0,21.4,2.1,29.6,5.8l-8.6,20.5
		c-5.6-1.7-15.9-2.2-19.2-2.2c-16.7,0-33.6,10.8-33.6,35.9c0,24.7,17.1,35.6,35.3,35.6c6.7-0.1,13.3-1,19.7-2.7l6.8,21.7
		C312.5,663.5,303,665.3,293.5,665.4L293.5,665.4z M404.7,665.4c-38.6,0-70.2-23.2-70.2-61.1c0-35.1,28.8-58.8,68.2-58.8
		c7.6,0,21.4,2.1,29.6,5.8l-8.6,20.5c-5.6-1.7-15.9-2.2-19.2-2.2c-16.7,0-33.6,10.8-33.6,35.9c0,24.7,17,35.6,35.3,35.6
		c6.6-0.1,13.3-1,19.7-2.7l6.8,21.7C423.7,663.5,414.3,665.3,404.7,665.4L404.7,665.4z M503.4,665.4c-35.6,0-57.6-26.6-57.6-61.2
		c0-32.5,24.4-58.6,57.6-58.6c33.3,0,57.6,26.1,57.6,58.6C561,638.7,539,665.4,503.4,665.4L503.4,665.4z M568.2,678.8
		c-9.3,0.2-16.9-7.2-17.1-16.4s7.2-16.9,16.4-17.1c9.3-0.2,16.9,7.2,17.1,16.4c0,0.1,0,0.2,0,0.3
		C584.7,671.1,577.4,678.6,568.2,678.8L568.2,678.8z"/>
</g>
<g id="BRANDS">
	<path class="st1" d="M96.5,754.3H114c10.8,0,14.8,3.2,14.8,8.7c0,7.3-5.7,9.6-14.9,9.6H96.5V754.3z M86.8,807.1h30.8
		c15.8,0,24.3-8.1,24.3-17.6c0-10.2-8.3-12.9-12.9-14.5c7.9-3.1,9.6-8.6,9.6-12.4c0-8.2-6.9-15.1-20.2-15.1H86.8V807.1z M96.5,779.2
		h19c7.9,0,16.7,1.7,16.7,10c0,6.6-5.1,10.9-15.1,10.9H96.5V779.2z"/>
	<path class="st1" d="M187.2,754.3h24.1c4.8,0,12.8,0.8,12.8,10c0,8.8-7.5,10.3-14.5,10.3h-22.4L187.2,754.3L187.2,754.3z
		 M187.2,781.4h23.4c11.6,0,12.8,5.8,12.8,10.6c0,2.2,0.3,11.3,1.7,15H237v-1.4c-3-1.4-3.5-2.6-3.6-6l-0.6-10.8
		c-0.4-8.3-4.5-9.8-8.6-11.2c4.6-2.3,10-5.5,10-14.3c0-12.7-11.8-16.1-23.5-16.1h-33.1v59.7h9.7L187.2,781.4z"/>
	<path class="st1" d="M285.5,782.5l11.4-26.3h0.2l10.6,26.3H285.5z M311.2,789.7l7.1,17.4h10.6L303,747.4h-11l-27,59.7h10l7.5-17.4
		H311.2L311.2,789.7z"/>
	<path class="st1" d="M408,747.4h9.4v59.7h-10.9l-36.4-48.2h-0.2v48.2h-9.4v-59.7H372l35.8,48.2h0.2V747.4z"/>
	<path class="st1" d="M465.6,754.3h18c13.1,0,21.4,7.6,21.4,22.6s-8.2,23.3-20.7,23.3h-18.7L465.6,754.3L465.6,754.3z M455.9,807.1
		h28.5c23.5,0,30.5-17.3,30.5-30.7c0-17.2-11.5-29-30.1-29h-29L455.9,807.1z"/>
	<path class="st1" d="M593.4,764.8c-0.5-9.2-9.7-12.2-17.8-12.2c-6.1,0-16.3,1.4-16.3,10.5c0,5.1,4.3,6.7,8.5,7.6l20.4,3.9
		c9.2,1.8,16.2,6.5,16.2,16c0,14.1-15.7,18.1-28,18.1c-13.3,0-18.4-3.4-21.6-5.8c-6.1-4.6-7.3-9.5-7.3-15.1h9.1
		c0,10.8,10.5,13.9,19.7,13.9c7,0,18.7-1.5,18.7-10.1c0-6.2-3.5-8.2-15.3-10.5l-14.6-2.8c-4.7-0.9-15.3-3.7-15.3-14
		c0-9.3,7.3-18.4,24.6-18.4c25,0,27.5,12.4,27.9,19L593.4,764.8z"/>
</g>
</svg>
