<?xml version="1.0" encoding="utf-8"?>
<!-- Generator: Adobe Illustrator 23.0.6, SVG Export Plug-In . SVG Version: 6.00 Build 0)  -->
<svg version="1.1" id="Layer_1" xmlns="http://www.w3.org/2000/svg" xmlns:xlink="http://www.w3.org/1999/xlink" x="0px" y="0px"
	 viewBox="0 0 162 73.2" style="enable-background:new 0 0 162 73.2;" xml:space="preserve">
<style type="text/css">
	.st0{fill:#FFFFFF;}
</style>
<title>Align_Digital</title>
<path class="st0" d="M70.8,0c-3,0-5.4,2.4-5.4,5.4s2.4,5.4,5.4,5.4c3,0,5.4-2.4,5.4-5.4c0,0,0,0,0,0C76.3,2.4,73.9,0,70.8,0
	C70.9,0,70.8,0,70.8,0"/>
<path class="st0" d="M129.8,17.9h8.4l0.1,3.5c2.3-2.9,5.9-4.5,9.6-4.5c9.2,0,14.2,5.7,14.2,15.6v23h-8.7V32.7c0-5.1-3.1-8-7.5-8
	s-7.4,2.9-7.4,8v22.7h-8.7V17.9z M56.7,55.4H48V0.9h8.7L56.7,55.4z M75.2,55.4h-8.7V17.9h8.7V55.4z M29.6,17.9h8.6v37.5h-8.6
	l-0.1-3.9c-3.1,3.1-7.2,4.9-11.6,5C7.6,56.5,0,48.3,0,36.7c0-12.3,8.2-19.9,17.8-19.9c4.4-0.1,8.7,1.7,11.6,5L29.6,17.9z M8.9,36.7
	c0,7.2,4.4,12,10.6,12c5.6,0,10.6-4.1,10.6-12c0-7.7-4.8-12-10.6-12C13,24.7,8.9,29.8,8.9,36.7 M111.7,36.7c0-7.8-4.9-12-10.5-12
	c-6.7,0-10.6,5.5-10.6,12c0,6.9,4.2,12,10.6,12C107.1,48.7,111.7,44.3,111.7,36.7 M119.9,51.7c0,16.1-9.4,21.4-20.5,21.4
	c-4.6,0.1-9.2-1-13.4-3l2.2-7.4c3.4,1.9,7.3,2.9,11.2,2.9c6.4,0,11.9-4.1,11.9-11.6v-2.6c-3,3.3-7.3,5.1-11.7,5
	c-10.1,0-17.7-8.1-17.7-19.8c0-11.2,7.2-19.8,17.8-19.8c4.4-0.1,8.7,1.7,11.6,5l0.1-4h8.6L119.9,51.7z"/>
</svg>
