<?xml version="1.0" encoding="utf-8"?>
<!-- Generator: Adobe Illustrator 23.0.6, SVG Export Plug-In . SVG Version: 6.00 Build 0)  -->
<svg version="1.1" id="Layer_1" xmlns="http://www.w3.org/2000/svg" xmlns:xlink="http://www.w3.org/1999/xlink" x="0px" y="0px"
	 viewBox="0 0 184.9 132.6" style="enable-background:new 0 0 184.9 132.6;" xml:space="preserve">
<style type="text/css">
	.st0{fill:#FFFFFF;}
</style>
<g>
	<g>
		<path class="st0" d="M142,20h1.9v11.9H142c-0.4-3.3-1.9-5.9-4.5-7.7c-2.5-1.8-5.8-2.8-9.6-2.8c-3.4,0-6.2,0.7-8.3,2.1
			c-2.1,1.4-3.2,3.2-3.2,5.6c0,2.1,0.9,4.1,2.6,5.8c1.7,1.8,5.5,4,11.3,6.8c6.7,3.2,11.2,6,13.6,8.4c2.3,2.4,3.5,5.1,3.5,8.2
			c0,4-1.8,7.4-5.3,10.2c-3.5,2.8-7.8,4.2-12.8,4.2c-2.9,0-6.6-0.6-11.1-1.9c-1.8-0.5-3-0.8-3.5-0.8c-1,0-1.9,0.7-2.4,2h-1.9V58.4
			h1.9c0,3.8,1.6,6.8,4.6,9.1c3.1,2.3,6.6,3.4,10.7,3.4c3.9,0,7-0.8,9.3-2.5c2.3-1.7,3.5-3.9,3.5-6.6c0-2.1-0.9-4-2.8-5.9
			c-1.9-1.9-5.9-4.3-12-7.2c-5-2.4-8.3-4.4-10-5.8c-1.7-1.4-2.9-3-3.7-4.7c-0.8-1.7-1.2-3.6-1.2-5.6c0-3.9,1.6-7.1,4.8-9.5
			c3.2-2.4,7.4-3.6,12.5-3.6c2.8,0,5.9,0.4,9.2,1.3c1.6,0.4,2.6,0.6,3.2,0.6c0.5,0,0.9-0.1,1-0.3C141.6,21,141.8,20.6,142,20"/>
		<path class="st0" d="M100.7,20.6v14.9h-1.6c-1.2-4.6-3.3-8-6-10.2C90.3,23.1,86.7,22,82,22c-6,0-10.7,2-14.2,6.1
			c-3.5,4.1-5.2,9.5-5.2,16.3c0,7.4,1.8,13.4,5.5,18c3.7,4.5,8.5,6.8,14.5,6.8c8.3,0,14.4-3.6,18.4-10.9l1.4,1.2
			c-1.8,4-4.6,7.1-8.5,9.4c-3.9,2.3-8.4,3.5-13.4,3.5c-4.8,0-9.2-1.1-13.2-3.2c-4.1-2.1-7.2-5-9.4-8.8c-2.2-3.7-3.3-8-3.3-12.8
			c0-7.9,2.6-14.5,7.7-19.7c5.1-5.2,11.6-7.8,19.5-7.8c2.6,0,6,0.4,10,1.3c2.3,0.5,3.8,0.8,4.7,0.8c1.3,0,2.3-0.5,2.8-1.6
			L100.7,20.6L100.7,20.6z"/>
		<path class="st0" d="M46.2,20.7v14.9h-1.6c-1.3-4.6-3.3-8-6-10.2c-2.8-2.2-6.5-3.3-11.1-3.3c-6,0-10.7,2-14.2,6.1
			c-3.5,4.1-5.2,9.5-5.2,16.3c0,7.4,1.8,13.4,5.5,18c3.7,4.5,8.5,6.8,14.5,6.8c8.3,0,14.4-3.6,18.4-10.9l1.4,1.2
			c-1.8,4-4.6,7.1-8.6,9.4c-3.9,2.3-8.4,3.5-13.4,3.5c-4.8,0-9.2-1.1-13.2-3.2c-4.1-2.1-7.2-5-9.4-8.8C1.1,56.8,0,52.5,0,47.7
			C0,39.7,2.6,33.2,7.7,28c5.1-5.2,11.6-7.8,19.4-7.8c2.6,0,6,0.4,10,1.3c2.3,0.5,3.8,0.8,4.7,0.8c1.4,0,2.3-0.5,2.8-1.6L46.2,20.7
			L46.2,20.7z"/>
	</g>
	<polygon class="st0" points="47.6,85.3 50.3,85.3 52.4,90.5 54.6,85.3 57.2,85.3 58.8,95 56.1,95 55.4,89.4 55.3,89.4 52.9,95 
		51.8,95 49.4,89.4 49.4,89.4 48.6,95 45.9,95 	"/>
	<polygon class="st0" points="76.5,87.4 76.5,89 79.5,89 79.5,91.2 76.5,91.2 76.5,92.8 79.7,92.8 79.7,95 73.8,95 73.8,85.3 
		79.7,85.3 79.7,87.4 	"/>
	<g>
		<path class="st0" d="M97.9,92.8h0.6c1.6,0,3-0.8,3-2.7c0-1.7-1.2-2.7-2.9-2.7h-0.6V92.8z M95.2,85.3H99c2.9,0,5.2,2.1,5.2,4.9
			c0,2.7-2.4,4.9-5.2,4.9h-3.8V85.3z"/>
	</g>
	<rect x="119.4" y="85.3" class="st0" width="2.7" height="9.7"/>
	<path class="st0" d="M142.2,88.3L142.2,88.3l-1.1,3.1h2.2L142.2,88.3z M140.3,93.3l-0.7,1.7h-2.8l4-9.7h2.9l3.9,9.7h-2.9l-0.7-1.7
		H140.3z"/>
	<g>
		<path class="st0" d="M141.5,0c-0.1-0.1,74.8,78.2,28.1,117.7c-45.9,38.8-128-10.3-128-10.3s78.9,36.1,116.6,0.4
			C193.7,74.2,159.3,23.2,141.5,0"/>
	</g>
</g>
</svg>
