<?xml version="1.0" encoding="utf-8"?>
<!-- Generator: Adobe Illustrator 23.1.1, SVG Export Plug-In . SVG Version: 6.00 Build 0)  -->
<svg version="1.1" id="Reflet_Drt" xmlns="http://www.w3.org/2000/svg" xmlns:xlink="http://www.w3.org/1999/xlink" x="0px" y="0px"
	 viewBox="0 0 79.5 58.8" style="enable-background:new 0 0 79.5 58.8;" xml:space="preserve">
<style type="text/css">
	.st0{fill:#000111;}
	.st1{fill:none;}
</style>
<g>
	<g>
		<path class="st0" d="M51,48.9c-1.8,0-3.6,0-3.7,0c-2.2,0-4,1.5-4,3.4s1.8,3.5,4,3.5c0,0,1.8,0,3.7,0c2.2,0,4-1.6,4-3.5
			S53.2,48.9,51,48.9z M49.7,54.8c0,0-0.7,0-1.2,0c-1.3,0-2.6-1-2.6-2.5s1.3-2.4,2.6-2.4c0,0,0.6,0,1.2,0c1.3,0,2.6,0.9,2.6,2.4
			C52.4,53.8,51,54.8,49.7,54.8z"/>
		<path class="st0" d="M74.4,55.6h2.2v-3.3c0-1.9-1.7-3.4-3.9-3.4H67c-0.1,0-0.3,0-0.3,0.2v6.2c0,0.2,0.1,0.3,0.2,0.3h2.4v-5.2
			c0-0.2,0.2-0.3,0.3-0.3h2.6c0.7,0,1.8,0.7,1.8,2.1v3.2C74.1,55.4,74.2,55.6,74.4,55.6z"/>
		<path class="st0" d="M27,50.3h3.5v-1.1c0-0.1-0.1-0.3-0.3-0.3h-9.8c-0.2,0-0.3,0.1-0.3,0.3v1.1h2.3c0.9,0,1.5,0.8,1.5,1.5v3.6
			c0,0.1,0.1,0.3,0.3,0.3h2.4v-5C26.7,50.4,26.8,50.3,27,50.3z"/>
		<path class="st0" d="M16.2,55.4c0,0.2,0.1,0.3,0.3,0.3h2.4v-6.4c0-0.1-0.1-0.3-0.3-0.3h-2.1c-0.1,0-0.3,0.1-0.3,0.3V55.4z"/>
		<path class="st0" d="M39.6,55.6h2.6c-0.1-1.7-1.9-2.4-1.9-2.4l0,0c1.2-0.3,1.9-1.1,1.9-2.1s-1-2.2-2.6-2.2h-6.3
			c-0.8,0-1.4,0.6-1.4,1.4v5.1c0,0.1,0.1,0.3,0.3,0.3h2.4v-2.4h2.2C38.8,53.3,39.6,54.7,39.6,55.6z M34.5,52.1v-1.3
			c0-0.4,0.3-0.6,0.6-0.6h3.5c0.5,0,1,0.4,1,1c0,0.5-0.4,1-1,1C38.6,52.1,34.5,52.1,34.5,52.1z"/>
		<path class="st0" d="M12.2,51.2c0,0,2.4,0,2.6,0c-0.6-1.4-2.2-2.4-3.8-2.4c-0.9,0-2.6-0.1-3.6,0c-1.3,0.1-2,0.3-2.8,1
			s-1.2,1.5-1.2,2.5c0,1.9,1.7,3.4,4,3.5c1.5,0.1,1.7,0.1,3.7,0c1.9-0.1,3.2-0.9,3.8-2.4c-0.1,0-2.6,0-2.6,0c-0.1,0-0.2,0-0.2,0.1
			c-0.5,0.8-1.3,1.3-2.3,1.3c-0.3,0-0.8,0-1.2,0c-1.3,0-2.6-0.9-2.6-2.5c0-1.5,1.3-2.5,2.6-2.5c0.1,0,0.7,0,1.1,0
			c0.9,0,1.9,0.5,2.3,1.3C12,51.1,12.1,51.2,12.2,51.2z"/>
		<path class="st0" d="M65.4,54.4c0,0-0.3,0-6.2,0c-0.2,0-0.4-0.1-0.4-0.3v-1.3h5.4v-1.2h-5.4v-1.2c0,0,0-0.3,0.4-0.3h6.1v-0.9
			c0-0.3-0.3-0.3-0.3-0.3h-8.6c0,0-0.3,0-0.3,0.3v5.1c0,0.7,0.5,1.4,1.4,1.4H65c0.2,0,0.3-0.2,0.3-0.2L65.4,54.4L65.4,54.4z"/>
		<path class="st0" d="M63.5,46.5c-0.2-0.2-0.6-0.2-0.9-0.2s-0.7,0.1-0.9,0.2s-0.4,0.3-0.7,0.3s-0.5-0.2-0.7-0.3
			c-0.3-0.2-0.6-0.2-0.9-0.2c-0.4,0-0.7,0.1-0.9,0.2c-0.3,0.2-0.4,0.3-0.4,0.6s0.1,0.4,0.4,0.6c0.3,0.2,0.6,0.2,0.9,0.2
			s0.7-0.1,0.9-0.2s0.5-0.4,0.7-0.4c0.3,0,0.5,0.2,0.7,0.3s0.6,0.2,0.9,0.2c0.4,0,0.7-0.1,0.9-0.2c0.2-0.2,0.4-0.3,0.4-0.6
			C63.8,46.9,63.7,46.7,63.5,46.5z"/>
	</g>
	<path class="st0" d="M24.9,17.8c-3,2.5-5.3,4.8-6.1,5.6c0,1,0.1,3.2,0.1,3.2s0,0.8,0.6,0.3l0.6-0.5c6-5.5,12.1-10.3,17-12.4
		c0.3-0.2,0.9-0.3,0.6-0.6c-0.2-0.2-0.8-0.2-1.1-0.2C31.5,13.4,25.2,17.6,24.9,17.8L24.9,17.8L24.9,17.8z"/>
	<path class="st0" d="M55,17.8c3,2.5,5.3,4.8,6.1,5.6c0,1-0.1,3.2-0.1,3.2s0,0.8-0.6,0.3l-0.6-0.5c-6-5.5-12.1-10.3-17-12.4
		c-0.3-0.2-0.9-0.3-0.6-0.6c0.2-0.2,0.8-0.2,1.1-0.2C48.5,13.4,54.8,17.6,55,17.8L55,17.8L55,17.8z"/>
	<path class="st0" d="M24.9,32.8c-3,2.5-5.3,4.8-6.1,5.6c0,1,0.1,3.2,0.1,3.2s0,0.8,0.6,0.3l0.6-0.5c6-5.5,12.1-10.3,17-12.4
		c0.3-0.2,0.9-0.3,0.6-0.6c-0.2-0.2-0.8-0.2-1.1-0.2C31.5,28.4,25.2,32.6,24.9,32.8L24.9,32.8L24.9,32.8z"/>
	<path class="st0" d="M55,32.8c3,2.5,5.3,4.8,6.1,5.6c0,1-0.1,3.2-0.1,3.2s0,0.8-0.6,0.3l-0.6-0.5c-6-5.5-12.1-10.3-17-12.4
		c-0.3-0.2-0.9-0.3-0.6-0.6c0.2-0.2,0.8-0.2,1.1-0.2C48.5,28.4,54.8,32.6,55,32.8L55,32.8L55,32.8z"/>
	<path class="st0" d="M59.8,20.4C59.6,20.2,45,4.2,40,4.2s-19.6,16-19.8,16.2c0,0-1.2,1.4-1.3,3c0.8-0.8,3.1-3.1,6.1-5.6
		c0,0,0.9-0.8,2.3-1.8c3-2.3,8.3-5.8,12.8-5.8s9.8,3.6,12.8,5.8c1.4,1,2.3,1.8,2.3,1.8c3,2.5,5.3,4.8,6.1,5.6
		C61,21.8,59.8,20.5,59.8,20.4z"/>
	<path class="st0" d="M59.8,35.5C59.6,35.3,45,19.2,40,19.2s-19.6,16-19.8,16.2c0,0-1.2,1.4-1.3,3c0.8-0.8,3.1-3.1,6.1-5.6
		c0,0,0.9-0.8,2.3-1.8c3-2.3,8.3-5.8,12.8-5.8s9.8,3.5,12.8,5.8c1.4,1,2.3,1.8,2.3,1.8c3,2.5,5.3,4.8,6.1,5.6
		C61,36.8,59.8,35.5,59.8,35.5z"/>
	<path class="st0" d="M60,21.5C51.8,12,42.9,4.8,40.3,4.7c-0.4,0-0.4,0.3-0.4,0.3c0,3.1,0.2,3.6,2.3,4.5C42.5,9.6,50.5,12,60,21.7
		l0.1,0.1L60,21.5z"/>
	<path class="st0" d="M60,36.5c-8.2-9.4-17.2-16.6-19.7-16.8c-0.4,0-0.4,0.3-0.4,0.3c0,3.1,0.2,3.6,2.3,4.5
		c0.3,0.1,8.3,2.5,17.8,12.2l0.1,0.1L60,36.5z"/>
	<rect x="-22.7" y="-22.1" class="st1" width="125.6" height="104.1"/>
</g>
</svg>
