<?xml version="1.0" encoding="utf-8"?>
<!-- Generator: Adobe Illustrator 23.0.6, SVG Export Plug-In . SVG Version: 6.00 Build 0)  -->
<svg version="1.1" id="Layer_1" xmlns="http://www.w3.org/2000/svg" xmlns:xlink="http://www.w3.org/1999/xlink" x="0px" y="0px"
	 viewBox="0 0 2500 685" style="enable-background:new 0 0 2500 685;" xml:space="preserve">
<style type="text/css">
	.st0{fill:#FFFFFF;}
</style>
<path class="st0" d="M0,0v682.5h112.5V378.8c205,280,537.5,318.8,677.5,303.8V0H678.8v567.5c-465-50-571.3-398.8-566.3-567.5H0z
	 M961.2,0h-115c-8.8,292.5,232.5,406.2,353.7,425v256.2h121.2V425c301.2-57.5,362.5-307.5,356.2-425h-116.3
	C1561.2,432.5,947.5,410,961.2,0L961.2,0z M1828.8,0h-111.2c-22.5,178.8,118.8,298.8,191.2,336.2c-175,98.8-203.8,270-196.2,343.8
	h116.2c20-406.2,576.2-343.7,558.8,0h110c15-171.2-118.8-300-188.8-343.7c175-100,198.7-266.2,188.8-336.2h-110
	C2370,415,1805,333.8,1828.8,0L1828.8,0z"/>
</svg>
