<?xml version="1.0" encoding="utf-8"?>
<!-- Generator: Adobe Illustrator 23.0.6, SVG Export Plug-In . SVG Version: 6.00 Build 0)  -->
<svg version="1.1"
	 id="svg2443" inkscape:output_extension="org.inkscape.output.svg.inkscape" inkscape:version="0.46" sodipodi:docname="peu.svg" sodipodi:version="0.32" xmlns:cc="http://creativecommons.org/ns#" xmlns:dc="http://purl.org/dc/elements/1.1/" xmlns:inkscape="http://www.inkscape.org/namespaces/inkscape" xmlns:rdf="http://www.w3.org/1999/02/22-rdf-syntax-ns#" xmlns:sodipodi="http://sodipodi.sourceforge.net/DTD/sodipodi-0.dtd" xmlns:svg="http://www.w3.org/2000/svg"
	 xmlns="http://www.w3.org/2000/svg" xmlns:xlink="http://www.w3.org/1999/xlink" x="0px" y="0px" viewBox="0 0 385.7 37.8"
	 style="enable-background:new 0 0 385.7 37.8;" xml:space="preserve">
<style type="text/css">
	.st0{fill:#FFFFFF;}
</style>
<defs>
	
	
		<inkscape:perspective  id="perspective2450" inkscape:persp3d-origin="372.04724 : 350.78739 : 1" inkscape:vp_x="0 : 526.18109 : 1" inkscape:vp_y="0 : 1000 : 0" inkscape:vp_z="744.09448 : 526.18109 : 1" sodipodi:type="inkscape:persp3d">
		</inkscape:perspective>
</defs>
<sodipodi:namedview  bordercolor="#666666" borderopacity="1.0" gridtolerance="10.0" guidetolerance="10.0" id="base" inkscape:current-layer="g2452" inkscape:cx="49.506874" inkscape:cy="34.877579" inkscape:pageopacity="0.0" inkscape:pageshadow="2" inkscape:window-height="750" inkscape:window-width="1280" inkscape:window-x="-8" inkscape:window-y="-8" inkscape:zoom="1" objecttolerance="10.0" pagecolor="#ffffff" showgrid="false">
	</sodipodi:namedview>
<g id="g2452" transform="matrix(1.25,0,0,-1.25,-774.54957,206.1884)" inkscape:groupmode="layer" inkscape:label="peu">
	<g id="g3256" transform="matrix(3.8554447,0,0,3.8554447,-2209.9329,-160.61495)">
		<g id="g3220">
			<g>
				<g id="g3222">
					<g id="g3228" transform="translate(734.3307,35.2519)">
						<path id="path3230" class="st0" d="M0,48.6v-6.7h1.8V44h1.7c3.5,0,5.3,1.1,5.3,2.4s-1.9,2.2-5.1,2.2H0 M1.8,44.7v3.2h1.4
							c1.5,0,3.5-0.3,3.5-1.5c0-0.8-0.6-1.7-3.7-1.7H1.8z"/>
					</g>
					<g id="g3232" transform="translate(753.678,28.559)">
						<path id="path3234" class="st0" d="M0,48.6v0.8h-4.5c-1,0-1.3,0.4-1.3,1.2v1h5.3v0.8h-5.3v2h5.6v0.8h-7.4v-4.6
							c0-1.3,0.5-2,2.2-2H0z"/>
					</g>
					<g id="g3236" transform="translate(765.4728,35.2519)">
						<path id="path3238" class="st0" d="M0,48.6h-1.8V43C-2.4,42.8-3,42.6-4,42.6c-1.4,0-2.8,0.4-2.8,1.6v4.4h-1.8v-4.5
							c0-1.8,1.8-2.4,3.9-2.4c1.8,0,3.4,0.4,4.7,0.9V48.6z"/>
					</g>
					<g id="g3240" transform="translate(770.5976,31.8866)">
						<path id="path3242" class="st0" d="M0,48.6c0,1.9,1.6,2.7,3.5,2.7c1.6,0,2.8-0.5,3.9-0.8v1.1c-1.2,0.4-2.3,0.6-3.9,0.6
							c-3.1,0-5.6-1.4-5.6-3.6c0-2.3,2.5-3.5,5.6-3.5c1.5,0,3.2,0.3,4.1,0.5v2.7H5.8v-2c-0.6-0.2-1.1-0.4-2.2-0.4
							C1.5,45.9,0,46.9,0,48.6"/>
					</g>
					<g id="g3244" transform="translate(789.2414,28.559)">
						<path id="path3246" class="st0" d="M0,48.6v0.8h-4.5c-1,0-1.3,0.4-1.3,1.2v1h5.3v0.8h-5.3v2h5.6v0.8h-7.4v-4.6
							c0-1.3,0.5-2,2.2-2H0z"/>
					</g>
					<g id="g3248" transform="translate(797.2393,35.4538)">
						<path id="path3250" class="st0" d="M0,48.6c-3.1,0-5.6-1.4-5.6-3.6c0-2.3,2.5-3.5,5.6-3.5s5.6,1.2,5.6,3.5
							C5.6,47.2,3.1,48.6,0,48.6 M0,42.2c-2.1,0-3.5,1.1-3.5,2.8c0,1.8,1.6,2.8,3.5,2.8s3.5-0.9,3.5-2.8C3.5,43.3,2.1,42.2,0,42.2"
							/>
					</g>
					<g id="g3252" transform="translate(804.35,34.2918)">
						<path id="path3254" class="st0" d="M0,48.6h3.7v-5.7h1.8v5.7h3.7v1H0V48.6z"/>
					</g>
				</g>
			</g>
		</g>
	</g>
</g>
</svg>
