<?xml version="1.0" encoding="utf-8"?>
<!-- Generator: Adobe Illustrator 23.0.6, SVG Export Plug-In . SVG Version: 6.00 Build 0)  -->
<svg version="1.1" id="Layer_1" xmlns="http://www.w3.org/2000/svg" xmlns:xlink="http://www.w3.org/1999/xlink" x="0px" y="0px"
	 viewBox="0 0 800 800" style="enable-background:new 0 0 800 800;" xml:space="preserve">
<style type="text/css">
	.st0{fill:#50565A;}
</style>
<g>
	<path class="st0" d="M401.2,13.8c0-0.4,0.3-0.7,0.7-0.7l9.1,0.3c7.4,0.3,13.2,6.5,12.9,13.9c-0.3,7.4-6.6,13.2-13.9,12.9l-9.1-0.3
		c-0.4,0-0.7-0.4-0.7-0.8L401.2,13.8z M409.7,35.5c5,0.2,8.8-3.4,8.9-8.4c0.2-5-3.3-8.9-8.3-9.1l-4.4-0.2l-0.7,17.5L409.7,35.5z"/>
	<path class="st0" d="M455.3,43.5L472,20.5c0.2-0.2,0.4-0.4,0.7-0.3l0.4,0.1c0.4,0.1,0.5,0.3,0.6,0.5l6.5,27.6
		c0.1,0.5-0.3,1-0.8,0.8l-3.3-0.7c-0.6-0.1-0.8-0.4-0.9-1l-1-4.4L462.9,41l-2.6,3.7c-0.2,0.3-0.6,0.7-1.2,0.5l-3.3-0.7
		C455.2,44.5,455,43.9,455.3,43.5z M473.1,38.7l-2.1-9l-0.1,0l-5.3,7.5L473.1,38.7z"/>
	<path class="st0" d="M522,34.1c0.1-0.4,0.6-0.5,0.9-0.4l0.9,0.3l9,21.4l0,0l5.6-14.8c0.1-0.4,0.5-0.6,0.9-0.4l3.3,1.2
		c0.4,0.1,0.6,0.6,0.4,0.9L534,66.5c-0.1,0.4-0.6,0.5-0.9,0.4l-0.9-0.3l-8.8-22.1l0,0l-5.8,15.4c-0.1,0.4-0.5,0.6-0.9,0.4l-3.3-1.2
		c-0.4-0.1-0.6-0.6-0.4-0.9L522,34.1z"/>
	<path class="st0" d="M580.4,60.3c0.2-0.3,0.7-0.5,1-0.3l3.1,1.7c0.3,0.2,0.5,0.7,0.3,1l-12.2,22.2c-0.2,0.3-0.7,0.5-1,0.3l-3.1-1.7
		c-0.3-0.2-0.5-0.7-0.3-1L580.4,60.3z"/>
	<path class="st0" d="M619.7,84.7c0.2-0.3,0.7-0.4,1-0.2l12.5,9.3c0.3,0.3,0.4,0.7,0.2,1l-1.9,2.5c-0.2,0.3-0.7,0.4-1,0.2l-9.1-6.7
		l-3.7,5l7.6,5.6c0.3,0.2,0.4,0.7,0.2,1l-1.9,2.6c-0.2,0.3-0.7,0.4-1,0.2l-7.6-5.6l-4,5.4l9.1,6.7c0.3,0.3,0.4,0.7,0.2,1l-1.9,2.5
		c-0.2,0.3-0.7,0.4-1,0.2l-12.5-9.3c-0.3-0.3-0.4-0.7-0.2-1L619.7,84.7z"/>
	<path class="st0" d="M663.5,121c0.3-0.3,0.7-0.3,1,0l2.5,2.5c0.3,0.3,0.3,0.8,0,1l-15.1,15.3l6.9,6.9c0.3,0.3,0.3,0.8,0,1l-2.2,2.2
		c-0.3,0.3-0.7,0.3-1,0l-10-9.9c-0.3-0.3-0.3-0.8,0-1L663.5,121z"/>
	<path class="st0" d="M731,205c2,3.3,2.3,6.4,1.6,9.8c-0.1,0.5-0.5,0.7-0.9,0.6l-3.3-0.8c-0.4-0.1-0.6-0.4-0.5-0.8
		c0.4-2.1,0-4.4-1.1-6.2c-2.5-4.2-7.9-5.3-12-2.8c-4.1,2.4-5.7,7.7-3.3,11.9c1.2,2,2.9,3.2,4.9,3.9c0.4,0.1,0.6,0.5,0.5,0.8
		l-0.9,3.3c-0.1,0.4-0.5,0.6-0.9,0.5c-3.5-1-6.2-3.2-7.9-6.1c-3.9-6.6-1.8-15,4.8-18.9S727.1,198.4,731,205z"/>
	<path class="st0" d="M727.4,255.3l28.3,1.6c0.3,0,0.5,0.1,0.6,0.5l0.1,0.4c0.1,0.4,0,0.6-0.2,0.8l-19.7,20.4
		c-0.4,0.4-1,0.3-1.2-0.2l-1.2-3.1c-0.2-0.5-0.1-0.9,0.3-1.3l3.2-3.3l-4.2-10.7l-4.5-0.2c-0.4,0-0.9-0.2-1.1-0.8l-1.2-3.1
		C726.5,255.7,726.8,255.2,727.4,255.3z M741,267.7l6.4-6.7l0-0.1l-9.2-0.4L741,267.7z"/>
	<path class="st0" d="M771.4,306.3c0.4-0.1,0.7,0.2,0.8,0.6l0.2,0.9l-13.2,19.1l0,0l15.5-3.3c0.4-0.1,0.8,0.1,0.9,0.6l0.7,3.4
		c0.1,0.4-0.2,0.8-0.6,0.9l-25.2,5.4c-0.4,0.1-0.7-0.2-0.8-0.6l-0.2-0.9l13.8-19.4l0,0l-16.1,3.5c-0.4,0.1-0.8-0.1-0.9-0.6l-0.7-3.4
		c-0.1-0.4,0.2-0.8,0.6-0.9L771.4,306.3z"/>
	<path class="st0" d="M781.1,369.8c0.4,0,0.7,0.3,0.8,0.7l0.9,15.6c0,0.4-0.3,0.7-0.7,0.8l-3.1,0.2c-0.4,0-0.7-0.3-0.8-0.7
		l-0.6-11.3l-6.3,0.3l0.5,9.4c0,0.4-0.3,0.7-0.7,0.8l-3.2,0.2c-0.4,0-0.7-0.3-0.8-0.7l-0.5-9.4l-6.7,0.4l0.6,11.3
		c0,0.4-0.3,0.7-0.7,0.8l-3.1,0.2c-0.4,0-0.7-0.3-0.8-0.7l-0.9-15.6c0-0.4,0.3-0.7,0.7-0.8L781.1,369.8z"/>
	<path class="st0" d="M777,430l0.5-5.8c0-0.4,0.4-0.7,0.8-0.7l3.1,0.3c0.4,0,0.7,0.4,0.7,0.8l-1.5,16.7c0,0.4-0.4,0.7-0.8,0.7
		l-3.1-0.3c-0.4,0-0.7-0.4-0.7-0.8l0.5-5.8l-21.4-1.9c-0.4,0-0.7-0.4-0.7-0.8l0.3-3.5c0-0.4,0.4-0.7,0.8-0.7L777,430z"/>
	<path class="st0" d="M769,482.8l1.3-5.7c0.1-0.4,0.5-0.6,0.9-0.5l3.1,0.7c0.4,0.1,0.6,0.5,0.5,0.9l-3.8,16.3
		c-0.1,0.4-0.5,0.6-0.9,0.5l-3.1-0.7c-0.4-0.1-0.6-0.5-0.5-0.9l1.3-5.7l-20.9-4.8c-0.4-0.1-0.6-0.5-0.5-0.9l0.8-3.5
		c0.1-0.4,0.5-0.6,0.9-0.5L769,482.8z"/>
	<path class="st0" d="M758.7,531.4c0.4,0.1,0.6,0.6,0.4,0.9l-1.2,3.3c-0.1,0.4-0.6,0.6-0.9,0.4l-23.7-8.9c-0.4-0.1-0.6-0.6-0.4-0.9
		l1.2-3.3c0.1-0.4,0.6-0.6,0.9-0.4L758.7,531.4z"/>
	<path class="st0" d="M705.2,599.4c2.3,1.6,2.9,4.7,1.5,6.9c-1.6,2.3-4.7,2.9-7.1,1.4c-2.2-1.5-2.8-4.7-1.3-7
		C699.8,598.6,703,597.9,705.2,599.4z"/>
	<path class="st0" d="M660.7,679.7c0.3,0.3,0.2,0.8,0,1l-2.6,2.4c-0.3,0.3-0.8,0.2-1,0l-17.2-18.6c-0.3-0.3-0.2-0.8,0-1l2.6-2.4
		c0.3-0.3,0.8-0.2,1,0L660.7,679.7z"/>
	<path class="st0" d="M587.5,734.5c0.1,0.3,0,0.6-0.3,0.8l-0.5,0.3c-0.3,0.1-0.5,0.1-0.8,0l-15.9-12c-0.1,0-0.1,0-0.1,0.1l1.1,19.9
		c0,0.3-0.1,0.5-0.4,0.6l-0.5,0.3c-0.4,0.2-0.7,0.1-0.9-0.2L553,723.7c-0.4-0.4-0.2-0.9,0.2-1.1l3.1-1.6c0.3-0.2,0.7,0,0.9,0.2
		l8.8,11.7c0,0,0.1-0.1,0.1-0.1l-1.2-16.4c0-0.2,0.1-0.5,0.4-0.7l0.6-0.3c0.3-0.2,0.6-0.1,0.8,0.1l13.1,10.1c0,0,0.1,0,0.1-0.1
		l-4.9-13.8c-0.1-0.3,0-0.7,0.3-0.8l3-1.6c0.4-0.2,0.9-0.1,1.1,0.4L587.5,734.5z"/>
	<path class="st0" d="M523.2,736.5l-3.1,28.2c0,0.3-0.2,0.5-0.5,0.6l-0.4,0.1c-0.4,0.1-0.6,0-0.8-0.2l-19.3-20.7
		c-0.4-0.4-0.2-1,0.3-1.2l3.2-1.1c0.5-0.2,0.9,0,1.3,0.4l3.1,3.3l10.9-3.6l0.5-4.5c0-0.4,0.2-0.9,0.8-1.1l3.2-1.1
		C522.8,735.6,523.2,736,523.2,736.5z M510.1,749.5l6.3,6.8l0.1,0l0.9-9.2L510.1,749.5z"/>
	<path class="st0" d="M469.9,777.1c0.1,0.5-0.2,1-0.8,1.1l-3.3,0.6c-0.5,0.1-1-0.3-1.1-0.8l-1.7-10.2l-7.7,12.3
		c-0.1,0.2-0.3,0.4-0.7,0.5l-3.8,0.6c-0.7,0.1-1.2-0.6-0.8-1.3l8-12.8l-12.7-10.9c-0.5-0.4-0.3-1.3,0.5-1.4l4.1-0.7
		c0.4-0.1,0.6,0,0.7,0.2l11.9,10.5l-1.9-11.5c-0.1-0.5,0.3-1,0.8-1.1l3.3-0.6c0.5-0.1,1,0.3,1.1,0.8L469.9,777.1z"/>
	<path class="st0" d="M410.8,783.9c0,0.4-0.3,0.7-0.7,0.7l-15.6,0.3c-0.4,0-0.7-0.3-0.7-0.7l-0.1-3.1c0-0.4,0.3-0.7,0.7-0.7
		l11.3-0.2l-0.1-6.3l-9.5,0.2c-0.4,0-0.7-0.3-0.7-0.7l-0.1-3.2c0-0.4,0.3-0.7,0.7-0.7l9.5-0.2l-0.1-6.7l-11.3,0.2
		c-0.4,0-0.7-0.3-0.7-0.7l-0.1-3.1c0-0.4,0.3-0.7,0.7-0.7l15.6-0.3c0.4,0,0.7,0.3,0.7,0.7L410.8,783.9z"/>
	<path class="st0" d="M309.7,770.2l5.7,1.4c0.4,0.1,0.6,0.5,0.5,0.9l-0.7,3.1c-0.1,0.4-0.5,0.6-0.9,0.5l-16.3-3.9
		c-0.4-0.1-0.6-0.5-0.5-0.9l0.7-3.1c0.1-0.4,0.5-0.6,0.9-0.5l5.7,1.4l5-20.9c0.1-0.4,0.5-0.6,0.9-0.5l3.5,0.8
		c0.4,0.1,0.6,0.5,0.5,0.9L309.7,770.2z"/>
	<path class="st0" d="M260.8,759.5c-0.1,0.4-0.6,0.5-0.9,0.4l-3.3-1.4c-0.4-0.2-0.5-0.6-0.4-1l3.9-9.4l-11.5-4.8l-3.9,9.4
		c-0.1,0.4-0.6,0.6-0.9,0.4l-3.3-1.3c-0.4-0.1-0.5-0.6-0.4-0.9l9.7-23.4c0.1-0.4,0.6-0.5,1-0.4l3.3,1.3c0.4,0.2,0.5,0.6,0.4,1
		l-4,9.8l11.5,4.8l4-9.8c0.1-0.4,0.6-0.6,1-0.4l3.3,1.4c0.4,0.1,0.5,0.6,0.4,0.9L260.8,759.5z"/>
	<path class="st0" d="M203.2,731.8c-0.2,0.3-0.7,0.5-1,0.3l-3.1-1.8c-0.3-0.2-0.5-0.7-0.3-1l12.9-21.8c0.2-0.3,0.7-0.5,1-0.3
		l3.1,1.8c0.3,0.2,0.5,0.7,0.3,1L203.2,731.8z"/>
	<path class="st0" d="M164.3,706.6c-0.2,0.3-0.7,0.3-1,0.1l-0.7-0.6l-1.8-23.2l0,0l-9.9,12.3c-0.2,0.3-0.7,0.4-1,0.1l-2.7-2.2
		c-0.3-0.2-0.4-0.7-0.1-1l16.2-20.1c0.2-0.3,0.7-0.3,1-0.1l0.7,0.6l1.5,23.7l0,0l10.3-12.8c0.2-0.3,0.7-0.4,1-0.1l2.7,2.2
		c0.3,0.2,0.4,0.7,0.1,1L164.3,706.6z"/>
	<path class="st0" d="M108,655.1c-2.3-2.6-3.5-5.9-3.6-9.3c0-0.4,0.3-0.8,0.8-0.7l3.4,0.1c0.4,0,0.7,0.3,0.7,0.7
		c0,2.2,0.8,4.2,2.2,5.8c3.2,3.6,8.8,3.7,12.3,0.5c3.5-3.2,4-8.7,0.8-12.3c-1.4-1.6-3-2.4-3.8-2.8l-2.4,2.2l2,2.3
		c0.3,0.3,0.3,0.7,0,1l-2.3,2c-0.3,0.3-0.7,0.3-1-0.1l-4.9-5.5c-0.3-0.3-0.2-0.7,0.1-1l7.3-6.5c0.2-0.2,0.5-0.2,0.7-0.2
		c0,0,4.5,1.3,8.2,5.4c5.1,5.7,4.7,14.3-1.1,19.4C121.7,661.3,113,660.8,108,655.1z"/>
	<path class="st0" d="M97.6,604.1l-2.7,0.1c-0.6,0-1-0.5-0.9-0.9c0-0.2,0.2-4.1-1.2-6.1c-1.1-1.7-3-2.2-4.4-1.3
		c-1.6,1.1-1.9,3.2-1.2,6.6c0.7,3.8,0.8,8.1-3,10.5c-2.9,1.9-7.5,1.9-10.9-3.2c-2.1-3.3-2.1-6.9-2-7.8c0-0.4,0.5-0.9,0.9-0.9l2.6,0
		c0.6,0,1.1,0.3,1.1,0.9c0,0.4,0,3.8,1.1,5.6c1.2,1.8,3.1,2,4.1,1.4c1.5-1,1.8-2.8,1.1-6.1c-0.8-3.9-1.3-8.7,2.9-11.4
		c3.3-2.2,8.2-1.3,11.2,3.2c2.6,4,2.3,7.6,2.1,8.7C98.4,603.8,98.3,604,97.6,604.1z"/>
	<path class="st0" d="M34.1,528.3c-0.4,0.1-0.8-0.1-0.9-0.5L28.2,513c-0.1-0.4,0.1-0.8,0.5-0.9l3-1c0.4-0.1,0.8,0.1,0.9,0.5
		l3.6,10.7L43,520l-3-9c-0.1-0.4,0.1-0.8,0.5-0.9l3-1c0.4-0.1,0.8,0.1,0.9,0.5l3,9l9.2-3.1c0.4-0.1,0.8,0.1,0.9,0.5l1.1,3.3
		c0.1,0.4-0.1,0.8-0.5,0.9L34.1,528.3z"/>
	<path class="st0" d="M16,462.5c-1.3-7.6,3.8-14.6,11.4-15.9c7.6-1.3,14.6,3.8,15.8,11.4c1.3,7.6-3.8,14.6-11.3,15.8
		C24.3,475.1,17.3,470.1,16,462.5z M38.3,458.8c-0.8-4.8-5.3-8-10.1-7.3c-4.8,0.8-8.1,5.4-7.3,10.1c0.8,4.8,5.4,8,10.2,7.2
		S39.1,463.6,38.3,458.8z"/>
	<path class="st0" d="M12.1,409.4c-0.4,0-0.7-0.3-0.7-0.7l-0.2-10.9c-0.1-4.6,3.5-8.4,8.1-8.5c3.5-0.1,6.4,2.2,7.8,5.5l9.6-5.4
		c0.5-0.3,1.1,0,1.1,0.6l0.1,4c0,0.3-0.2,0.5-0.3,0.6l-10.1,5.3l0.1,4.2l9.8-0.2c0.4,0,0.7,0.3,0.7,0.7l0.1,3.5
		c0,0.4-0.3,0.7-0.7,0.7L12.1,409.4z M23.4,397.9c0-2-1.8-3.8-4-3.7c-2,0-3.7,1.8-3.7,3.9l0.1,6.2l7.6-0.1L23.4,397.9z"/>
	<path class="st0" d="M27.4,305.2l-1.5,5.7c-0.1,0.4-0.5,0.6-0.9,0.5l-3-0.8c-0.4-0.1-0.6-0.5-0.5-0.9l4.2-16.2
		c0.1-0.4,0.5-0.6,0.9-0.5l3,0.8c0.4,0.1,0.6,0.5,0.5,0.9l-1.5,5.7l20.8,5.4c0.4,0.1,0.6,0.5,0.5,0.9l-0.9,3.4
		c-0.1,0.4-0.5,0.6-0.9,0.5L27.4,305.2z"/>
	<path class="st0" d="M39,256.4c-0.4-0.2-0.5-0.6-0.4-1l1.4-3.3c0.2-0.4,0.6-0.5,1-0.4l9.3,4l5-11.5l-9.3-4c-0.4-0.2-0.5-0.6-0.4-1
		l1.4-3.2c0.2-0.4,0.6-0.5,1-0.4l23.3,10.1c0.4,0.2,0.5,0.6,0.4,1l-1.4,3.2c-0.2,0.4-0.6,0.5-1,0.4l-9.7-4.2l-5,11.5l9.7,4.2
		c0.4,0.2,0.5,0.6,0.4,1l-1.4,3.3c-0.2,0.4-0.6,0.5-1,0.4L39,256.4z"/>
	<path class="st0" d="M67.7,199.1c-0.3-0.2-0.4-0.6-0.2-1l8.4-13.1c0.2-0.4,0.7-0.4,1-0.2l2.6,1.7c0.3,0.2,0.4,0.6,0.2,1l-6.1,9.6
		l5.3,3.4l5.1-8c0.2-0.3,0.7-0.4,1-0.2l2.7,1.7c0.4,0.2,0.4,0.7,0.2,1l-5.1,8l5.7,3.6l6.1-9.6c0.2-0.4,0.7-0.4,1-0.2l2.6,1.7
		c0.3,0.2,0.4,0.6,0.2,1l-8.4,13.1c-0.2,0.4-0.7,0.4-1,0.2L67.7,199.1z"/>
	<path class="st0" d="M128.1,123.2c-0.5-0.3-0.5-0.8-0.1-1.1l2.6-2.4c0.2-0.2,0.6-0.2,0.9-0.1l13.2,8.7l0.1-0.1l-6-15.8
		c-0.1-0.2-0.1-0.5,0.2-0.7l0.5-0.5c0.3-0.3,0.6-0.2,0.8-0.1l15.1,7.7l0.1-0.1l-7.3-14c-0.1-0.3-0.1-0.7,0.2-0.9l2.6-2.4
		c0.4-0.4,0.9-0.3,1.1,0.2l11.8,24c0.1,0.3,0.1,0.7-0.2,0.9l-0.5,0.4c-0.3,0.2-0.6,0.2-0.8,0.1l-16.7-8.3l-0.1,0.1l6.5,17.4
		c0.1,0.2,0.1,0.5-0.2,0.7l-0.5,0.4c-0.2,0.2-0.6,0.2-0.9,0.1L128.1,123.2z"/>
	<path class="st0" d="M183.6,78.3c-0.2-0.3-0.1-0.8,0.2-1l13.1-8.4c0.4-0.2,0.8-0.1,1,0.2l1.7,2.6c0.2,0.3,0.1,0.8-0.2,1l-9.6,6.1
		l3.4,5.3l8-5.1c0.3-0.2,0.8-0.1,1,0.2L204,82c0.2,0.4,0.1,0.8-0.2,1l-8,5.1l3.6,5.7l9.6-6.1c0.4-0.2,0.8-0.1,1,0.2l1.7,2.6
		c0.2,0.3,0.1,0.8-0.2,1l-13.1,8.4c-0.4,0.2-0.8,0.1-1-0.2L183.6,78.3z"/>
	<path class="st0" d="M233.3,50.3c-0.2-0.4,0-0.8,0.4-1l8-3.6c4.2-1.8,8.6-0.5,10.3,3.2c1.2,2.7-0.1,5.8-1.4,7.3
		c2.1-0.2,5.7,0.5,7.1,3.7c1.7,3.9-0.4,8.2-4.6,10.1l-8.5,3.8c-0.4,0.2-0.8,0-1-0.4L233.3,50.3z M245.8,56.2
		c1.8-0.8,2.4-2.7,1.6-4.5c-0.8-1.8-2.5-2.4-4.3-1.6l-3.7,1.7l2.7,6.1L245.8,56.2z M250.8,66.1c1.8-0.8,2.5-2.8,1.7-4.6
		c-0.8-1.8-3.1-2.3-4.9-1.5l-3.8,1.7l2.8,6.2L250.8,66.1z"/>
	<path class="st0" d="M330.4,37.4c-0.5-2.8,1.4-5.4,4-5.8c2.8-0.5,5.4,1.4,5.9,4.2c0.4,2.6-1.4,5.3-4.2,5.7
		C333.5,41.9,330.8,40.1,330.4,37.4z"/>
</g>
</svg>
