<svg width="32" height="22" xmlns="http://www.w3.org/2000/svg" class="svg-inline--fa fa-long-arrow-right fa-w-14">

 <g>
  <title>background</title>
  <rect fill="none" id="canvas_background" height="25" width="35" y="-1" x="-1"/>
 </g>
 <g>
  <title>Layer 1</title>
  <path stroke="null" id="svg_1" d="m21.050509,4.203756l-0.410363,0.410305c-0.27195,0.27195 -0.27195,0.712897 0,0.984906l4.87073,4.842641l-21.814461,0c-0.384595,0 -0.696415,0.31182 -0.696415,0.696415l0,0.580346c0,0.384595 0.31182,0.696415 0.696415,0.696415l21.814461,0l-4.87073,4.842641c-0.27195,0.27195 -0.27195,0.712897 0,0.984906l0.410363,0.410305c0.27195,0.27195 0.712897,0.27195 0.984848,0l6.760163,-6.732016c0.27195,-0.27195 0.27195,-0.712897 0,-0.984906l-6.760163,-6.731958c-0.27195,-0.272008 -0.712897,-0.272008 -0.984848,0z" fill="#ffffff"/>
 </g>
</svg>