<?xml version="1.0" encoding="utf-8"?>
<!-- Generator: Adobe Illustrator 23.1.1, SVG Export Plug-In . SVG Version: 6.00 Build 0)  -->
<svg version="1.1" id="Layer_1" xmlns="http://www.w3.org/2000/svg" xmlns:xlink="http://www.w3.org/1999/xlink" x="0px" y="0px"
	 viewBox="0 0 583.5 167.5" style="enable-background:new 0 0 583.5 167.5;" xml:space="preserve">
<style type="text/css">
	.st0{fill:#000111;}
</style>
<path class="st0" d="M570.8,63.8h-38c0.6-11.6,7.7-21.5,20.3-21.5C565.3,42.3,570.9,52.5,570.8,63.8 M578.8,64
	c0-17.4-9.3-29.2-25.4-29.2c-19.3,0-29,16.4-29,34.8c0,19.6,10.6,33.5,29.4,33.5c9.7,0,16.2-3.3,20-6.3c1-0.9,1.8-1.5,1.8-3
	c0-1.8-1.4-4.1-3.6-4.1c-1,0-1.5,0.4-3,1.3c-3.1,1.9-8.5,4.5-15.1,4.5c-12.2,0-21.4-9.7-21.4-24.1h40.2
	C577.1,71.3,578.8,68,578.8,64"/>
<path class="st0" d="M514.9,5.1c-12.9,0-18.8,8.1-18.8,22.4V36h-7.2c-2.7,0-4,1-4,3.7c0,2.6,1.3,3.7,4,3.7h7.2V98c0,2.7,1.3,4,4,4
	s4-1.3,4-4V43.5H515c2.6,0,4-1.2,4-3.7c0-2.7-1.4-3.7-4-3.7h-10.9v-8.9c0-10.4,3.1-14.4,10.4-14.4c1.4,0,2.8,0.3,4.1,0.8
	c0.6,0.3,1.3,0.5,1.9,0.5c1.8,0,3.2-2.1,3.2-4c0-1.4-0.6-2.6-2.2-3.3C519.7,5.6,516.9,5.1,514.9,5.1 M479.3,5.1
	c-12.9,0-18.8,8.1-18.8,22.4V36h-7.2c-2.7,0-4,1-4,3.7c0,2.6,1.3,3.7,4,3.7h7.2V98c0,2.7,1.3,4,4,4s4-1.3,4-4V43.5h10.9
	c2.6,0,4-1.2,4-3.7c0-2.7-1.4-3.7-4-3.7h-10.9v-8.9c0-10.4,3.1-14.4,10.4-14.4c1.4,0,2.8,0.3,4.1,0.8c0.6,0.3,1.3,0.5,1.9,0.5
	c1.8,0,3.2-2.1,3.2-4c0-1.4-0.6-2.6-2.2-3.3C484,5.6,481.2,5.1,479.3,5.1"/>
<path class="st0" d="M440.4,98.1V39.5c0-2.6-1.3-3.9-4-3.9c-2.6,0-4,1.3-4,3.9v58.6c0,2.7,1.3,4,3.9,4
	C439,102.1,440.4,100.8,440.4,98.1 M441.8,14.4c0-3-2.3-5.4-5.4-5.4c-3,0-5.4,2.4-5.4,5.4s2.4,5.4,5.4,5.4
	C439.5,19.8,441.8,17.5,441.8,14.4 M415.9,9c0-2.6-1.3-3.9-4-3.9c-2.6,0-4,1.3-4,3.9v89.2c0,2.6,1.3,3.9,4,3.9c2.6,0,4-1.4,4-3.9V9z
	 M394.3,42.1c-3.6-3.6-9.8-7.3-19.8-7.3c-16.9,0-29.7,13-29.7,34.1c0,20.5,11.3,34.1,28.8,34.1c9.8,0,16.5-4,20.6-7.5
	c1.3-1,1.8-2.1,1.8-3.2c0-1.8-1.4-4.1-3.7-4.1c-1.2,0-2.2,0.8-3.6,1.8c-4,3.1-9,5.4-14.8,5.4c-12.4,0-21.1-9.5-21.1-26.5
	c0-16.7,9-26.5,21.5-26.5c7.1,0,11.2,2.8,14.3,5c1.5,1.2,2.3,1.8,3.5,1.8c2.1,0,3.9-1.9,3.9-4C395.8,44.3,395.4,43.2,394.3,42.1
	 M332.2,98.1V58c0-12.2-5.9-23.3-22.5-23.3c-9.8,0-17.1,5.3-20.7,11.7v-6.8c0-2.6-1.3-4-4-4s-4,1.4-4,4v58.5c0,2.7,1.3,4,4,4
	s4-1.3,4-4V65.3c0-14.9,8.8-22.9,19.7-22.9c13.1,0,15.6,10,15.6,17.9v37.9c0,2.7,1.4,4,4.1,4C331.1,102.1,332.2,100.8,332.2,98.1
	 M272.7,39.2c0-2.6-3.1-4.5-9.3-4.5c-8,0-13.3,4.4-15.8,9.3v-4.5c0-2.6-1.3-3.9-4-3.9c-2.6,0-4,1.3-4,3.9v58.6c0,2.7,1.4,4,4,4
	c2.7,0,4-1.3,4-4V60.6c0-11.5,6.7-18.3,15.7-18.3c1.8,0,3.2,0.3,4.6,0.6c0.5,0.1,1.2,0.4,1.9,0.4C271.7,43.4,272.7,41.4,272.7,39.2
	 M215.2,75.3c0,11.7-7.6,20.1-18.7,20.1c-16.1,0-20.2-14-20.2-26.6s5.5-26.4,20.2-26.4c11.1,0,18.7,8.5,18.7,20.2
	C215.2,62.6,215.2,75.3,215.2,75.3z M223.2,98.1V39.5c0-2.6-1.4-3.9-4-3.9c-2.7,0-4,1.3-4,3.9v5.4c-3-5-8.9-10.2-18.9-10.2
	c-19.7,0-27.9,16.2-27.9,34c0,18,8,34.2,27,34.2c10.9,0,17-6.1,19.8-11.1V98c0,2.7,1.3,4,4,4C221.7,102.1,223.2,100.8,223.2,98.1
	 M155.8,98.1V58c0-12.2-5.9-23.3-22.5-23.3c-9.8,0-17.1,5.3-20.7,11.7V9.1c0-2.6-1.3-4-4-4s-4,1.4-4,4v89c0,2.7,1.3,4,4,4s4-1.3,4-4
	V65.3c0-14.9,8.8-22.9,19.7-22.9c13.1,0,15.6,10,15.6,17.9v37.9c0,2.7,1.4,4,4.1,4C154.7,102.1,155.8,100.8,155.8,98.1 M94.9,41.1
	c0,0,0.3-1.5,0.3-2.2c0-2.2-1.5-3.3-4.1-3.3c-2.2,0-3.5,0.9-3.9,3.2c-4.1,21.9-10.6,39.1-17.4,53.8c-4.4-9.5-8.2-21.1-11.6-35.3
	c-1.7-6.7-2.8-12.6-3.9-18.4c-0.5-2.3-1.9-3.3-4.1-3.3c-2.3,0-3.9,1-4.2,3.2C41,60.6,35.3,78,28.1,92.6C23.8,83,20,71.4,16.8,57.3
	c-1.7-6.7-2.8-12.6-3.7-18.4c-0.4-2.2-1.5-3.3-3.6-3.3c-2.7,0-4.1,1.3-4.1,3.5c0,0.4,0.1,1.3,0.1,1.3C6.5,47,7.8,53.8,10,62
	c4,16.1,8.1,27.8,13.5,38c0.8,1.4,2.4,2.2,4.1,2.2h0.6c1.5,0,3.1-0.6,3.9-2.1C39.3,87.5,45,71.3,49.9,51.4c4,19.8,9.5,37,15.6,48.5
	c0.8,1.4,2.2,2.2,3.9,2.2h0.8c1.5,0,3.2-0.6,4-2.1c5.4-9.9,10.4-22.4,15.3-38C92,53.8,93.6,47.4,94.9,41.1"/>
<path class="st0" d="M553.4,150.5c0-7-10.3-3.2-10.3-8.4c0-1.5,1.2-3,4.2-3c1.6,0,2.8,0.5,3.8,1.2c0.4,0.3,0.6,0.4,0.8,0.4
	c0.6,0,1-0.7,1-1.2c0-0.4-0.1-0.6-0.6-0.9c-1-0.7-2.5-1.6-5.1-1.6c-3.7,0-6.4,2.1-6.4,5.3c0,7.2,10.3,3.4,10.3,8.4
	c0,1.8-1.4,3-4.2,3c-1.7,0-3.4-0.7-4.5-1.6c-0.3-0.2-0.5-0.3-0.8-0.3c-0.5,0-1,0.5-1,1.1c0,0.4,0.1,0.7,0.5,0.9
	c1.4,1.1,3.3,1.9,5.9,1.9C551.1,155.7,553.4,153.4,553.4,150.5 M538.3,150.5c0-7-10.3-3.2-10.3-8.4c0-1.5,1.2-3,4.2-3
	c1.6,0,2.8,0.5,3.8,1.2c0.4,0.3,0.6,0.4,0.8,0.4c0.6,0,1-0.7,1-1.2c0-0.4-0.1-0.6-0.6-0.9c-1-0.7-2.5-1.6-5.1-1.6
	c-3.7,0-6.4,2.1-6.4,5.3c0,7.2,10.3,3.4,10.3,8.4c0,1.8-1.4,3-4.2,3c-1.7,0-3.4-0.7-4.5-1.6c-0.3-0.2-0.5-0.3-0.8-0.3
	c-0.5,0-1,0.5-1,1.1c0,0.4,0.1,0.7,0.5,0.9c1.4,1.1,3.3,1.9,5.9,1.9C536,155.7,538.3,153.4,538.3,150.5 M521,145h-10.4
	c0.2-3.2,2.1-5.9,5.6-5.9C519.5,139.1,521,141.9,521,145 M523.2,145c0-4.8-2.5-8-7-8c-5.3,0-7.9,4.5-7.9,9.5c0,5.4,2.9,9.2,8.1,9.2
	c2.7,0,4.5-0.9,5.5-1.7c0.3-0.2,0.5-0.4,0.5-0.8c0-0.5-0.4-1.1-1-1.1c-0.3,0-0.4,0.1-0.8,0.4c-0.8,0.5-2.3,1.2-4.1,1.2
	c-3.4,0-5.9-2.7-5.9-6.6h11C522.7,147,523.2,146.1,523.2,145 M504.5,154.4v-11c0-3.4-1.6-6.4-6.2-6.4c-2.7,0-4.7,1.4-5.7,3.2v-1.9
	c0-0.7-0.4-1.1-1.1-1.1s-1.1,0.4-1.1,1.1v16c0,0.7,0.4,1.1,1.1,1.1s1.1-0.4,1.1-1.1v-9c0-4.1,2.4-6.3,5.4-6.3c3.6,0,4.3,2.8,4.3,4.9
	v10.4c0,0.7,0.4,1.1,1.1,1.1C504.2,155.5,504.5,155.1,504.5,154.4 M485.5,154.4v-16.1c0-0.7-0.4-1.1-1.1-1.1s-1.1,0.4-1.1,1.1v16.1
	c0,0.7,0.4,1.1,1.1,1.1C485.2,155.5,485.5,155.1,485.5,154.4 M485.9,131.4c0-0.8-0.6-1.5-1.5-1.5c-0.8,0-1.5,0.7-1.5,1.5
	s0.7,1.5,1.5,1.5C485.3,132.9,485.9,132.2,485.9,131.4 M479.7,150.5c0-7-10.3-3.2-10.3-8.4c0-1.5,1.2-3,4.2-3c1.6,0,2.8,0.5,3.8,1.2
	c0.4,0.3,0.6,0.4,0.8,0.4c0.6,0,1-0.7,1-1.2c0-0.4-0.1-0.6-0.6-0.9c-1-0.7-2.5-1.6-5.1-1.6c-3.7,0-6.4,2.1-6.4,5.3
	c0,7.2,10.3,3.4,10.3,8.4c0,1.8-1.4,3-4.2,3c-1.7,0-3.4-0.7-4.5-1.6c-0.3-0.2-0.5-0.3-0.8-0.3c-0.5,0-1,0.5-1,1.1
	c0,0.4,0.1,0.7,0.5,0.9c1.4,1.1,3.3,1.9,5.9,1.9C477.3,155.7,479.7,153.4,479.7,150.5 M463.4,154.4v-16.1c0-0.7-0.3-1.1-1.1-1.1
	c-0.7,0-1.1,0.4-1.1,1.1v9.1c0,3.7-2,6.2-5.4,6.2c-2.9,0-4.2-2.2-4.2-4.7v-10.6c0-0.7-0.4-1.1-1.1-1.1s-1.1,0.4-1.1,1.1V149
	c0,3.6,1.8,6.7,6.1,6.7c2.7,0,4.6-1.2,5.8-3.2v1.9c0,0.7,0.4,1.1,1.1,1.1C463,155.5,463.4,155.1,463.4,154.4 M443.4,146.2
	c0,4.5-2,7.5-5.6,7.5c-3,0-5.1-2.4-5.1-5.9V145c0-4,2.5-5.9,5.2-5.9C441.5,139.1,443.4,141.8,443.4,146.2 M445.5,146.2
	c0-5.7-2.4-9.2-7.5-9.2c-2.8,0-4.7,1.8-5.4,3.2V130c0-0.7-0.4-1.1-1.1-1.1s-1.1,0.4-1.1,1.1v24.4c0,0.7,0.4,1.1,1.1,1.1
	s1.1-0.4,1.1-1.1v-1.6c0.9,1.7,2.6,3,5.2,3C442.6,155.7,445.5,152,445.5,146.2 M420,138.2c0-0.7-0.8-1.2-2.5-1.2
	c-2.2,0-3.6,1.2-4.4,2.5v-1.2c0-0.7-0.4-1.1-1.1-1.1s-1.1,0.4-1.1,1.1v16.1c0,0.7,0.4,1.1,1.1,1.1s1.1-0.4,1.1-1.1v-10.3
	c0-3.1,1.8-5,4.3-5c0.5,0,0.9,0.1,1.3,0.2c0.1,0,0.3,0.1,0.5,0.1C419.8,139.3,420,138.8,420,138.2 M404.9,146.3
	c0,2.4-0.6,4.2-1.8,5.5c-1,1.1-2.4,1.8-4,1.8c-1.5,0-2.9-0.7-3.9-1.8c-1.2-1.3-1.8-3.1-1.8-5.5c0-2.5,0.6-4.4,1.8-5.7
	c1-1,2.4-1.6,3.9-1.6c1.6,0,2.9,0.6,3.9,1.6C404.3,142,404.9,143.8,404.9,146.3 M407.1,146.3c0-3.1-0.8-5.6-2.5-7.2
	c-1.4-1.4-3.3-2.1-5.4-2.1s-3.9,0.7-5.4,2.1c-1.7,1.7-2.5,4.1-2.5,7.2c0,3,0.8,5.4,2.4,7.1c1.5,1.6,3.3,2.3,5.4,2.3
	c2.2,0,4-0.7,5.5-2.3C406.3,151.7,407.1,149.4,407.1,146.3 M388.3,128.9c-3.5,0-5.2,2.2-5.2,6.1v2.3h-2c-0.7,0-1.1,0.3-1.1,1
	s0.4,1,1.1,1h2v15c0,0.7,0.4,1.1,1.1,1.1s1.1-0.4,1.1-1.1v-15h3c0.7,0,1.1-0.3,1.1-1s-0.4-1-1.1-1h-3v-2.4c0-2.9,0.9-4,2.9-4
	c0.4,0,0.8,0.1,1.1,0.2c0.2,0.1,0.4,0.1,0.5,0.1c0.5,0,0.9-0.6,0.9-1.1c0-0.4-0.2-0.7-0.6-0.9C389.7,129,388.9,128.9,388.3,128.9
	 M360.5,130c0-0.7-0.4-1.1-1.1-1.1s-1.1,0.4-1.1,1.1v24.4c0,0.7,0.3,1.1,1.1,1.1c0.7,0,1.1-0.4,1.1-1.1v-6.5
	c0.6-0.4,1.7-1.2,2.3-1.6c2.8,2.4,5,5.8,6.5,8.5c0.2,0.5,0.5,0.7,1,0.7c0.6,0,1.1-0.5,1.1-1c0-0.3,0-0.5-0.3-1.1
	c-1.2-2.3-3.7-5.9-6.6-8.5c2.3-2,4.1-3.9,5.5-5.9c0.2-0.2,0.3-0.6,0.3-0.8c0-0.5-0.5-0.9-1.1-0.9c-0.4,0-0.6,0.2-0.9,0.6
	c-1.9,2.6-4.5,5.3-7.8,7.7V130L360.5,130z M355.7,138.2c0-0.7-0.8-1.2-2.5-1.2c-2.2,0-3.6,1.2-4.3,2.5v-1.2c0-0.7-0.4-1.1-1.1-1.1
	s-1.1,0.4-1.1,1.1v16.1c0,0.7,0.4,1.1,1.1,1.1s1.1-0.4,1.1-1.1v-10.3c0-3.1,1.8-5,4.3-5c0.5,0,0.9,0.1,1.3,0.2
	c0.1,0,0.3,0.1,0.5,0.1C355.4,139.3,355.7,138.8,355.7,138.2 M340.6,146.3c0,2.4-0.6,4.2-1.8,5.5c-1,1.1-2.4,1.8-4,1.8
	s-2.9-0.7-3.9-1.8c-1.2-1.3-1.8-3.1-1.8-5.5c0-2.5,0.6-4.4,1.8-5.7c1-1,2.4-1.6,3.9-1.6c1.6,0,2.9,0.6,3.9,1.6
	C340,142,340.6,143.8,340.6,146.3 M342.8,146.3c0-3.1-0.8-5.6-2.5-7.2c-1.4-1.4-3.3-2.1-5.4-2.1s-3.9,0.7-5.4,2.1
	c-1.7,1.7-2.5,4.1-2.5,7.2c0,3,0.8,5.4,2.4,7.1c1.4,1.6,3.3,2.3,5.4,2.3c2.2,0,4-0.7,5.5-2.3C342,151.7,342.8,149.4,342.8,146.3
	 M325.2,138.7c0,0,0.1-0.4,0.1-0.6c0-0.6-0.4-0.9-1.1-0.9c-0.6,0-1,0.2-1.1,0.9c-1.1,6-2.9,10.7-4.8,14.8c-1.2-2.6-2.3-5.8-3.2-9.7
	c-0.5-1.8-0.8-3.5-1.1-5.1c-0.1-0.6-0.5-0.9-1.1-0.9s-1.1,0.3-1.2,0.9c-1.4,6-2.9,10.8-4.9,14.8c-1.2-2.6-2.2-5.8-3.1-9.7
	c-0.5-1.8-0.8-3.5-1-5.1c-0.1-0.6-0.4-0.9-1-0.9c-0.7,0-1.1,0.4-1.1,1c0,0.1,0,0.4,0,0.4c0.3,1.8,0.6,3.7,1.2,5.9
	c1.1,4.4,2.2,7.6,3.7,10.4c0.2,0.4,0.7,0.6,1.1,0.6h0.2c0.4,0,0.8-0.2,1.1-0.6c2-3.4,3.5-7.9,4.9-13.4c1.1,5.4,2.6,10.1,4.3,13.3
	c0.2,0.4,0.6,0.6,1.1,0.6h0.2c0.4,0,0.9-0.2,1.1-0.6c1.5-2.7,2.9-6.1,4.2-10.4C324.4,142.2,324.8,140.4,325.2,138.7 M288.8,145
	h-10.4c0.2-3.2,2.1-5.9,5.6-5.9C287.2,139.1,288.8,141.9,288.8,145 M290.9,145c0-4.8-2.5-8-7-8c-5.3,0-7.9,4.5-7.9,9.5
	c0,5.4,2.9,9.2,8.1,9.2c2.7,0,4.5-0.9,5.5-1.7c0.3-0.2,0.5-0.4,0.5-0.8c0-0.5-0.4-1.1-1-1.1c-0.3,0-0.4,0.1-0.8,0.4
	c-0.8,0.5-2.3,1.2-4.1,1.2c-3.4,0-5.9-2.7-5.9-6.6h11C290.5,147,290.9,146.1,290.9,145 M270,148c0,3.2-2,5.6-5.1,5.6
	c-3.5,0-5.5-2.8-5.5-7.3c0-4.6,2.2-7.2,5.5-7.2c3,0,5.1,2.3,5.1,5.5V148L270,148z M272.2,138.3c0-0.7-0.4-1.1-1.1-1.1
	s-1.1,0.4-1.1,1.1v1.4c-0.8-1.4-2.5-2.8-5.1-2.8c-4.7,0-7.7,3.5-7.7,9.3c0,6,3,9.4,7.5,9.4c2.7,0,4.5-1.4,5.4-3.1v1.7
	c0,3.6-1.4,6.5-5.8,6.5c-1.9,0-3.1-0.7-4-1.2c-0.4-0.2-0.7-0.4-1-0.4c-0.4,0-0.9,0.5-0.9,1.2c0,0.3,0.2,0.6,0.7,1
	c1.1,0.7,3.1,1.5,5.1,1.5c5.6,0,8.1-3.4,8.1-9.1L272.2,138.3L272.2,138.3z M251.1,148.1c0,3.2-2.1,5.5-5.1,5.5
	c-4.4,0-5.5-3.9-5.5-7.3c0-3.5,1.5-7.2,5.5-7.2c3,0,5.1,2.3,5.1,5.5V148.1L251.1,148.1z M253.3,154.4v-16.1c0-0.7-0.4-1.1-1.1-1.1
	c-0.7,0-1.1,0.4-1.1,1.1v1.5c-0.8-1.4-2.4-2.8-5.2-2.8c-5.4,0-7.7,4.4-7.7,9.3c0,4.9,2.2,9.4,7.4,9.4c3,0,4.7-1.7,5.4-3v1.7
	c0,0.7,0.4,1.1,1.1,1.1C252.9,155.5,253.3,155.1,253.3,154.4 M235.1,148.9c0-4.4-3.1-5.8-6.9-7c-2.4-0.7-5-1.4-5-4.5
	c0-2.6,1.9-4.4,4.9-4.4c2.1,0,3.5,0.9,4.6,1.7c0.5,0.4,0.6,0.5,1,0.5c0.6,0,1.1-0.5,1.1-1.1c0-0.4-0.2-0.7-0.5-1
	c-1.4-1.3-3.2-2.3-6.1-2.3c-3.9,0-7.2,2.5-7.2,6.5c0,4.4,3,5.6,6.5,6.6c2.7,0.8,5.4,1.6,5.4,4.8c0,3-2.2,4.7-5.1,4.7
	c-2.3,0-4.1-1-5.4-2c-0.4-0.3-0.5-0.4-0.9-0.4c-0.5,0-1.1,0.6-1.1,1.1c0,0.4,0.1,0.6,0.5,1c1.3,1.2,3.4,2.4,6.8,2.4
	C231.7,155.7,235.1,153.3,235.1,148.9 M206.7,148c0,3.2-2,5.6-5.1,5.6c-3.5,0-5.6-2.8-5.6-7.3c0-4.6,2.2-7.2,5.6-7.2
	c3,0,5.1,2.3,5.1,5.5V148L206.7,148z M208.9,138.3c0-0.7-0.4-1.1-1.1-1.1c-0.7,0-1.1,0.4-1.1,1.1v1.4c-0.8-1.4-2.5-2.8-5.1-2.8
	c-4.7,0-7.7,3.5-7.7,9.3c0,6,3,9.4,7.5,9.4c2.7,0,4.5-1.4,5.4-3.1v1.7c0,3.6-1.4,6.5-5.8,6.5c-1.9,0-3.1-0.7-4-1.2
	c-0.4-0.2-0.7-0.4-1-0.4c-0.4,0-0.9,0.5-0.9,1.2c0,0.3,0.2,0.6,0.7,1c1.1,0.7,3.1,1.5,5.1,1.5c5.6,0,8.1-3.4,8.1-9.1L208.9,138.3
	L208.9,138.3z M190.1,154.4v-11c0-3.4-1.6-6.4-6.2-6.4c-2.7,0-4.7,1.4-5.7,3.2v-1.9c0-0.7-0.4-1.1-1.1-1.1s-1.1,0.4-1.1,1.1v16
	c0,0.7,0.4,1.1,1.1,1.1s1.1-0.4,1.1-1.1v-9c0-4.1,2.4-6.3,5.4-6.3c3.6,0,4.3,2.8,4.3,4.9v10.4c0,0.7,0.4,1.1,1.1,1.1
	C189.8,155.5,190.1,155.1,190.1,154.4 M171.1,154.4v-16.1c0-0.7-0.4-1.1-1.1-1.1c-0.7,0-1.1,0.4-1.1,1.1v16.1c0,0.7,0.4,1.1,1.1,1.1
	C170.7,155.5,171.1,155.1,171.1,154.4 M171.5,131.4c0-0.8-0.6-1.5-1.5-1.5c-0.8,0-1.5,0.7-1.5,1.5s0.7,1.5,1.5,1.5
	C170.9,132.9,171.5,132.2,171.5,131.4 M154.9,130c0-0.7-0.4-1.1-1.1-1.1c-0.7,0-1.1,0.4-1.1,1.1v24.4c0,0.7,0.4,1.1,1.1,1.1
	c0.7,0,1.1-0.4,1.1-1.1v-6.5c0.6-0.4,1.7-1.2,2.3-1.6c2.8,2.4,5,5.8,6.5,8.5c0.2,0.5,0.5,0.7,1,0.7c0.6,0,1.1-0.5,1.1-1
	c0-0.3,0-0.5-0.3-1.1c-1.2-2.3-3.7-5.9-6.6-8.5c2.3-2,4.1-3.9,5.5-5.9c0.2-0.2,0.3-0.6,0.3-0.8c0-0.5-0.5-0.9-1.1-0.9
	c-0.4,0-0.6,0.2-0.9,0.6c-1.9,2.6-4.5,5.3-7.8,7.7V130L154.9,130z M145.7,148.1c0,3.2-2.1,5.5-5.1,5.5c-4.4,0-5.5-3.9-5.5-7.3
	c0-3.5,1.5-7.2,5.5-7.2c3,0,5.1,2.3,5.1,5.5V148.1L145.7,148.1z M147.9,154.4v-16.1c0-0.7-0.4-1.1-1.1-1.1c-0.7,0-1.1,0.4-1.1,1.1
	v1.5c-0.8-1.4-2.4-2.8-5.2-2.8c-5.4,0-7.7,4.4-7.7,9.3c0,4.9,2.2,9.4,7.4,9.4c3,0,4.7-1.7,5.4-3v1.7c0,0.7,0.4,1.1,1.1,1.1
	C147.5,155.5,147.9,155.1,147.9,154.4 M129,154.4v-11.2c0-3.6-2.1-6.1-6.3-6.1c-2.8,0-4.6,1.5-5.5,3.2c-1.1-2.1-2.8-3.2-5.4-3.2
	c-2.3,0-4.1,1.3-5,2.8v-1.5c0-0.7-0.4-1.1-1.1-1.1s-1.1,0.4-1.1,1.1v16c0,0.7,0.4,1.1,1.1,1.1s1.1-0.4,1.1-1.1V145
	c0-3.7,1.9-5.9,4.8-5.9c3,0,4.1,2.1,4.1,4.4v10.9c0,0.7,0.4,1.1,1.1,1.1s1.1-0.4,1.1-1.1V145c0-4.2,2.3-5.9,4.7-5.9
	c2.8,0,4.2,1.8,4.2,4.4v10.9c0,0.7,0.4,1.1,1.1,1.1C128.6,155.5,129,155.1,129,154.4"/>
</svg>
