<?xml version="1.0" encoding="utf-8"?>
<!-- Generator: Adobe Illustrator 23.0.6, SVG Export Plug-In . SVG Version: 6.00 Build 0)  -->
<svg version="1.1" id="Layer_1" focusable="false" xmlns="http://www.w3.org/2000/svg" xmlns:xlink="http://www.w3.org/1999/xlink"
	 x="0px" y="0px" viewBox="0 0 512 512" style="enable-background:new 0 0 512 512;" xml:space="preserve">
<style type="text/css">
	.st0{fill:#FFFFFF;}
</style>
<path class="st0" d="M351.6,160.8c7.1,11.3,13.2,23.2,18,35.6C432.8,211.6,480,268.2,480,336c0,79.4-64.6,144-144,144
	s-144-64.6-144-144c0-66.5,45.5-121.6,106.9-138c13.1,21.7,21.1,46.8,21.1,74c0,55-31.4,102.4-76.8,126.6
	c6.4,9.2,14.2,17.4,23.1,24.3C317.5,392.2,352,336.2,352,272c0-76.4-48.8-141.2-116.8-165.6L278,44.2L217.2,0h-82.4L74,44.2
	l42.8,62.2C48.8,130.8,0,195.6,0,272c0,97.2,78.8,176,176,176c7.7,0,15.4-0.6,23-1.6c60.9,75.7,171.7,87.7,247.4,26.8
	C487.9,439.7,512,389.3,512,336C512,244.1,441.5,168.7,351.6,160.8z M118,51.8L145.2,32h61.6L234,51.8l-31.9,46.4
	c-8.6-1.4-17.4-2.1-26.1-2.1c-8.7,0.1-17.5,0.8-26.1,2.2L118,51.8z M176,416c-79.4,0-144-64.6-144-144s64.6-144,144-144
	c38.3,0,74.9,15.2,101.9,42.4C209.4,194.4,160,259.2,160,336c0,27.7,6.6,55,19.2,79.7C178.1,415.7,177.1,416,176,416L176,416z"/>
</svg>
