<?xml version="1.0" encoding="utf-8"?>
<!-- Generator: Adobe Illustrator 23.0.6, SVG Export Plug-In . SVG Version: 6.00 Build 0)  -->
<svg version="1.1" id="Layer_1" xmlns="http://www.w3.org/2000/svg" xmlns:xlink="http://www.w3.org/1999/xlink" x="0px" y="0px"
	 viewBox="0 0 302 470" style="enable-background:new 0 0 302 470;" xml:space="preserve">
<style type="text/css">
	.st0{fill:#FFFFFF;}
</style>
<g>
	<path class="st0" d="M149.9,10.3c-36.8,0-66.6,29.8-66.6,66.6c0,36.8,29.8,66.6,66.6,66.6s66.6-29.8,66.6-66.6
		C216.5,40.1,186.7,10.3,149.9,10.3z M175.7,65.9c-8.5,0-15.4-6.9-15.4-15.4s6.9-15.4,15.4-15.4s15.4,6.9,15.4,15.4
		S184.2,65.9,175.7,65.9z"/>
	<path class="st0" d="M238.2,245.2h-4.6c-4.5,8-36.1,18.2-83.7,18.2c-47.6,0-79.3-10.2-83.7-18.2h-4.6l1.2,65.2
		c0,13.3,39.5,24.1,88.3,24.1c48.8,0,88.3-10.8,88.3-24.1L238.2,245.2z"/>
	<path class="st0" d="M174.4,220.2v23.9h4.1v0h-57v0h4.1v-24c-37.3,3-60,12.3-60,19.2c0,8.2,32.8,20.1,84.3,20.1
		c51.5,0,84.3-11.9,84.3-20.1C234.2,232.5,211.5,223.1,174.4,220.2z"/>
	<path class="st0" d="M170.6,244.1v-99.8c-6.7,2-13.6,3.1-20.6,3.1c-7,0-13.9-1-20.6-3.1v99.8h-3.5v0h48.2v0H170.6z"/>
</g>
<g>
	<path class="st0" d="M54.7,364.6l-6.2,6.4c-2.2-2-4.6-3-7.5-3c-2.8,0-3.9,1-3.9,2.4c0,1.6,1.4,2,5.7,3.6c6.9,2.4,9.7,6.1,9.7,11.3
		c0,7.1-4.5,14.7-17.7,14.7c-7.4,0-12.4-3-15.4-6l6.9-7.1c2.4,2.4,5.2,3.7,8.5,3.7c3.4,0,4.5-1.2,4.5-2.5c0-1.8-1.2-3.1-5-4.5
		c-7.9-2.6-10.4-6.7-10.4-11.5c0-6.7,5-13,17-13C46.9,359.2,51.5,361.2,54.7,364.6z"/>
	<path class="st0" d="M81.8,398.8l1.7-12.8c0.6-4.7,1.4-9.5,3-17.1l-7.2,26.2h-12L66.8,369c0,8.2-0.2,11.8-0.9,16.9l-1.9,13H51.7
		l7.9-38.5h15l-0.1,25.5l6.7-25.6h15.7l-2.8,38.5H81.8z"/>
	<path class="st0" d="M107.5,391.9l-2,6.9H92.4l16.1-38.5h14.9l5.3,38.5h-13.2l-0.2-6.9H107.5z M114.5,368.1l-4.4,14.9h4.9
		L114.5,368.1z"/>
	<path class="st0" d="M162.6,364.6l-6.2,6.4c-2.2-2-4.6-3-7.5-3c-2.8,0-3.9,1-3.9,2.4c0,1.6,1.4,2,5.7,3.6c6.9,2.4,9.7,6.1,9.7,11.3
		c0,7.1-4.5,14.7-17.7,14.7c-7.4,0-12.4-3-15.4-6l6.9-7.1c2.4,2.4,5.2,3.7,8.5,3.7c3.4,0,4.5-1.2,4.5-2.5c0-1.8-1.2-3.1-5-4.5
		c-7.9-2.6-10.4-6.7-10.4-11.5c0-6.7,5-13,17-13C154.7,359.2,159.4,361.2,162.6,364.6z"/>
	<path class="st0" d="M175.4,383.9l-2,14.9h-12.5l5.3-38.5h12.5l-1.9,13.8h6.9l1.9-13.8h12.5l-5.3,38.5h-12.5l2-14.9H175.4z"/>
	<path class="st0" d="M196,398.8l5.3-38.5h12.5l-5.3,38.5H196z"/>
	<path class="st0" d="M227.6,398.8l-3.3-28.1c0.3,4.9,0.8,10.3-0.3,18.1l-1.4,10h-10.8l5.3-38.5h15.4l3.5,28.1
		c-0.4-5.6-0.8-10.2,0.4-18.4l1.3-9.7h10.8l-5.3,38.5H227.6z"/>
	<path class="st0" d="M283.6,364.5l-6.9,6.3c-1.9-1.9-3.6-2.9-6.3-2.9c-8.2,0-9.8,10.2-9.8,17.5c0,4.4,1.4,5.6,4,5.6
		c1.3,0,2.3-0.3,3.4-0.6l0.9-6.1h-3.2l0.2-8.4h16.2l-2.6,19.6c-4.6,2.9-10.6,4.5-15.2,4.5c-11.5,0-16.3-5.6-16.3-15.5
		c0-11.9,6-25.4,22.8-25.4C276.6,359.2,281.1,361.5,283.6,364.5z"/>
	<path class="st0" d="M18.8,464.9l-2.2-8.9c5-1.9,5.8-4.9,6.5-8.9l4.4-31.7H40l-4.5,32.1C33.9,458.8,25.8,462.6,18.8,464.9z"/>
	<path class="st0" d="M75.9,430c0,10.5-4.6,25-21.1,25c-10.3,0-15.6-6.2-15.6-16c0-10.6,4.8-24.8,21.1-24.8
		C70.6,414.2,75.9,420.2,75.9,430z M52.1,440.4c0,4.1,1,5.7,3.8,5.7c6.4,0,7.2-12.1,7.2-17.4c0-4.1-1.1-5.7-3.8-5.7
		C52.9,423,52.1,435.3,52.1,440.4z"/>
	<path class="st0" d="M94.2,453.8H81.7l2-14L75,415.3h13.5l2.8,15l6.9-15h13.3l-15.4,24.4L94.2,453.8z"/>
	<path class="st0" d="M138.5,419.6l-6.2,6.4c-2.2-2-4.6-3-7.5-3c-2.8,0-3.9,1-3.9,2.4c0,1.6,1.4,2,5.7,3.6c6.9,2.4,9.7,6.1,9.7,11.3
		c0,7.1-4.5,14.7-17.7,14.7c-7.4,0-12.4-3-15.4-6l6.9-7.1c2.4,2.4,5.2,3.7,8.5,3.7c3.4,0,4.5-1.2,4.5-2.5c0-1.8-1.2-3.1-5-4.5
		c-7.9-2.6-10.4-6.7-10.4-11.5c0-6.7,5-13,17-13C130.7,414.2,135.3,416.2,138.5,419.6z"/>
	<path class="st0" d="M160,424.8l-4.1,29.1h-12.5l4.1-29.1h-8.8l1.3-9.4h30.7l-2.5,9.4H160z"/>
	<path class="st0" d="M166.5,453.8l5.3-38.5h12.5l-5.3,38.5H166.5z"/>
	<path class="st0" d="M216.9,419.3l-6.7,6.5c-1.5-1.6-3.1-2.6-5.7-2.6c-6.3,0-8,10.4-8,15.4c0,4.7,1.7,7,5.1,7
		c2.5,0,4.6-1.4,7.1-3.3l4.5,7.2c-3.3,3-8.2,5.6-13.5,5.6c-10,0-16-5.6-16-16.1c0-10.9,5.4-24.8,20.8-24.8
		C210,414.2,214.2,416,216.9,419.3z"/>
	<path class="st0" d="M213.9,453.8l5.3-38.5h12.5l-5.3,38.5H213.9z M250.1,453.8h-14l-6.5-20.5l12-18h12.9l-12.3,17.5L250.1,453.8z"
		/>
	<path class="st0" d="M284.4,419.6l-6.2,6.4c-2.2-2-4.6-3-7.5-3c-2.8,0-3.9,1-3.9,2.4c0,1.6,1.4,2,5.7,3.6c6.9,2.4,9.7,6.1,9.7,11.3
		c0,7.1-4.5,14.7-17.7,14.7c-7.4,0-12.4-3-15.4-6l6.9-7.1c2.4,2.4,5.2,3.7,8.5,3.7c3.4,0,4.5-1.2,4.5-2.5c0-1.8-1.2-3.1-5-4.5
		c-7.9-2.6-10.4-6.7-10.4-11.5c0-6.7,5-13,17-13C276.5,414.2,281.2,416.2,284.4,419.6z"/>
</g>
</svg>
