<svg id="Layer_1" data-name="Layer 1" xmlns="http://www.w3.org/2000/svg" xmlns:xlink="http://www.w3.org/1999/xlink" viewBox="0 0 632.82 135.29"><defs><style>.cls-1{fill:none;}.cls-2{clip-path:url(#clip-path);}.cls-3{font-size:35.6px;font-family:Georgia-Italic, Georgia;font-style:italic;}.cls-3,.cls-5{fill:#5dbdcc;}.cls-4{fill:#fff;}</style><clipPath id="clip-path"><rect class="cls-1" width="632.82" height="135.29"/></clipPath></defs><title>Artboard 1_white</title><g id="Artwork_2" data-name="Artwork 2"><g class="cls-2"><g class="cls-2"><text class="cls-3" transform="translate(136.45 124.5) rotate(-0.09)">A name you can trust</text></g><polygon class="cls-4" points="27.43 3.2 7.02 25.46 6.98 3.24 0 3.25 0.07 51.82 7.06 51.8 7.02 27.8 31.76 51.77 41.37 51.76 14.99 26.22 36.1 3.19 27.43 3.2"/><path class="cls-4" d="M106.73,51.65H99.61L93.1,37.36l-20.65,0L66.37,51.72H59.24L80,2.84h4.91ZM75.16,31.1l15.1,0L82.4,13.52Z"/><g class="cls-2"><path class="cls-4" d="M142.17,3c9.83,0,16,5.18,16,13.59A12.17,12.17,0,0,1,150,28.51c4.41,2.91,7.13,7.39,10.83,13.44,2.08,3.35,3.3,5,6.65,9.61h-8.33l-6.42-10c-6.42-9.95-9.34-11.08-12.9-11.08H137l0,21.09h-7L129.94,3l12.23,0m-5.24,21.23h4.49c7.48,0,9.61-3.87,9.53-7.91-.08-4.57-2.78-7.33-9.54-7.33h-4.49Z"/><polygon class="cls-4" points="218.14 9.18 197.56 9.21 197.58 23.88 217.45 23.85 217.46 30.12 197.59 30.15 197.61 45.24 218.84 45.21 218.84 51.48 190.65 51.52 190.58 2.95 218.13 2.91 218.14 9.18"/><polygon class="cls-4" points="288.98 51.38 283 51.38 250.47 14.04 250.53 51.43 243.97 51.44 243.9 2.87 249.45 2.86 282.4 40.41 282.34 2.81 288.9 2.8 288.98 51.38"/><path class="cls-4" d="M355,2.7l14.08,0c10.47,0,15,6.25,15,12.37,0,5-2.34,8.34-7.4,10.41v.14c7.27,1.34,11.69,6.11,11.69,12.66,0,6-4.46,13-16.63,13l-16.64,0L355,2.7m7,20.79h4.6c6.93,0,10.27-2.59,10.26-7.78,0-3.64-2.08-6.76-8.49-6.75H362ZM362,45h8.75c8.19,0,10.38-4.07,10.37-7.7,0-4.43-3.42-7.55-10.76-7.54H362Z"/><polygon class="cls-4" points="440.4 8.84 419.83 8.87 419.85 23.54 439.71 23.51 439.72 29.78 419.87 29.81 419.88 44.9 441.09 44.87 441.11 51.14 412.91 51.18 412.84 2.61 440.39 2.57 440.4 8.84"/><polygon class="cls-4" points="502.7 8.75 485.89 8.77 485.96 51.07 478.98 51.08 478.92 8.78 462.1 8.81 462.09 2.54 502.69 2.48 502.7 8.75"/><polygon class="cls-4" points="563.5 8.65 546.68 8.68 546.74 50.98 539.77 50.99 539.7 8.69 522.89 8.71 522.89 2.44 563.49 2.38 563.5 8.65"/><path class="cls-4" d="M610.91,13c-4.13-3.92-8.11-5-11.4-5-4.48,0-7.68,2.34-7.67,5.77,0,9.32,21,9.15,21,24.6,0,7.62-5.73,13.17-13.58,13.19a21.5,21.5,0,0,1-13.61-4.46V38.24c3.58,4.54,8.06,7,12.83,7,5.4,0,7.91-3.44,7.9-6.13,0-10-21-11.15-21.06-24.47,0-7.89,5.82-13,14.74-13A19.41,19.41,0,0,1,610.9,5.1V13"/><path class="cls-4" d="M632.82,5.85A5.86,5.86,0,1,1,627,0a5.87,5.87,0,0,1,5.87,5.85m-10.88,0a5,5,0,1,0,10,0,5,5,0,1,0-10,0m5.33-3.31c.41,0,2.36,0,2.37,1.82A1.54,1.54,0,0,1,628.4,6V6c.92.26,1.09.81,1.13,1.67.06,1.13.06,1.27.22,1.55h-.84c-.12-.2-.17-.4-.2-1.24,0-1.06-.19-1.6-1.72-1.59H625.3V9.28h-.84l0-6.71Zm-2,3.1H627c.45,0,1.81,0,1.81-1.23s-1.22-1.09-1.66-1.09h-1.84Z"/><rect class="cls-5" y="78.64" width="612.87" height="0.75"/></g></g></g></svg>