<svg version="1.1" id="Layer_1" xmlns="http://www.w3.org/2000/svg" xmlns:xlink="http://www.w3.org/1999/xlink" x="0px" y="0px"
	 viewBox="0 0 632.8 135.3" style="enable-background:new 0 0 632.8 135.3;" xml:space="preserve">
<style type="text/css">
	.st0{fill:none;}
	.st1{fill:#000111;}
	.st2{font-family:'Georgia-Italic';}
	.st3{font-size:35.6px;}
</style>
<title>Artboard 1_white</title>
<rect class="st0" width="632.8" height="135.3"/>
<rect class="st0" width="632.8" height="135.3"/>
<g>
	<text transform="matrix(1 -1.570796e-03 1.570796e-03 1 136.45 124.5)" class="st1 st2 st3">A name you can trust</text>
</g>
<polygon class="st1" points="27.4,3.2 7,25.5 7,3.2 0,3.2 0.1,51.8 7.1,51.8 7,27.8 31.8,51.8 41.4,51.8 15,26.2 36.1,3.2 "/>
<path class="st1" d="M106.7,51.7h-7.1l-6.5-14.3H72.4l-6.1,14.4h-7.1L80,2.8h4.9L106.7,51.7z M75.2,31.1h15.1l-7.9-17.6L75.2,31.1z"
	/>
<rect class="st0" width="632.8" height="135.3"/>
<path class="st1" d="M142.2,3c9.8,0,16,5.2,16,13.6c0.2,5.3-3.1,10.2-8.2,11.9c4.4,2.9,7.1,7.4,10.8,13.4c2.1,3.3,3.3,5,6.6,9.6
	h-8.3l-6.4-10c-6.4-10-9.3-11.1-12.9-11.1H137v21.1h-7L129.9,3H142.2 M136.9,24.2h4.5c7.5,0,9.6-3.9,9.5-7.9
	c-0.1-4.6-2.8-7.3-9.5-7.3h-4.5L136.9,24.2z"/>
<polygon class="st1" points="218.1,9.2 197.6,9.2 197.6,23.9 217.4,23.9 217.5,30.1 197.6,30.1 197.6,45.2 218.8,45.2 218.8,51.5 
	190.6,51.5 190.6,3 218.1,2.9 "/>
<polygon class="st1" points="289,51.4 283,51.4 250.5,14 250.5,51.4 244,51.4 243.9,2.9 249.4,2.9 282.4,40.4 282.3,2.8 288.9,2.8 
	"/>
<path class="st1" d="M355,2.7h14.1c10.5,0,15,6.2,15,12.4c0,5-2.3,8.3-7.4,10.4v0.1c7.3,1.3,11.7,6.1,11.7,12.7c0,6-4.5,13-16.6,13
	h-16.6L355,2.7 M362,23.5h4.6c6.9,0,10.3-2.6,10.3-7.8c0-3.6-2.1-6.8-8.5-6.8H362V23.5z M362,45h8.8c8.2,0,10.4-4.1,10.4-7.7
	c0-4.4-3.4-7.5-10.8-7.5H362V45z"/>
<polygon class="st1" points="440.4,8.8 419.8,8.9 419.9,23.5 439.7,23.5 439.7,29.8 419.9,29.8 419.9,44.9 441.1,44.9 441.1,51.1 
	412.9,51.2 412.8,2.6 440.4,2.6 "/>
<polygon class="st1" points="502.7,8.8 485.9,8.8 486,51.1 479,51.1 478.9,8.8 462.1,8.8 462.1,2.5 502.7,2.5 "/>
<polygon class="st1" points="563.5,8.6 546.7,8.7 546.7,51 539.8,51 539.7,8.7 522.9,8.7 522.9,2.4 563.5,2.4 "/>
<path class="st1" d="M610.9,13c-4.1-3.9-8.1-5-11.4-5c-4.5,0-7.7,2.3-7.7,5.8c0,9.3,21,9.1,21,24.6c0,7.6-5.7,13.2-13.6,13.2
	c-4.9,0.1-9.7-1.5-13.6-4.5v-8.9c3.6,4.5,8.1,7,12.8,7c5.4,0,7.9-3.4,7.9-6.1c0-10-21-11.1-21.1-24.5c0-7.9,5.8-13,14.7-13
	c3.9,0,7.7,1.2,10.8,3.5L610.9,13"/>
<path class="st1" d="M632.8,5.8c0,3.2-2.6,5.9-5.9,5.9c-3.2,0-5.9-2.6-5.9-5.9S623.7,0,627,0c0,0,0,0,0,0
	C630.2,0,632.9,2.6,632.8,5.8 M622,5.8c0,2.8,2.2,5,5,5s5-2.2,5-5s-2.2-5-5-5S622,3.1,622,5.8 M627.3,2.5c0.4,0,2.4,0,2.4,1.8
	c0.1,0.8-0.5,1.5-1.3,1.6l0,0c0.9,0.3,1.1,0.8,1.1,1.7c0.1,1.1,0.1,1.3,0.2,1.6h-0.8c-0.1-0.2-0.2-0.4-0.2-1.2
	c0-1.1-0.2-1.6-1.7-1.6h-1.7v2.9h-0.8V2.6L627.3,2.5z M625.3,5.6h1.7c0.5,0,1.8,0,1.8-1.2s-1.2-1.1-1.7-1.1h-1.8L625.3,5.6z"/>
<rect y="78.6" class="st1" width="612.9" height="0.8"/>
</svg>