<?xml version="1.0" encoding="utf-8"?>
<!-- Generator: Adobe Illustrator 23.0.6, SVG Export Plug-In . SVG Version: 6.00 Build 0)  -->
<svg version="1.1" id="Layer_1" xmlns="http://www.w3.org/2000/svg" xmlns:xlink="http://www.w3.org/1999/xlink" x="0px" y="0px"
	 viewBox="0 0 302 344" style="enable-background:new 0 0 302 344;" xml:space="preserve">
<style type="text/css">
	.st0{fill:#FFFFFF;}
</style>
<g>
	<path class="st0" d="M148.4,10.3c-36.8,0-66.6,29.8-66.6,66.6c0,36.8,29.8,66.6,66.6,66.6S215,113.7,215,76.9
		C215,40.1,185.2,10.3,148.4,10.3z M174.2,65.9c-8.5,0-15.4-6.9-15.4-15.4s6.9-15.4,15.4-15.4s15.4,6.9,15.4,15.4
		S182.7,65.9,174.2,65.9z"/>
	<path class="st0" d="M236.7,245.2h-4.6c-4.5,8-36.1,18.2-83.7,18.2c-47.6,0-79.3-10.2-83.7-18.2h-4.6l1.2,65.2
		c0,13.3,39.5,24.1,88.3,24.1c48.8,0,88.3-10.8,88.3-24.1L236.7,245.2z"/>
	<path class="st0" d="M172.9,220.2v23.9h4.1v0h-57v0h4.1v-24c-37.3,3-60,12.3-60,19.2c0,8.2,32.8,20.1,84.3,20.1
		c51.5,0,84.3-11.9,84.3-20.1C232.7,232.5,210,223.1,172.9,220.2z"/>
	<path class="st0" d="M169.1,244.1v-99.8c-6.7,2-13.6,3.1-20.6,3.1c-7,0-13.9-1-20.6-3.1v99.8h-3.5v0h48.2v0H169.1z"/>
</g>
</svg>
